<?xml version="1.0" encoding="utf-8" standalone="no"?>
<!DOCTYPE svg PUBLIC "-//W3C//DTD SVG 1.1//EN"
  "http://www.w3.org/Graphics/SVG/1.1/DTD/svg11.dtd">
<svg xmlns:xlink="http://www.w3.org/1999/xlink" width="998.397187pt" height="422.624937pt" viewBox="0 0 998.397187 422.624937" xmlns="http://www.w3.org/2000/svg" version="1.1">
 <metadata>
  <rdf:RDF xmlns:dc="http://purl.org/dc/elements/1.1/" xmlns:cc="http://creativecommons.org/ns#" xmlns:rdf="http://www.w3.org/1999/02/22-rdf-syntax-ns#">
   <cc:Work>
    <dc:type rdf:resource="http://purl.org/dc/dcmitype/StillImage"/>
    <dc:date>2026-01-25T12:15:45.880148</dc:date>
    <dc:format>image/svg+xml</dc:format>
    <dc:creator>
     <cc:Agent>
      <dc:title>Matplotlib v3.10.8, https://matplotlib.org/</dc:title>
     </cc:Agent>
    </dc:creator>
   </cc:Work>
  </rdf:RDF>
 </metadata>
 <defs>
  <style type="text/css">*{stroke-linejoin: round; stroke-linecap: butt}</style>
 </defs>
 <g id="figure_1">
  <g id="patch_1">
   <path d="M 0 422.624937 
L 998.397187 422.624937 
L 998.397187 0 
L 0 0 
z
" style="fill: #ffffff"/>
  </g>
  <g id="axes_1">
   <g id="patch_2">
    <path d="M 44.555937 383.133062 
L 991.197188 383.133062 
L 991.197188 39.713812 
L 44.555937 39.713812 
z
" style="fill: #ffffff"/>
   </g>
   <g id="FillBetweenPolyCollection_1">
    <defs>
     <path id="m4f5626f165" d="M 123.462045 -120.951713 
L 123.462045 -115.896642 
L 124.532999 -112.814055 
L 125.639652 -71.044253 
L 126.710606 -82.656472 
L 127.817258 -88.120752 
L 128.923911 -94.368322 
L 129.923468 -85.995039 
L 131.03012 -101.372854 
L 132.101074 -95.740504 
L 133.207727 -97.945411 
L 134.278681 -117.317824 
L 134.278681 -120.951713 
L 134.278681 -120.951713 
L 133.207727 -120.951713 
L 132.101074 -120.951713 
L 131.03012 -120.951713 
L 129.923468 -120.951713 
L 128.923911 -120.951713 
L 127.817258 -120.951713 
L 126.710606 -120.951713 
L 125.639652 -120.951713 
L 124.532999 -120.951713 
L 123.462045 -120.951713 
z
" style="stroke: #fcab8f; stroke-opacity: 0.5"/>
    </defs>
    <g clip-path="url(#p0658fbdcc2)">
     <use xlink:href="#m4f5626f165" x="0" y="422.624937" style="fill: #fcab8f; fill-opacity: 0.5; stroke: #fcab8f; stroke-opacity: 0.5"/>
    </g>
   </g>
   <g id="FillBetweenPolyCollection_2">
    <defs>
     <path id="m9c22ee7013" d="M 176.68846 -120.951713 
L 176.68846 -113.385967 
L 177.795112 -77.018386 
L 178.866066 -101.977809 
L 179.972719 -90.981399 
L 179.972719 -120.951713 
L 179.972719 -120.951713 
L 178.866066 -120.951713 
L 177.795112 -120.951713 
L 176.68846 -120.951713 
z
" style="stroke: #fc9c7d; stroke-opacity: 0.5"/>
    </defs>
    <g clip-path="url(#p0658fbdcc2)">
     <use xlink:href="#m9c22ee7013" x="0" y="422.624937" style="fill: #fc9c7d; fill-opacity: 0.5; stroke: #fc9c7d; stroke-opacity: 0.5"/>
    </g>
   </g>
   <g id="FillBetweenPolyCollection_3">
    <defs>
     <path id="m9a9a37b239" d="M 267.969441 -120.951713 
L 267.969441 -120.28157 
L 269.076094 -84.855711 
L 270.147048 -89.592963 
L 270.147048 -120.951713 
L 270.147048 -120.951713 
L 269.076094 -120.951713 
L 267.969441 -120.951713 
z
" style="stroke: #fc8d6d; stroke-opacity: 0.5"/>
    </defs>
    <g clip-path="url(#p0658fbdcc2)">
     <use xlink:href="#m9a9a37b239" x="0" y="422.624937" style="fill: #fc8d6d; fill-opacity: 0.5; stroke: #fc8d6d; stroke-opacity: 0.5"/>
    </g>
   </g>
   <g id="FillBetweenPolyCollection_4">
    <defs>
     <path id="m8172641521" d="M 321.231555 -120.951713 
L 321.231555 -112.432954 
L 322.302509 -90.536317 
L 323.409161 -93.243915 
L 324.515814 -108.372951 
L 325.515371 -112.62902 
L 326.622023 -114.351159 
L 327.692977 -114.002137 
L 328.79963 -119.224906 
L 329.870584 -115.003429 
L 330.977236 -107.19956 
L 332.083889 -109.751774 
L 333.154843 -97.144482 
L 334.261495 -87.13969 
L 335.332449 -118.514116 
L 335.332449 -120.951713 
L 335.332449 -120.951713 
L 334.261495 -120.951713 
L 333.154843 -120.951713 
L 332.083889 -120.951713 
L 330.977236 -120.951713 
L 329.870584 -120.951713 
L 328.79963 -120.951713 
L 327.692977 -120.951713 
L 326.622023 -120.951713 
L 325.515371 -120.951713 
L 324.515814 -120.951713 
L 323.409161 -120.951713 
L 322.302509 -120.951713 
L 321.231555 -120.951713 
z
" style="stroke: #fb7d5d; stroke-opacity: 0.5"/>
    </defs>
    <g clip-path="url(#p0658fbdcc2)">
     <use xlink:href="#m8172641521" x="0" y="422.624937" style="fill: #fb7d5d; fill-opacity: 0.5; stroke: #fb7d5d; stroke-opacity: 0.5"/>
    </g>
   </g>
   <g id="FillBetweenPolyCollection_5">
    <defs>
     <path id="md23e927d04" d="M 367.92515 -120.951713 
L 367.92515 -119.305915 
L 368.996104 -114.879387 
L 370.102757 -110.696308 
L 371.209409 -99.174289 
L 372.280363 -112.397559 
L 373.387016 -115.126826 
L 373.387016 -120.951713 
L 373.387016 -120.951713 
L 372.280363 -120.951713 
L 371.209409 -120.951713 
L 370.102757 -120.951713 
L 368.996104 -120.951713 
L 367.92515 -120.951713 
z
" style="stroke: #fb6e4e; stroke-opacity: 0.5"/>
    </defs>
    <g clip-path="url(#p0658fbdcc2)">
     <use xlink:href="#md23e927d04" x="0" y="422.624937" style="fill: #fb6e4e; fill-opacity: 0.5; stroke: #fb6e4e; stroke-opacity: 0.5"/>
    </g>
   </g>
   <g id="FillBetweenPolyCollection_6">
    <defs>
     <path id="me2b9fe29d7" d="M 399.446897 -120.951713 
L 399.446897 -116.75361 
L 400.517851 -95.76379 
L 401.624503 -73.244763 
L 402.731156 -60.233904 
L 403.730713 -55.101841 
L 404.837365 -63.301524 
L 405.908319 -111.475284 
L 407.014972 -111.127312 
L 408.085926 -119.774819 
L 409.192578 -114.504475 
L 410.299231 -112.179648 
L 410.299231 -120.951713 
L 410.299231 -120.951713 
L 409.192578 -120.951713 
L 408.085926 -120.951713 
L 407.014972 -120.951713 
L 405.908319 -120.951713 
L 404.837365 -120.951713 
L 403.730713 -120.951713 
L 402.731156 -120.951713 
L 401.624503 -120.951713 
L 400.517851 -120.951713 
L 399.446897 -120.951713 
z
" style="stroke: #f85f43; stroke-opacity: 0.5"/>
    </defs>
    <g clip-path="url(#p0658fbdcc2)">
     <use xlink:href="#me2b9fe29d7" x="0" y="422.624937" style="fill: #f85f43; fill-opacity: 0.5; stroke: #f85f43; stroke-opacity: 0.5"/>
    </g>
   </g>
   <g id="FillBetweenPolyCollection_7">
    <defs>
     <path id="mf2b027e0a4" d="M 460.241387 -120.951713 
L 460.241387 -99.497436 
L 461.348039 -93.003156 
L 462.454692 -82.687777 
L 463.525646 -84.750076 
L 464.632298 -91.819011 
L 464.632298 -120.951713 
L 464.632298 -120.951713 
L 463.525646 -120.951713 
L 462.454692 -120.951713 
L 461.348039 -120.951713 
L 460.241387 -120.951713 
z
" style="stroke: #f44d38; stroke-opacity: 0.5"/>
    </defs>
    <g clip-path="url(#p0658fbdcc2)">
     <use xlink:href="#mf2b027e0a4" x="0" y="422.624937" style="fill: #f44d38; fill-opacity: 0.5; stroke: #f44d38; stroke-opacity: 0.5"/>
    </g>
   </g>
   <g id="FillBetweenPolyCollection_8">
    <defs>
     <path id="mfda4268c7a" d="M 471.129419 -120.951713 
L 471.129419 -114.778578 
L 472.236072 -108.203832 
L 473.307026 -104.996583 
L 474.413678 -117.385038 
L 475.520331 -120.757544 
L 475.520331 -120.951713 
L 475.520331 -120.951713 
L 474.413678 -120.951713 
L 473.307026 -120.951713 
L 472.236072 -120.951713 
L 471.129419 -120.951713 
z
" style="stroke: #ef3c2c; stroke-opacity: 0.5"/>
    </defs>
    <g clip-path="url(#p0658fbdcc2)">
     <use xlink:href="#mfda4268c7a" x="0" y="422.624937" style="fill: #ef3c2c; fill-opacity: 0.5; stroke: #ef3c2c; stroke-opacity: 0.5"/>
    </g>
   </g>
   <g id="FillBetweenPolyCollection_9">
    <defs>
     <path id="m6aa3e8df3a" d="M 513.5035 -120.951713 
L 513.5035 -118.026201 
L 514.610153 -95.161086 
L 515.681107 -99.456495 
L 515.681107 -120.951713 
L 515.681107 -120.951713 
L 514.610153 -120.951713 
L 513.5035 -120.951713 
z
" style="stroke: #e22e27; stroke-opacity: 0.5"/>
    </defs>
    <g clip-path="url(#p0658fbdcc2)">
     <use xlink:href="#m6aa3e8df3a" x="0" y="422.624937" style="fill: #e22e27; fill-opacity: 0.5; stroke: #e22e27; stroke-opacity: 0.5"/>
    </g>
   </g>
   <g id="FillBetweenPolyCollection_10">
    <defs>
     <path id="mc2a9d01687" d="M 654.762336 -120.951713 
L 654.762336 -119.786592 
L 655.83329 -112.532032 
L 656.939942 -108.298146 
L 658.046595 -103.707302 
L 659.117549 -71.647156 
L 660.224201 -86.929959 
L 661.295155 -91.264372 
L 661.295155 -120.951713 
L 661.295155 -120.951713 
L 660.224201 -120.951713 
L 659.117549 -120.951713 
L 658.046595 -120.951713 
L 656.939942 -120.951713 
L 655.83329 -120.951713 
L 654.762336 -120.951713 
z
" style="stroke: #d42121; stroke-opacity: 0.5"/>
    </defs>
    <g clip-path="url(#p0658fbdcc2)">
     <use xlink:href="#mc2a9d01687" x="0" y="422.624937" style="fill: #d42121; fill-opacity: 0.5; stroke: #d42121; stroke-opacity: 0.5"/>
    </g>
   </g>
   <g id="FillBetweenPolyCollection_11">
    <defs>
     <path id="m9b4cae4796" d="M 692.781204 -120.951713 
L 692.781204 -119.839414 
L 693.887856 -120.543433 
L 694.95881 -108.800592 
L 694.95881 -120.951713 
L 694.95881 -120.951713 
L 693.887856 -120.951713 
L 692.781204 -120.951713 
z
" style="stroke: #c8171c; stroke-opacity: 0.5"/>
    </defs>
    <g clip-path="url(#p0658fbdcc2)">
     <use xlink:href="#m9b4cae4796" x="0" y="422.624937" style="fill: #c8171c; fill-opacity: 0.5; stroke: #c8171c; stroke-opacity: 0.5"/>
    </g>
   </g>
   <g id="FillBetweenPolyCollection_12">
    <defs>
     <path id="m1592342931" d="M 811.228719 -120.951713 
L 811.228719 -110.856411 
L 812.299673 -88.991669 
L 813.406325 -85.028407 
L 814.512978 -75.608609 
L 815.583932 -78.956122 
L 816.690584 -93.053219 
L 817.761538 -101.232214 
L 817.761538 -120.951713 
L 817.761538 -120.951713 
L 816.690584 -120.951713 
L 815.583932 -120.951713 
L 814.512978 -120.951713 
L 813.406325 -120.951713 
L 812.299673 -120.951713 
L 811.228719 -120.951713 
z
" style="stroke: #b91419; stroke-opacity: 0.5"/>
    </defs>
    <g clip-path="url(#p0658fbdcc2)">
     <use xlink:href="#m1592342931" x="0" y="422.624937" style="fill: #b91419; fill-opacity: 0.5; stroke: #b91419; stroke-opacity: 0.5"/>
    </g>
   </g>
   <g id="FillBetweenPolyCollection_13">
    <defs>
     <path id="m6252da4b45" d="M 935.102401 -120.951713 
L 935.102401 -118.22952 
L 936.209053 -119.183337 
L 937.315706 -111.219994 
L 937.315706 -120.951713 
L 937.315706 -120.951713 
L 936.209053 -120.951713 
L 935.102401 -120.951713 
z
" style="stroke: #ab1016; stroke-opacity: 0.5"/>
    </defs>
    <g clip-path="url(#p0658fbdcc2)">
     <use xlink:href="#m6252da4b45" x="0" y="422.624937" style="fill: #ab1016; fill-opacity: 0.5; stroke: #ab1016; stroke-opacity: 0.5"/>
    </g>
   </g>
   <g id="FillBetweenPolyCollection_14">
    <defs>
     <path id="m2a15acd7b0" d="M 939.457614 -120.951713 
L 939.457614 -120.456319 
L 940.528568 -113.301925 
L 941.63522 -112.006278 
L 942.706174 -99.697883 
L 943.812827 -97.01177 
L 944.919479 -98.126211 
L 944.919479 -120.951713 
L 944.919479 -120.951713 
L 943.812827 -120.951713 
L 942.706174 -120.951713 
L 941.63522 -120.951713 
L 940.528568 -120.951713 
L 939.457614 -120.951713 
z
" style="stroke: #980c13; stroke-opacity: 0.5"/>
    </defs>
    <g clip-path="url(#p0658fbdcc2)">
     <use xlink:href="#m2a15acd7b0" x="0" y="422.624937" style="fill: #980c13; fill-opacity: 0.5; stroke: #980c13; stroke-opacity: 0.5"/>
    </g>
   </g>
   <g id="matplotlib.axis_1">
    <g id="xtick_1">
     <g id="line2d_1">
      <path d="M 101.721678 383.133062 
L 101.721678 39.713812 
" clip-path="url(#p0658fbdcc2)" style="fill: none; stroke: #b0b0b0; stroke-opacity: 0.3; stroke-width: 0.8; stroke-linecap: square"/>
     </g>
     <g id="line2d_2">
      <defs>
       <path id="m4ba1bdb1d4" d="M 0 0 
L 0 3.5 
" style="stroke: #000000; stroke-width: 0.8"/>
      </defs>
      <g>
       <use xlink:href="#m4ba1bdb1d4" x="101.721678" y="383.133062" style="stroke: #000000; stroke-width: 0.8"/>
      </g>
     </g>
     <g id="text_1">
      <!-- 1960 -->
      <g transform="translate(88.996678 397.7315) scale(0.1 -0.1)">
       <defs>
        <path id="DejaVuSerif-31" d="M 909 0 
L 909 331 
L 1722 331 
L 1722 4213 
L 781 3603 
L 781 4013 
L 1919 4750 
L 2350 4750 
L 2350 331 
L 3163 331 
L 3163 0 
L 909 0 
z
" transform="scale(0.015625)"/>
        <path id="DejaVuSerif-39" d="M 2994 2091 
Q 2784 1856 2512 1740 
Q 2241 1625 1900 1625 
Q 1206 1625 804 2044 
Q 403 2463 403 3188 
Q 403 3897 839 4323 
Q 1275 4750 2003 4750 
Q 2794 4750 3217 4161 
Q 3641 3572 3641 2478 
Q 3641 1253 3137 581 
Q 2634 -91 1722 -91 
Q 1475 -91 1203 -44 
Q 931 3 647 97 
L 647 872 
L 997 872 
Q 1038 556 1241 387 
Q 1444 219 1784 219 
Q 2391 219 2687 676 
Q 2984 1134 2994 2091 
z
M 1978 4441 
Q 1534 4441 1298 4117 
Q 1063 3794 1063 3188 
Q 1063 2581 1298 2256 
Q 1534 1931 1978 1931 
Q 2422 1931 2658 2245 
Q 2894 2559 2894 3150 
Q 2894 3772 2656 4106 
Q 2419 4441 1978 4441 
z
" transform="scale(0.015625)"/>
        <path id="DejaVuSerif-36" d="M 2094 219 
Q 2534 219 2771 542 
Q 3009 866 3009 1472 
Q 3009 2078 2771 2401 
Q 2534 2725 2094 2725 
Q 1647 2725 1412 2412 
Q 1178 2100 1178 1509 
Q 1178 888 1415 553 
Q 1653 219 2094 219 
z
M 1075 2569 
Q 1288 2803 1556 2918 
Q 1825 3034 2163 3034 
Q 2859 3034 3264 2615 
Q 3669 2197 3669 1472 
Q 3669 763 3233 336 
Q 2797 -91 2069 -91 
Q 1278 -91 853 498 
Q 428 1088 428 2181 
Q 428 3406 931 4078 
Q 1434 4750 2350 4750 
Q 2597 4750 2869 4703 
Q 3141 4656 3425 4563 
L 3425 3794 
L 3072 3794 
Q 3034 4109 2831 4275 
Q 2628 4441 2284 4441 
Q 1678 4441 1381 3981 
Q 1084 3522 1075 2569 
z
" transform="scale(0.015625)"/>
        <path id="DejaVuSerif-30" d="M 2034 219 
Q 2513 219 2750 744 
Q 2988 1269 2988 2328 
Q 2988 3391 2750 3916 
Q 2513 4441 2034 4441 
Q 1556 4441 1318 3916 
Q 1081 3391 1081 2328 
Q 1081 1269 1318 744 
Q 1556 219 2034 219 
z
M 2034 -91 
Q 1275 -91 848 546 
Q 422 1184 422 2328 
Q 422 3475 848 4112 
Q 1275 4750 2034 4750 
Q 2797 4750 3222 4112 
Q 3647 3475 3647 2328 
Q 3647 1184 3222 546 
Q 2797 -91 2034 -91 
z
" transform="scale(0.015625)"/>
       </defs>
       <use xlink:href="#DejaVuSerif-31"/>
       <use xlink:href="#DejaVuSerif-39" transform="translate(63.623047 0)"/>
       <use xlink:href="#DejaVuSerif-36" transform="translate(127.246094 0)"/>
       <use xlink:href="#DejaVuSerif-30" transform="translate(190.869141 0)"/>
      </g>
     </g>
    </g>
    <g id="xtick_2">
     <g id="line2d_3">
      <path d="M 232.12818 383.133062 
L 232.12818 39.713812 
" clip-path="url(#p0658fbdcc2)" style="fill: none; stroke: #b0b0b0; stroke-opacity: 0.3; stroke-width: 0.8; stroke-linecap: square"/>
     </g>
     <g id="line2d_4">
      <g>
       <use xlink:href="#m4ba1bdb1d4" x="232.12818" y="383.133062" style="stroke: #000000; stroke-width: 0.8"/>
      </g>
     </g>
     <g id="text_2">
      <!-- 1970 -->
      <g transform="translate(219.40318 397.7315) scale(0.1 -0.1)">
       <defs>
        <path id="DejaVuSerif-37" d="M 3609 4347 
L 1784 0 
L 1319 0 
L 3059 4153 
L 903 4153 
L 903 3578 
L 538 3578 
L 538 4666 
L 3609 4666 
L 3609 4347 
z
" transform="scale(0.015625)"/>
       </defs>
       <use xlink:href="#DejaVuSerif-31"/>
       <use xlink:href="#DejaVuSerif-39" transform="translate(63.623047 0)"/>
       <use xlink:href="#DejaVuSerif-37" transform="translate(127.246094 0)"/>
       <use xlink:href="#DejaVuSerif-30" transform="translate(190.869141 0)"/>
      </g>
     </g>
    </g>
    <g id="xtick_3">
     <g id="line2d_5">
      <path d="M 362.498983 383.133062 
L 362.498983 39.713812 
" clip-path="url(#p0658fbdcc2)" style="fill: none; stroke: #b0b0b0; stroke-opacity: 0.3; stroke-width: 0.8; stroke-linecap: square"/>
     </g>
     <g id="line2d_6">
      <g>
       <use xlink:href="#m4ba1bdb1d4" x="362.498983" y="383.133062" style="stroke: #000000; stroke-width: 0.8"/>
      </g>
     </g>
     <g id="text_3">
      <!-- 1980 -->
      <g transform="translate(349.773983 397.7315) scale(0.1 -0.1)">
       <defs>
        <path id="DejaVuSerif-38" d="M 2981 1275 
Q 2981 1775 2732 2051 
Q 2484 2328 2034 2328 
Q 1584 2328 1336 2051 
Q 1088 1775 1088 1275 
Q 1088 772 1336 495 
Q 1584 219 2034 219 
Q 2484 219 2732 495 
Q 2981 772 2981 1275 
z
M 2853 3541 
Q 2853 3966 2637 4203 
Q 2422 4441 2034 4441 
Q 1650 4441 1433 4203 
Q 1216 3966 1216 3541 
Q 1216 3113 1433 2875 
Q 1650 2638 2034 2638 
Q 2422 2638 2637 2875 
Q 2853 3113 2853 3541 
z
M 2516 2484 
Q 3047 2413 3344 2092 
Q 3641 1772 3641 1275 
Q 3641 619 3225 264 
Q 2809 -91 2034 -91 
Q 1263 -91 845 264 
Q 428 619 428 1275 
Q 428 1772 725 2092 
Q 1022 2413 1556 2484 
Q 1084 2569 832 2842 
Q 581 3116 581 3541 
Q 581 4103 968 4426 
Q 1356 4750 2034 4750 
Q 2713 4750 3100 4426 
Q 3488 4103 3488 3541 
Q 3488 3116 3236 2842 
Q 2984 2569 2516 2484 
z
" transform="scale(0.015625)"/>
       </defs>
       <use xlink:href="#DejaVuSerif-31"/>
       <use xlink:href="#DejaVuSerif-39" transform="translate(63.623047 0)"/>
       <use xlink:href="#DejaVuSerif-38" transform="translate(127.246094 0)"/>
       <use xlink:href="#DejaVuSerif-30" transform="translate(190.869141 0)"/>
      </g>
     </g>
    </g>
    <g id="xtick_4">
     <g id="line2d_7">
      <path d="M 492.905485 383.133062 
L 492.905485 39.713812 
" clip-path="url(#p0658fbdcc2)" style="fill: none; stroke: #b0b0b0; stroke-opacity: 0.3; stroke-width: 0.8; stroke-linecap: square"/>
     </g>
     <g id="line2d_8">
      <g>
       <use xlink:href="#m4ba1bdb1d4" x="492.905485" y="383.133062" style="stroke: #000000; stroke-width: 0.8"/>
      </g>
     </g>
     <g id="text_4">
      <!-- 1990 -->
      <g transform="translate(480.180485 397.7315) scale(0.1 -0.1)">
       <use xlink:href="#DejaVuSerif-31"/>
       <use xlink:href="#DejaVuSerif-39" transform="translate(63.623047 0)"/>
       <use xlink:href="#DejaVuSerif-39" transform="translate(127.246094 0)"/>
       <use xlink:href="#DejaVuSerif-30" transform="translate(190.869141 0)"/>
      </g>
     </g>
    </g>
    <g id="xtick_5">
     <g id="line2d_9">
      <path d="M 623.276288 383.133062 
L 623.276288 39.713812 
" clip-path="url(#p0658fbdcc2)" style="fill: none; stroke: #b0b0b0; stroke-opacity: 0.3; stroke-width: 0.8; stroke-linecap: square"/>
     </g>
     <g id="line2d_10">
      <g>
       <use xlink:href="#m4ba1bdb1d4" x="623.276288" y="383.133062" style="stroke: #000000; stroke-width: 0.8"/>
      </g>
     </g>
     <g id="text_5">
      <!-- 2000 -->
      <g transform="translate(610.551288 397.7315) scale(0.1 -0.1)">
       <defs>
        <path id="DejaVuSerif-32" d="M 819 3553 
L 469 3553 
L 469 4384 
Q 803 4563 1142 4656 
Q 1481 4750 1806 4750 
Q 2534 4750 2956 4397 
Q 3378 4044 3378 3438 
Q 3378 2753 2422 1800 
Q 2347 1728 2309 1691 
L 1131 513 
L 3078 513 
L 3078 1088 
L 3444 1088 
L 3444 0 
L 434 0 
L 434 341 
L 1850 1753 
Q 2319 2222 2519 2614 
Q 2719 3006 2719 3438 
Q 2719 3909 2473 4175 
Q 2228 4441 1797 4441 
Q 1350 4441 1106 4219 
Q 863 3997 819 3553 
z
" transform="scale(0.015625)"/>
       </defs>
       <use xlink:href="#DejaVuSerif-32"/>
       <use xlink:href="#DejaVuSerif-30" transform="translate(63.623047 0)"/>
       <use xlink:href="#DejaVuSerif-30" transform="translate(127.246094 0)"/>
       <use xlink:href="#DejaVuSerif-30" transform="translate(190.869141 0)"/>
      </g>
     </g>
    </g>
    <g id="xtick_6">
     <g id="line2d_11">
      <path d="M 753.682789 383.133062 
L 753.682789 39.713812 
" clip-path="url(#p0658fbdcc2)" style="fill: none; stroke: #b0b0b0; stroke-opacity: 0.3; stroke-width: 0.8; stroke-linecap: square"/>
     </g>
     <g id="line2d_12">
      <g>
       <use xlink:href="#m4ba1bdb1d4" x="753.682789" y="383.133062" style="stroke: #000000; stroke-width: 0.8"/>
      </g>
     </g>
     <g id="text_6">
      <!-- 2010 -->
      <g transform="translate(740.957789 397.7315) scale(0.1 -0.1)">
       <use xlink:href="#DejaVuSerif-32"/>
       <use xlink:href="#DejaVuSerif-30" transform="translate(63.623047 0)"/>
       <use xlink:href="#DejaVuSerif-31" transform="translate(127.246094 0)"/>
       <use xlink:href="#DejaVuSerif-30" transform="translate(190.869141 0)"/>
      </g>
     </g>
    </g>
    <g id="xtick_7">
     <g id="line2d_13">
      <path d="M 884.053592 383.133062 
L 884.053592 39.713812 
" clip-path="url(#p0658fbdcc2)" style="fill: none; stroke: #b0b0b0; stroke-opacity: 0.3; stroke-width: 0.8; stroke-linecap: square"/>
     </g>
     <g id="line2d_14">
      <g>
       <use xlink:href="#m4ba1bdb1d4" x="884.053592" y="383.133062" style="stroke: #000000; stroke-width: 0.8"/>
      </g>
     </g>
     <g id="text_7">
      <!-- 2020 -->
      <g transform="translate(871.328592 397.7315) scale(0.1 -0.1)">
       <use xlink:href="#DejaVuSerif-32"/>
       <use xlink:href="#DejaVuSerif-30" transform="translate(63.623047 0)"/>
       <use xlink:href="#DejaVuSerif-32" transform="translate(127.246094 0)"/>
       <use xlink:href="#DejaVuSerif-30" transform="translate(190.869141 0)"/>
      </g>
     </g>
    </g>
    <g id="text_8">
     <!-- Time -->
     <g transform="translate(502.714375 412.929312) scale(0.12 -0.12)">
      <defs>
       <path id="DejaVuSerif-54" d="M 1222 0 
L 1222 331 
L 1819 331 
L 1819 4294 
L 447 4294 
L 447 3566 
L 63 3566 
L 63 4666 
L 4206 4666 
L 4206 3566 
L 3822 3566 
L 3822 4294 
L 2450 4294 
L 2450 331 
L 3047 331 
L 3047 0 
L 1222 0 
z
" transform="scale(0.015625)"/>
       <path id="DejaVuSerif-69" d="M 622 4353 
Q 622 4497 726 4603 
Q 831 4709 978 4709 
Q 1122 4709 1226 4603 
Q 1331 4497 1331 4353 
Q 1331 4206 1228 4103 
Q 1125 4000 978 4000 
Q 831 4000 726 4103 
Q 622 4206 622 4353 
z
M 1356 331 
L 1900 331 
L 1900 0 
L 231 0 
L 231 331 
L 781 331 
L 781 2988 
L 231 2988 
L 231 3322 
L 1356 3322 
L 1356 331 
z
" transform="scale(0.015625)"/>
       <path id="DejaVuSerif-6d" d="M 3316 2675 
Q 3481 3041 3739 3227 
Q 3997 3413 4341 3413 
Q 4863 3413 5119 3089 
Q 5375 2766 5375 2113 
L 5375 331 
L 5894 331 
L 5894 0 
L 4300 0 
L 4300 331 
L 4800 331 
L 4800 2047 
Q 4800 2556 4650 2772 
Q 4500 2988 4153 2988 
Q 3769 2988 3567 2697 
Q 3366 2406 3366 1850 
L 3366 331 
L 3866 331 
L 3866 0 
L 2291 0 
L 2291 331 
L 2791 331 
L 2791 2069 
Q 2791 2566 2641 2777 
Q 2491 2988 2144 2988 
Q 1759 2988 1557 2697 
Q 1356 2406 1356 1850 
L 1356 331 
L 1856 331 
L 1856 0 
L 263 0 
L 263 331 
L 781 331 
L 781 2994 
L 231 2994 
L 231 3322 
L 1356 3322 
L 1356 2731 
Q 1516 3063 1762 3238 
Q 2009 3413 2322 3413 
Q 2709 3413 2968 3220 
Q 3228 3028 3316 2675 
z
" transform="scale(0.015625)"/>
       <path id="DejaVuSerif-65" d="M 3469 1600 
L 991 1600 
L 991 1575 
Q 991 903 1244 561 
Q 1497 219 1991 219 
Q 2369 219 2611 417 
Q 2853 616 2950 1006 
L 3413 1006 
Q 3275 459 2904 184 
Q 2534 -91 1931 -91 
Q 1203 -91 761 389 
Q 319 869 319 1663 
Q 319 2450 753 2931 
Q 1188 3413 1894 3413 
Q 2647 3413 3050 2948 
Q 3453 2484 3469 1600 
z
M 2791 1931 
Q 2772 2513 2545 2808 
Q 2319 3103 1894 3103 
Q 1497 3103 1269 2806 
Q 1041 2509 991 1931 
L 2791 1931 
z
" transform="scale(0.015625)"/>
      </defs>
      <use xlink:href="#DejaVuSerif-54"/>
      <use xlink:href="#DejaVuSerif-69" transform="translate(66.699219 0)"/>
      <use xlink:href="#DejaVuSerif-6d" transform="translate(98.681641 0)"/>
      <use xlink:href="#DejaVuSerif-65" transform="translate(193.505859 0)"/>
     </g>
    </g>
   </g>
   <g id="matplotlib.axis_2">
    <g id="ytick_1">
     <g id="line2d_15">
      <path d="M 44.555937 353.076633 
L 991.197188 353.076633 
" clip-path="url(#p0658fbdcc2)" style="fill: none; stroke: #b0b0b0; stroke-opacity: 0.3; stroke-width: 0.8; stroke-linecap: square"/>
     </g>
     <g id="line2d_16">
      <defs>
       <path id="m1265a15b78" d="M 0 0 
L -3.5 0 
" style="stroke: #000000; stroke-width: 0.8"/>
      </defs>
      <g>
       <use xlink:href="#m1265a15b78" x="44.555937" y="353.076633" style="stroke: #000000; stroke-width: 0.8"/>
      </g>
     </g>
     <g id="text_9">
      <!-- −2 -->
      <g transform="translate(22.81375 356.875852) scale(0.1 -0.1)">
       <defs>
        <path id="DejaVuSerif-2212" d="M 678 2259 
L 4684 2259 
L 4684 1753 
L 678 1753 
L 678 2259 
z
" transform="scale(0.015625)"/>
       </defs>
       <use xlink:href="#DejaVuSerif-2212"/>
       <use xlink:href="#DejaVuSerif-32" transform="translate(83.789062 0)"/>
      </g>
     </g>
    </g>
    <g id="ytick_2">
     <g id="line2d_17">
      <path d="M 44.555937 288.822372 
L 991.197188 288.822372 
" clip-path="url(#p0658fbdcc2)" style="fill: none; stroke: #b0b0b0; stroke-opacity: 0.3; stroke-width: 0.8; stroke-linecap: square"/>
     </g>
     <g id="line2d_18">
      <g>
       <use xlink:href="#m1265a15b78" x="44.555937" y="288.822372" style="stroke: #000000; stroke-width: 0.8"/>
      </g>
     </g>
     <g id="text_10">
      <!-- −1 -->
      <g transform="translate(22.81375 292.621591) scale(0.1 -0.1)">
       <use xlink:href="#DejaVuSerif-2212"/>
       <use xlink:href="#DejaVuSerif-31" transform="translate(83.789062 0)"/>
      </g>
     </g>
    </g>
    <g id="ytick_3">
     <g id="line2d_19">
      <path d="M 44.555937 224.568111 
L 991.197188 224.568111 
" clip-path="url(#p0658fbdcc2)" style="fill: none; stroke: #b0b0b0; stroke-opacity: 0.3; stroke-width: 0.8; stroke-linecap: square"/>
     </g>
     <g id="line2d_20">
      <g>
       <use xlink:href="#m1265a15b78" x="44.555937" y="224.568111" style="stroke: #000000; stroke-width: 0.8"/>
      </g>
     </g>
     <g id="text_11">
      <!-- 0 -->
      <g transform="translate(31.193437 228.36733) scale(0.1 -0.1)">
       <use xlink:href="#DejaVuSerif-30"/>
      </g>
     </g>
    </g>
    <g id="ytick_4">
     <g id="line2d_21">
      <path d="M 44.555937 160.313851 
L 991.197188 160.313851 
" clip-path="url(#p0658fbdcc2)" style="fill: none; stroke: #b0b0b0; stroke-opacity: 0.3; stroke-width: 0.8; stroke-linecap: square"/>
     </g>
     <g id="line2d_22">
      <g>
       <use xlink:href="#m1265a15b78" x="44.555937" y="160.313851" style="stroke: #000000; stroke-width: 0.8"/>
      </g>
     </g>
     <g id="text_12">
      <!-- 1 -->
      <g transform="translate(31.193437 164.113069) scale(0.1 -0.1)">
       <use xlink:href="#DejaVuSerif-31"/>
      </g>
     </g>
    </g>
    <g id="ytick_5">
     <g id="line2d_23">
      <path d="M 44.555937 96.05959 
L 991.197188 96.05959 
" clip-path="url(#p0658fbdcc2)" style="fill: none; stroke: #b0b0b0; stroke-opacity: 0.3; stroke-width: 0.8; stroke-linecap: square"/>
     </g>
     <g id="line2d_24">
      <g>
       <use xlink:href="#m1265a15b78" x="44.555937" y="96.05959" style="stroke: #000000; stroke-width: 0.8"/>
      </g>
     </g>
     <g id="text_13">
      <!-- 2 -->
      <g transform="translate(31.193437 99.858808) scale(0.1 -0.1)">
       <use xlink:href="#DejaVuSerif-32"/>
      </g>
     </g>
    </g>
    <g id="text_14">
     <!-- Index Value -->
     <g transform="translate(16.318125 247.038125) rotate(-90) scale(0.12 -0.12)">
      <defs>
       <path id="DejaVuSerif-49" d="M 1581 331 
L 2175 331 
L 2175 0 
L 353 0 
L 353 331 
L 947 331 
L 947 4331 
L 353 4331 
L 353 4666 
L 2175 4666 
L 2175 4331 
L 1581 4331 
L 1581 331 
z
" transform="scale(0.015625)"/>
       <path id="DejaVuSerif-6e" d="M 263 0 
L 263 331 
L 781 331 
L 781 2988 
L 231 2988 
L 231 3322 
L 1356 3322 
L 1356 2731 
Q 1516 3069 1770 3241 
Q 2025 3413 2363 3413 
Q 2913 3413 3172 3097 
Q 3431 2781 3431 2113 
L 3431 331 
L 3944 331 
L 3944 0 
L 2356 0 
L 2356 331 
L 2853 331 
L 2853 1931 
Q 2853 2541 2703 2767 
Q 2553 2994 2175 2994 
Q 1775 2994 1565 2701 
Q 1356 2409 1356 1850 
L 1356 331 
L 1856 331 
L 1856 0 
L 263 0 
z
" transform="scale(0.015625)"/>
       <path id="DejaVuSerif-64" d="M 3359 331 
L 3909 331 
L 3909 0 
L 2784 0 
L 2784 519 
Q 2616 206 2355 57 
Q 2094 -91 1709 -91 
Q 1097 -91 708 395 
Q 319 881 319 1663 
Q 319 2444 706 2928 
Q 1094 3413 1709 3413 
Q 2094 3413 2355 3264 
Q 2616 3116 2784 2803 
L 2784 4531 
L 2241 4531 
L 2241 4863 
L 3359 4863 
L 3359 331 
z
M 2784 1497 
L 2784 1825 
Q 2784 2422 2554 2737 
Q 2325 3053 1888 3053 
Q 1444 3053 1217 2703 
Q 991 2353 991 1663 
Q 991 975 1217 622 
Q 1444 269 1888 269 
Q 2325 269 2554 583 
Q 2784 897 2784 1497 
z
" transform="scale(0.015625)"/>
       <path id="DejaVuSerif-78" d="M 1863 2028 
L 2559 2988 
L 2113 2988 
L 2113 3322 
L 3391 3322 
L 3391 2988 
L 2950 2988 
L 2059 1759 
L 3097 331 
L 3531 331 
L 3531 0 
L 1997 0 
L 1997 331 
L 2419 331 
L 1697 1325 
L 972 331 
L 1403 331 
L 1403 0 
L 141 0 
L 141 331 
L 581 331 
L 1497 1594 
L 488 2988 
L 78 2988 
L 78 3322 
L 1563 3322 
L 1563 2988 
L 1166 2988 
L 1863 2028 
z
" transform="scale(0.015625)"/>
       <path id="DejaVuSerif-20" transform="scale(0.015625)"/>
       <path id="DejaVuSerif-56" d="M 1119 4331 
L 2497 750 
L 3872 4331 
L 3347 4331 
L 3347 4666 
L 4716 4666 
L 4716 4331 
L 4263 4331 
L 2597 0 
L 2059 0 
L 403 4331 
L -63 4331 
L -63 4666 
L 1638 4666 
L 1638 4331 
L 1119 4331 
z
" transform="scale(0.015625)"/>
       <path id="DejaVuSerif-61" d="M 2547 1044 
L 2547 1747 
L 1806 1747 
Q 1378 1747 1168 1562 
Q 959 1378 959 997 
Q 959 650 1171 447 
Q 1384 244 1747 244 
Q 2106 244 2326 466 
Q 2547 688 2547 1044 
z
M 3122 2075 
L 3122 331 
L 3634 331 
L 3634 0 
L 2547 0 
L 2547 359 
Q 2356 128 2106 18 
Q 1856 -91 1522 -91 
Q 969 -91 644 203 
Q 319 497 319 997 
Q 319 1513 691 1797 
Q 1063 2081 1741 2081 
L 2547 2081 
L 2547 2309 
Q 2547 2688 2317 2895 
Q 2088 3103 1672 3103 
Q 1328 3103 1125 2947 
Q 922 2791 872 2484 
L 575 2484 
L 575 3156 
Q 875 3284 1158 3348 
Q 1441 3413 1709 3413 
Q 2400 3413 2761 3070 
Q 3122 2728 3122 2075 
z
" transform="scale(0.015625)"/>
       <path id="DejaVuSerif-6c" d="M 1313 331 
L 1856 331 
L 1856 0 
L 184 0 
L 184 331 
L 738 331 
L 738 4531 
L 184 4531 
L 184 4863 
L 1313 4863 
L 1313 331 
z
" transform="scale(0.015625)"/>
       <path id="DejaVuSerif-75" d="M 2266 3322 
L 3341 3322 
L 3341 331 
L 3884 331 
L 3884 0 
L 2766 0 
L 2766 588 
Q 2606 256 2353 82 
Q 2100 -91 1766 -91 
Q 1213 -91 952 223 
Q 691 538 691 1209 
L 691 2988 
L 172 2988 
L 172 3322 
L 1269 3322 
L 1269 1388 
Q 1269 781 1417 556 
Q 1566 331 1947 331 
Q 2347 331 2556 625 
Q 2766 919 2766 1478 
L 2766 2988 
L 2266 2988 
L 2266 3322 
z
" transform="scale(0.015625)"/>
      </defs>
      <use xlink:href="#DejaVuSerif-49"/>
      <use xlink:href="#DejaVuSerif-6e" transform="translate(39.501953 0)"/>
      <use xlink:href="#DejaVuSerif-64" transform="translate(103.90625 0)"/>
      <use xlink:href="#DejaVuSerif-65" transform="translate(167.919922 0)"/>
      <use xlink:href="#DejaVuSerif-78" transform="translate(227.099609 0)"/>
      <use xlink:href="#DejaVuSerif-20" transform="translate(283.496094 0)"/>
      <use xlink:href="#DejaVuSerif-56" transform="translate(315.283203 0)"/>
      <use xlink:href="#DejaVuSerif-61" transform="translate(378.375 0)"/>
      <use xlink:href="#DejaVuSerif-6c" transform="translate(437.994141 0)"/>
      <use xlink:href="#DejaVuSerif-75" transform="translate(469.976562 0)"/>
      <use xlink:href="#DejaVuSerif-65" transform="translate(534.380859 0)"/>
     </g>
    </g>
   </g>
   <g id="line2d_25">
    <path d="M 87.585085 210.688704 
L 88.691738 191.988618 
L 89.79839 191.22344 
L 90.797947 183.920946 
L 91.9046 184.862706 
L 92.975554 177.094747 
L 94.082206 173.129107 
L 95.15316 191.108334 
L 96.259813 201.051226 
L 97.366465 189.245609 
L 98.437419 210.803599 
L 99.544072 217.488492 
L 100.615026 202.832223 
L 101.721678 199.789129 
L 102.828331 190.739937 
L 103.863586 206.571038 
L 104.970239 202.586982 
L 106.041193 197.408018 
L 107.147845 211.326249 
L 108.218799 220.614978 
L 109.325452 218.340161 
L 110.432104 229.903855 
L 111.503058 223.721273 
L 112.609711 203.953117 
L 113.680665 228.409915 
L 114.787317 229.88377 
L 115.89397 247.625734 
L 116.893527 253.645224 
L 118.000179 258.146139 
L 119.071134 282.435798 
L 120.177786 290.497764 
L 122.355393 300.967792 
L 123.462045 306.728295 
L 124.532999 309.810882 
L 125.639652 351.580685 
L 126.710606 339.968465 
L 127.817258 334.504185 
L 128.923911 328.256616 
L 129.923468 336.629899 
L 131.03012 321.252084 
L 132.101074 326.884433 
L 133.207727 324.679526 
L 134.278681 305.307114 
L 135.385333 299.57757 
L 136.491986 305.225025 
L 137.56294 285.16214 
L 138.669592 269.852497 
L 139.740546 235.761901 
L 140.847199 213.019733 
L 141.953851 214.673403 
L 142.953408 189.820021 
L 144.060061 207.428541 
L 145.131015 205.821288 
L 146.237667 210.202414 
L 147.308621 232.424266 
L 148.415274 240.632852 
L 149.521926 236.102443 
L 150.59288 240.064422 
L 151.699533 248.221937 
L 152.770487 246.140111 
L 153.877139 288.835417 
L 154.983792 299.233864 
L 156.019047 304.52934 
L 157.1257 298.43904 
L 158.196654 287.866498 
L 159.303306 286.913704 
L 160.37426 285.477938 
L 162.587565 269.500694 
L 163.658519 160.393094 
L 164.765172 131.451095 
L 165.836126 160.530387 
L 166.942778 143.999016 
L 168.049431 149.922251 
L 170.15564 159.55796 
L 171.226594 167.473323 
L 172.333247 168.329322 
L 173.404201 168.156258 
L 174.510853 174.608403 
L 175.617506 184.948296 
L 176.68846 309.238971 
L 177.795112 345.606552 
L 178.866066 320.647128 
L 179.972719 331.643538 
L 181.079371 298.877152 
L 182.078929 287.547866 
L 183.185581 279.061913 
L 184.256535 279.313461 
L 185.363188 276.984635 
L 186.434142 280.146171 
L 187.540794 279.244133 
L 188.647447 275.995584 
L 189.718401 252.003039 
L 190.825053 247.204823 
L 191.896007 232.149581 
L 193.00266 211.787943 
L 195.108869 249.944753 
L 196.215522 264.297434 
L 197.286476 270.518037 
L 198.393128 280.377716 
L 199.464082 283.130032 
L 200.570735 287.964684 
L 202.748341 305.277762 
L 203.854994 317.104423 
L 204.925948 301.190704 
L 206.0326 299.769791 
L 207.139253 294.804946 
L 208.174508 300.366436 
L 209.281161 292.392706 
L 210.352115 261.019988 
L 211.458767 240.937107 
L 212.529721 166.704074 
L 213.636374 149.710766 
L 214.743026 129.516667 
L 215.81398 122.342863 
L 216.920633 120.548325 
L 217.991587 126.339889 
L 219.098239 146.060404 
L 220.204892 134.955977 
L 221.204449 131.035165 
L 222.311101 134.562666 
L 223.382055 156.215012 
L 224.488708 168.084318 
L 225.559662 234.925455 
L 226.666314 252.419305 
L 228.843921 289.551859 
L 229.950573 286.771827 
L 231.021527 306.425492 
L 232.12818 295.881656 
L 233.234832 301.757706 
L 234.234389 310.247669 
L 236.411996 282.435795 
L 237.518648 278.661785 
L 238.589602 282.377807 
L 239.696255 286.891736 
L 240.802907 265.219218 
L 242.980514 245.012779 
L 244.051468 229.012606 
L 245.158121 207.201605 
L 246.264773 201.715865 
L 247.26433 185.779592 
L 248.370983 200.311818 
L 249.441937 199.940671 
L 250.548589 193.33443 
L 251.619543 188.759225 
L 252.726196 186.790857 
L 253.832848 199.396625 
L 254.903802 167.417139 
L 256.010455 160.040874 
L 257.081409 165.4691 
L 258.188061 183.350803 
L 259.294714 204.972892 
L 260.329969 203.388888 
L 261.436622 205.124368 
L 262.507576 208.838106 
L 263.614228 224.795887 
L 264.685182 235.215585 
L 265.791835 237.438956 
L 266.898487 250.013457 
L 267.969441 302.343367 
L 269.076094 337.769226 
L 270.147048 333.031974 
L 271.2537 298.52178 
L 272.360353 290.208488 
L 273.35991 301.884781 
L 274.466562 290.66833 
L 275.537516 273.196168 
L 276.644169 262.712916 
L 277.715123 230.310775 
L 278.821775 228.943125 
L 279.928428 150.076563 
L 280.999382 142.789449 
L 282.106034 120.486825 
L 283.176988 126.942409 
L 284.283641 136.973213 
L 285.390293 123.449453 
L 286.38985 124.370992 
L 287.496503 129.170985 
L 288.567457 142.239337 
L 289.674109 144.816223 
L 290.745063 167.969825 
L 291.851716 164.117614 
L 292.958368 191.730926 
L 294.029322 145.069529 
L 295.135975 146.713126 
L 296.206929 155.112857 
L 297.313581 158.306755 
L 298.420234 162.289453 
L 299.419791 156.965786 
L 301.597398 117.575762 
L 302.70405 115.050564 
L 303.775004 107.250173 
L 304.881657 96.396387 
L 305.988309 102.275662 
L 307.059263 104.488582 
L 308.165916 102.03347 
L 309.23687 106.035183 
L 310.343522 99.893862 
L 311.450175 110.745549 
L 312.48543 117.920801 
L 313.592083 133.451128 
L 314.663037 156.268837 
L 315.769689 153.924393 
L 316.840643 152.790075 
L 317.947296 158.363314 
L 319.053948 188.745828 
L 320.124902 261.052549 
L 321.231555 310.191983 
L 322.302509 332.088621 
L 323.409161 329.381022 
L 324.515814 314.251987 
L 325.515371 309.995918 
L 326.622023 308.273779 
L 327.692977 308.622801 
L 328.79963 303.400031 
L 329.870584 307.621509 
L 330.977236 315.425377 
L 332.083889 312.873163 
L 333.154843 325.480455 
L 334.261495 335.485248 
L 335.332449 304.110821 
L 336.439102 293.668116 
L 337.545754 310.229975 
L 338.545311 300.230154 
L 339.651964 297.621198 
L 340.722918 282.585909 
L 341.82957 256.764868 
L 342.900524 236.785845 
L 344.007177 226.819382 
L 345.113829 190.858168 
L 346.184783 167.429326 
L 347.291436 152.785785 
L 348.36239 151.498013 
L 349.469042 150.67016 
L 350.575695 150.627089 
L 351.575252 159.974242 
L 352.681904 164.589521 
L 353.752858 148.926443 
L 354.859511 156.631325 
L 355.930465 166.555399 
L 357.037117 166.570359 
L 358.14377 196.032149 
L 359.214724 219.219694 
L 360.321376 228.168625 
L 361.39233 242.969231 
L 362.498983 246.719369 
L 363.605635 245.57259 
L 364.640891 254.314069 
L 365.747544 239.730155 
L 366.818498 275.100831 
L 367.92515 303.319022 
L 370.102757 311.92863 
L 371.209409 323.450649 
L 372.280363 310.227379 
L 373.387016 307.498111 
L 374.45797 281.504374 
L 375.564622 275.298539 
L 376.671275 275.229801 
L 377.670832 278.292833 
L 378.777484 293.045504 
L 379.848438 288.813234 
L 380.955091 281.821678 
L 382.026045 214.632037 
L 383.132697 219.206733 
L 384.23935 194.070918 
L 385.310304 182.900819 
L 386.416956 144.004907 
L 387.48791 143.925253 
L 389.701215 138.783769 
L 390.700772 126.111001 
L 391.807425 119.707695 
L 392.878379 124.062727 
L 393.985031 126.668222 
L 395.055985 183.531733 
L 396.162638 183.548022 
L 397.26929 207.425658 
L 398.340244 237.816417 
L 399.446897 305.871328 
L 401.624503 349.380174 
L 402.731156 362.391033 
L 403.730713 367.523097 
L 404.837365 359.323413 
L 405.908319 311.149653 
L 407.014972 311.497626 
L 408.085926 302.850118 
L 409.192578 308.120462 
L 410.299231 310.44529 
L 412.476837 201.334737 
L 414.654444 169.91187 
L 415.761096 151.546223 
L 416.796352 151.442541 
L 417.903004 153.182696 
L 418.973958 166.677905 
L 420.080611 160.751928 
L 421.151565 159.072565 
L 422.258217 151.3166 
L 423.36487 98.652415 
L 424.435824 127.914586 
L 425.542476 162.603026 
L 426.61343 169.5788 
L 427.720083 187.868647 
L 428.826735 194.701946 
L 429.826293 193.108185 
L 430.932945 198.922884 
L 432.003899 210.041596 
L 433.110552 201.852299 
L 434.181506 189.110794 
L 435.288158 193.005384 
L 436.394811 247.500051 
L 437.465765 256.645618 
L 438.572417 236.545272 
L 439.643371 230.055062 
L 440.750024 217.218175 
L 441.856676 223.62261 
L 442.856233 235.71859 
L 443.962886 230.663897 
L 445.03384 236.603285 
L 446.140492 236.500862 
L 447.211446 238.610774 
L 448.318099 238.390074 
L 449.424751 241.429739 
L 450.495705 236.854745 
L 451.602358 254.652971 
L 452.673312 276.910666 
L 453.779964 273.67467 
L 454.886617 278.980705 
L 455.886174 272.582155 
L 456.992826 294.141478 
L 458.06378 283.879565 
L 459.170433 298.639578 
L 460.241387 323.127501 
L 461.348039 329.621782 
L 462.454692 339.93716 
L 463.525646 337.874861 
L 464.632298 330.805926 
L 465.703252 294.113949 
L 466.809905 301.141345 
L 467.916557 309.213372 
L 468.951813 302.829927 
L 470.058465 301.528421 
L 472.236072 314.421106 
L 473.307026 317.628354 
L 474.413678 305.2399 
L 475.520331 301.867393 
L 476.591285 280.053994 
L 477.697937 230.265736 
L 478.768891 238.524083 
L 479.875544 219.222491 
L 480.982196 202.380442 
L 481.981753 210.764782 
L 483.088406 199.179283 
L 484.15936 199.725 
L 485.266012 181.122116 
L 486.336967 167.336509 
L 487.443619 167.407974 
L 488.550271 163.73099 
L 489.621226 167.502434 
L 490.727878 210.960945 
L 491.798832 212.894799 
L 492.905485 204.46522 
L 494.012137 221.369577 
L 495.011694 217.938969 
L 496.118347 231.565465 
L 497.189301 227.261171 
L 498.295953 249.409708 
L 499.366907 255.993659 
L 500.47356 262.030019 
L 501.580212 255.495198 
L 502.651166 267.134328 
L 503.757819 281.291756 
L 504.828773 254.739233 
L 505.935425 265.114831 
L 507.042078 251.271928 
L 508.041635 268.268271 
L 509.148287 261.297958 
L 510.219241 272.568459 
L 511.325894 280.858397 
L 512.396848 293.348752 
L 513.5035 304.598737 
L 514.610153 327.463852 
L 515.681107 323.168442 
L 516.787759 286.151831 
L 517.858713 309.504601 
L 518.965366 302.281799 
L 520.072018 284.147176 
L 521.107274 274.683932 
L 522.213926 265.624972 
L 523.28488 268.6526 
L 524.391533 268.592433 
L 525.462487 267.86853 
L 526.569139 264.162523 
L 527.675792 234.058141 
L 528.746746 191.88684 
L 529.853398 194.332664 
L 530.924352 175.491766 
L 532.031005 182.412719 
L 533.137657 208.473942 
L 534.137214 216.853093 
L 535.243867 230.030326 
L 536.314821 229.067026 
L 537.421473 220.948148 
L 538.492427 226.612938 
L 539.59908 229.920012 
L 541.776686 285.990457 
L 542.883339 299.875188 
L 543.954293 297.638846 
L 545.060945 290.157374 
L 546.167598 274.872273 
L 547.167155 234.081427 
L 548.273808 236.99662 
L 549.344762 236.603287 
L 550.451414 249.823328 
L 551.522368 255.413698 
L 552.629021 259.145535 
L 553.735673 266.264503 
L 554.806627 281.706181 
L 555.91328 281.918581 
L 556.984234 267.867013 
L 558.090886 265.969582 
L 559.197539 260.653693 
L 560.197096 269.90166 
L 561.303748 267.914794 
L 562.374702 265.53682 
L 563.481355 254.143214 
L 564.552309 249.284024 
L 565.658961 246.569547 
L 566.765614 238.013604 
L 567.836568 197.695242 
L 568.94322 179.608203 
L 570.014174 176.624261 
L 571.120827 181.703021 
L 572.227479 183.330616 
L 573.262735 205.918668 
L 574.369387 209.710854 
L 575.440341 215.29224 
L 576.546994 222.541302 
L 577.617948 225.44899 
L 578.7246 219.8433 
L 579.831253 226.234307 
L 580.902207 228.356622 
L 582.008859 222.948763 
L 583.079813 230.767653 
L 584.186466 209.703855 
L 585.293118 213.059071 
L 586.292675 227.717792 
L 587.399328 227.494418 
L 588.470282 227.698936 
L 589.576934 225.988393 
L 590.647888 226.684017 
L 591.754541 234.823015 
L 592.861193 238.7106 
L 593.932147 252.062597 
L 595.0388 269.51236 
L 596.109754 279.854987 
L 597.216406 314.665741 
L 598.323059 329.078686 
L 599.322616 295.810842 
L 600.429268 287.694703 
L 602.606875 256.532377 
L 603.677829 198.325093 
L 604.784481 197.498891 
L 605.891134 133.181246 
L 606.962088 120.698248 
L 608.06874 112.511088 
L 609.139695 105.864073 
L 610.246347 87.384714 
L 611.352999 72.707172 
L 612.352557 69.952604 
L 613.459209 58.550061 
L 614.530163 65.360826 
L 615.636816 55.323778 
L 616.70777 77.867776 
L 617.814422 71.30445 
L 618.921075 118.490024 
L 619.992029 147.804151 
L 621.098681 152.587499 
L 622.169635 156.293003 
L 623.276288 157.025003 
L 624.38294 168.10832 
L 625.418196 150.362814 
L 626.524848 157.526844 
L 627.595802 134.16947 
L 629.773409 156.314236 
L 630.880061 154.51936 
L 631.986714 149.826696 
L 633.057668 133.824133 
L 634.16432 131.892294 
L 635.235274 162.199084 
L 636.341927 151.295253 
L 637.448579 157.322958 
L 638.448136 182.457735 
L 639.554789 189.724482 
L 640.625743 217.530642 
L 641.732395 200.489647 
L 642.803349 197.979357 
L 643.910002 200.80151 
L 645.016654 201.175528 
L 646.087608 226.297788 
L 647.194261 270.074494 
L 648.265215 246.675701 
L 649.371867 268.561147 
L 650.47852 245.271349 
L 651.478077 258.421862 
L 652.584729 266.297685 
L 653.655683 267.285147 
L 654.762336 302.838345 
L 655.83329 310.092905 
L 658.046595 318.917636 
L 659.117549 350.977782 
L 660.224201 335.694978 
L 661.295155 331.360566 
L 662.401808 290.851949 
L 663.50846 314.264495 
L 664.508018 305.83247 
L 665.61467 286.421863 
L 666.685624 277.854659 
L 667.792277 278.689548 
L 668.863231 282.668711 
L 669.969883 282.627031 
L 671.076536 262.916749 
L 672.14749 254.092928 
L 673.254142 239.997014 
L 674.325096 222.568101 
L 675.431749 268.893253 
L 676.538401 268.006695 
L 677.573657 257.957044 
L 678.680309 281.694381 
L 679.751263 267.961013 
L 680.857916 269.268218 
L 681.92887 262.786702 
L 683.035522 265.966958 
L 684.142175 286.414732 
L 685.213129 284.610944 
L 686.319781 288.342197 
L 687.390735 287.113894 
L 688.497388 271.951865 
L 689.60404 291.525084 
L 690.603597 298.298346 
L 691.71025 275.367626 
L 692.781204 302.785524 
L 693.887856 302.081505 
L 694.95881 313.824346 
L 696.065463 300.122505 
L 697.172115 306.970074 
L 698.243069 227.837443 
L 699.349722 229.282127 
L 700.420676 226.080029 
L 701.527328 209.781646 
L 702.633981 189.004535 
L 703.633538 166.967514 
L 704.74019 160.212574 
L 705.811144 152.955402 
L 706.917797 152.954406 
L 707.988751 151.961195 
L 709.095403 160.888145 
L 710.202056 157.524232 
L 711.27301 220.237247 
L 712.379662 232.441215 
L 713.450616 245.953477 
L 714.557269 264.799815 
L 715.663921 278.326964 
L 716.663478 286.77833 
L 717.770131 282.974222 
L 718.841085 289.977371 
L 719.947737 279.171079 
L 721.018691 281.480342 
L 722.125344 278.410761 
L 723.231996 284.401769 
L 724.30295 268.203577 
L 725.409603 255.320712 
L 726.480557 229.22558 
L 727.587209 221.502928 
L 728.693862 205.039897 
L 729.729118 220.834955 
L 730.83577 250.369032 
L 731.906724 247.421947 
L 733.013377 259.565961 
L 734.084331 261.824628 
L 735.190983 269.599906 
L 736.297636 257.839667 
L 737.36859 234.068756 
L 738.475242 224.453629 
L 739.546196 232.782851 
L 740.652849 210.905979 
L 742.759058 220.954145 
L 743.865711 215.678779 
L 744.936665 212.336134 
L 746.043317 215.3825 
L 747.114271 191.265392 
L 748.220924 190.300668 
L 749.327576 186.886542 
L 750.39853 221.202102 
L 751.505183 235.653448 
L 752.576137 236.269024 
L 753.682789 241.430404 
L 754.789442 260.956205 
L 755.788999 270.521465 
L 756.895651 248.564689 
L 757.966605 232.404914 
L 759.073258 207.669093 
L 760.144212 199.48398 
L 761.250864 181.775489 
L 762.357517 120.299292 
L 763.428471 73.841283 
L 764.535123 74.388538 
L 765.606077 79.28983 
L 766.71273 82.701126 
L 767.819382 81.838735 
L 768.818939 69.591955 
L 769.925592 67.450715 
L 770.996546 69.985679 
L 772.103198 82.372402 
L 773.174152 89.978719 
L 774.280805 99.949555 
L 776.458411 224.263094 
L 777.565064 221.215556 
L 778.636018 227.348911 
L 779.74267 210.42686 
L 780.849323 205.386296 
L 781.884578 180.861081 
L 782.991231 206.155952 
L 784.062185 207.467252 
L 785.168837 206.223069 
L 786.239791 208.881968 
L 787.346444 208.721206 
L 788.453096 208.344451 
L 789.52405 221.685373 
L 790.630703 240.119901 
L 791.701657 247.837056 
L 792.808309 230.969781 
L 793.914962 235.211219 
L 794.914519 260.943168 
L 796.021172 257.721665 
L 797.092126 255.335416 
L 798.198778 223.220332 
L 799.269732 201.127687 
L 800.376385 200.053194 
L 801.483037 196.871027 
L 802.553991 197.577784 
L 803.660644 195.001906 
L 804.731598 174.220512 
L 805.83825 224.981437 
L 806.944903 219.23563 
L 807.94446 248.63845 
L 809.051112 251.362017 
L 810.122066 270.735595 
L 811.228719 311.768527 
L 812.299673 333.633269 
L 813.406325 337.59653 
L 814.512978 347.016328 
L 815.583932 343.668815 
L 816.690584 329.571718 
L 817.761538 321.392724 
L 818.868191 286.884421 
L 819.974843 295.729664 
L 820.9744 257.837622 
L 822.081053 259.807935 
L 823.152007 242.361184 
L 824.258659 246.73775 
L 825.329613 269.333291 
L 827.542918 273.291367 
L 828.613872 268.652305 
L 829.720525 282.560311 
L 830.791479 305.008983 
L 831.898131 318.452692 
L 833.004784 279.453079 
L 834.040039 297.065593 
L 836.217646 305.087786 
L 837.324298 260.269517 
L 838.395252 222.975709 
L 839.501905 210.616971 
L 841.679511 125.682541 
L 842.786164 106.556166 
L 843.857118 102.38836 
L 844.96377 89.717216 
L 846.070423 91.531862 
L 847.06998 88.806309 
L 848.176632 77.31692 
L 849.247587 81.178484 
L 850.354239 82.662873 
L 851.425193 90.919913 
L 852.531846 95.536999 
L 854.709452 156.02352 
L 855.816105 141.613846 
L 856.887059 157.953206 
L 857.993711 156.698033 
L 859.100364 166.011407 
L 860.099921 171.220064 
L 861.206573 182.007739 
L 862.277527 182.679798 
L 863.38418 205.125982 
L 864.455134 217.195743 
L 865.561786 207.185066 
L 866.668439 200.183181 
L 867.739393 230.059088 
L 868.846045 251.472855 
L 869.916999 269.414377 
L 871.023652 249.571393 
L 872.130304 253.013894 
L 873.129861 220.894549 
L 874.236514 200.148159 
L 875.307468 200.936693 
L 876.41412 197.440095 
L 877.485074 185.672215 
L 878.591727 192.582994 
L 879.698379 190.358123 
L 880.769333 183.848048 
L 881.875986 214.40932 
L 882.94694 195.316315 
L 884.053592 233.35479 
L 885.160245 241.020326 
L 886.1955 262.661658 
L 887.302153 278.450642 
L 888.373107 269.880646 
L 889.479759 276.555052 
L 890.550713 288.536998 
L 891.657366 287.777136 
L 892.764018 291.973988 
L 893.834972 261.61818 
L 894.941625 239.301438 
L 896.012579 238.645753 
L 897.119231 207.886285 
L 898.225884 199.938616 
L 900.332093 220.483203 
L 901.403047 232.339686 
L 902.5097 221.98297 
L 903.580654 217.877379 
L 904.687306 217.374511 
L 905.793959 201.014858 
L 906.864913 206.09171 
L 907.971565 188.513992 
L 909.042519 192.64961 
L 910.149172 212.145831 
L 911.255824 219.317013 
L 913.362034 198.026832 
L 914.432988 188.366405 
L 915.539641 182.024935 
L 916.610595 178.606558 
L 917.717247 175.933157 
L 918.8239 177.20273 
L 919.894854 125.916422 
L 921.001506 141.152203 
L 922.07246 146.08084 
L 923.179113 145.35028 
L 924.285765 141.995353 
L 925.285322 153.29177 
L 926.391975 151.689544 
L 927.462929 155.387006 
L 928.569581 166.884633 
L 929.640535 161.234838 
L 930.747188 164.143232 
L 931.85384 177.244422 
L 932.924794 267.738326 
L 934.031447 295.966916 
L 935.102401 304.395418 
L 936.209053 303.4416 
L 937.315706 311.404944 
L 938.350961 300.533088 
L 939.457614 302.168619 
L 940.528568 309.323013 
L 941.63522 310.61866 
L 942.706174 322.927054 
L 943.812827 325.613167 
L 944.919479 324.498726 
L 945.990433 297.398116 
L 947.097086 274.15388 
L 948.16804 243.191196 
L 948.16804 243.191196 
" clip-path="url(#p0658fbdcc2)" style="fill: none; stroke: #000000; stroke-opacity: 0.7; stroke-width: 1.5; stroke-linecap: square"/>
   </g>
   <g id="line2d_26">
    <path d="M 44.555937 301.673224 
L 991.197188 301.673224 
" clip-path="url(#p0658fbdcc2)" style="fill: none; stroke-dasharray: 5.55,2.4; stroke-dashoffset: 0; stroke: #ff0000; stroke-width: 1.5"/>
   </g>
   <g id="line2d_27">
    <path d="M 44.555937 224.568111 
L 991.197188 224.568111 
" clip-path="url(#p0658fbdcc2)" style="fill: none; stroke: #808080; stroke-opacity: 0.5; stroke-width: 0.8; stroke-linecap: square"/>
   </g>
   <g id="patch_3">
    <path d="M 44.555937 383.133062 
L 44.555937 39.713812 
" style="fill: none; stroke: #000000; stroke-width: 0.8; stroke-linejoin: miter; stroke-linecap: square"/>
   </g>
   <g id="patch_4">
    <path d="M 991.197188 383.133062 
L 991.197188 39.713812 
" style="fill: none; stroke: #000000; stroke-width: 0.8; stroke-linejoin: miter; stroke-linecap: square"/>
   </g>
   <g id="patch_5">
    <path d="M 44.555938 383.133062 
L 991.197188 383.133062 
" style="fill: none; stroke: #000000; stroke-width: 0.8; stroke-linejoin: miter; stroke-linecap: square"/>
   </g>
   <g id="patch_6">
    <path d="M 44.555938 39.713812 
L 991.197188 39.713812 
" style="fill: none; stroke: #000000; stroke-width: 0.8; stroke-linejoin: miter; stroke-linecap: square"/>
   </g>
   <g id="text_15">
    <!-- Dry Events Analysis - Bali, Indonesia -->
    <g transform="translate(373.705 17.837812) scale(0.14 -0.14)">
     <defs>
      <path id="DejaVuSerif-Bold-44" d="M 2100 378 
L 2534 378 
Q 3266 378 3605 847 
Q 3944 1316 3944 2338 
Q 3944 3353 3606 3820 
Q 3269 4288 2534 4288 
L 2100 4288 
L 2100 378 
z
M 300 0 
L 300 378 
L 897 378 
L 897 4288 
L 300 4288 
L 300 4666 
L 2694 4666 
Q 3950 4666 4615 4066 
Q 5281 3466 5281 2338 
Q 5281 1203 4614 601 
Q 3947 0 2694 0 
L 300 0 
z
" transform="scale(0.015625)"/>
      <path id="DejaVuSerif-Bold-72" d="M 3438 3359 
L 3438 2369 
L 3084 2369 
Q 3066 2634 2941 2764 
Q 2816 2894 2578 2894 
Q 2216 2894 2006 2575 
Q 1797 2256 1797 1691 
L 1797 378 
L 2400 378 
L 2400 0 
L 219 0 
L 219 378 
L 691 378 
L 691 2944 
L 184 2944 
L 184 3322 
L 1797 3322 
L 1797 2731 
Q 1959 3078 2226 3245 
Q 2494 3413 2881 3413 
Q 2978 3413 3117 3398 
Q 3256 3384 3438 3359 
z
" transform="scale(0.015625)"/>
      <path id="DejaVuSerif-Bold-79" d="M 1997 -750 
Q 1847 -1116 1634 -1269 
Q 1422 -1422 1063 -1422 
Q 909 -1422 721 -1387 
Q 534 -1353 313 -1288 
L 313 -594 
L 666 -597 
Q 675 -838 779 -953 
Q 884 -1069 1094 -1069 
Q 1297 -1069 1422 -958 
Q 1547 -847 1672 -538 
L 1722 -422 
L 275 2944 
L -84 2944 
L -84 3322 
L 1831 3322 
L 1831 2944 
L 1434 2944 
L 2278 978 
L 3066 2944 
L 2625 2944 
L 2625 3322 
L 3872 3322 
L 3872 2944 
L 3469 2944 
L 1997 -750 
z
" transform="scale(0.015625)"/>
      <path id="DejaVuSerif-Bold-20" transform="scale(0.015625)"/>
      <path id="DejaVuSerif-Bold-45" d="M 300 0 
L 300 378 
L 897 378 
L 897 4288 
L 300 4288 
L 300 4666 
L 4494 4666 
L 4494 3566 
L 4063 3566 
L 4063 4238 
L 2100 4238 
L 2100 2741 
L 3322 2741 
L 3322 3334 
L 3750 3334 
L 3750 1722 
L 3322 1722 
L 3322 2316 
L 2100 2316 
L 2100 428 
L 4122 428 
L 4122 1100 
L 4550 1100 
L 4550 0 
L 300 0 
z
" transform="scale(0.015625)"/>
      <path id="DejaVuSerif-Bold-76" d="M 1428 0 
L 250 2944 
L -116 2944 
L -116 3322 
L 1791 3322 
L 1791 2944 
L 1388 2944 
L 2228 844 
L 3066 2944 
L 2631 2944 
L 2631 3322 
L 3878 3322 
L 3878 2944 
L 3494 2944 
L 2316 0 
L 1428 0 
z
" transform="scale(0.015625)"/>
      <path id="DejaVuSerif-Bold-65" d="M 2566 1875 
Q 2566 2531 2444 2795 
Q 2322 3059 2028 3059 
Q 1744 3059 1620 2800 
Q 1497 2541 1497 1931 
L 1497 1875 
L 2566 1875 
z
M 3781 1503 
L 1497 1503 
L 1497 1478 
Q 1497 834 1690 548 
Q 1884 263 2316 263 
Q 2675 263 2897 453 
Q 3119 644 3181 1006 
L 3700 1006 
Q 3566 441 3166 175 
Q 2766 -91 2047 -91 
Q 1184 -91 723 364 
Q 263 819 263 1663 
Q 263 2488 734 2950 
Q 1206 3413 2047 3413 
Q 2872 3413 3312 2927 
Q 3753 2441 3781 1503 
z
" transform="scale(0.015625)"/>
      <path id="DejaVuSerif-Bold-6e" d="M 219 0 
L 219 378 
L 691 378 
L 691 2944 
L 219 2944 
L 219 3322 
L 1797 3322 
L 1797 2853 
Q 1997 3150 2253 3281 
Q 2509 3413 2900 3413 
Q 3459 3413 3745 3083 
Q 4031 2753 4031 2113 
L 4031 378 
L 4506 378 
L 4506 0 
L 2522 0 
L 2522 378 
L 2925 378 
L 2925 2144 
Q 2925 2566 2817 2730 
Q 2709 2894 2444 2894 
Q 2109 2894 1953 2648 
Q 1797 2403 1797 1869 
L 1797 378 
L 2203 378 
L 2203 0 
L 219 0 
z
" transform="scale(0.015625)"/>
      <path id="DejaVuSerif-Bold-74" d="M 634 2944 
L 153 2944 
L 153 3322 
L 634 3322 
L 634 4353 
L 1741 4353 
L 1741 3322 
L 2663 3322 
L 2663 2944 
L 1741 2944 
L 1741 909 
Q 1741 475 1809 369 
Q 1878 263 2059 263 
Q 2259 263 2356 397 
Q 2453 531 2459 813 
L 2925 813 
Q 2897 313 2651 111 
Q 2406 -91 1806 -91 
Q 1122 -91 878 123 
Q 634 338 634 909 
L 634 2944 
z
" transform="scale(0.015625)"/>
      <path id="DejaVuSerif-Bold-73" d="M 300 97 
L 300 1025 
L 653 1025 
Q 697 653 931 458 
Q 1166 263 1569 263 
Q 1906 263 2086 380 
Q 2266 497 2266 716 
Q 2266 916 2152 1025 
Q 2038 1134 1709 1216 
L 1253 1331 
Q 738 1459 506 1698 
Q 275 1938 275 2344 
Q 275 2884 650 3148 
Q 1025 3413 1806 3413 
Q 2100 3413 2433 3364 
Q 2766 3316 3169 3213 
L 3169 2375 
L 2816 2375 
Q 2788 2716 2573 2887 
Q 2359 3059 1959 3059 
Q 1622 3059 1448 2951 
Q 1275 2844 1275 2638 
Q 1275 2469 1375 2372 
Q 1475 2275 1734 2209 
L 2188 2094 
Q 2841 1928 3091 1684 
Q 3341 1441 3341 1006 
Q 3341 444 2939 176 
Q 2538 -91 1691 -91 
Q 1381 -91 1034 -44 
Q 688 3 300 97 
z
" transform="scale(0.015625)"/>
      <path id="DejaVuSerif-Bold-41" d="M -50 0 
L -50 378 
L 331 378 
L 2088 4666 
L 2834 4666 
L 4594 378 
L 5038 378 
L 5038 0 
L 2853 0 
L 2853 378 
L 3309 378 
L 2925 1331 
L 1172 1331 
L 781 378 
L 1338 378 
L 1338 0 
L -50 0 
z
M 1325 1709 
L 2772 1709 
L 2053 3494 
L 1325 1709 
z
" transform="scale(0.015625)"/>
      <path id="DejaVuSerif-Bold-61" d="M 3525 2041 
L 3525 378 
L 4000 378 
L 4000 0 
L 2419 0 
L 2419 422 
Q 2200 159 1931 34 
Q 1663 -91 1319 -91 
Q 809 -91 536 182 
Q 263 456 263 966 
Q 263 1525 655 1803 
Q 1047 2081 1838 2081 
L 2419 2081 
L 2419 2278 
Q 2419 2681 2228 2873 
Q 2038 3066 1638 3066 
Q 1306 3066 1126 2930 
Q 947 2794 872 2484 
L 519 2484 
L 519 3200 
Q 816 3306 1134 3359 
Q 1453 3413 1806 3413 
Q 2697 3413 3111 3081 
Q 3525 2750 3525 2041 
z
M 2419 1044 
L 2419 1709 
L 2003 1709 
Q 1694 1709 1528 1540 
Q 1363 1372 1363 1056 
Q 1363 741 1483 584 
Q 1603 428 1850 428 
Q 2106 428 2262 597 
Q 2419 766 2419 1044 
z
" transform="scale(0.015625)"/>
      <path id="DejaVuSerif-Bold-6c" d="M 1797 378 
L 2272 378 
L 2272 0 
L 219 0 
L 219 378 
L 691 378 
L 691 4488 
L 219 4488 
L 219 4863 
L 1797 4863 
L 1797 378 
z
" transform="scale(0.015625)"/>
      <path id="DejaVuSerif-Bold-69" d="M 588 4263 
Q 588 4516 763 4689 
Q 938 4863 1191 4863 
Q 1438 4863 1611 4689 
Q 1784 4516 1784 4263 
Q 1784 4016 1611 3842 
Q 1438 3669 1191 3669 
Q 938 3669 763 3841 
Q 588 4013 588 4263 
z
M 1797 378 
L 2272 378 
L 2272 0 
L 219 0 
L 219 378 
L 691 378 
L 691 2944 
L 219 2944 
L 219 3322 
L 1797 3322 
L 1797 378 
z
" transform="scale(0.015625)"/>
      <path id="DejaVuSerif-Bold-2d" d="M 347 2138 
L 2309 2138 
L 2309 1294 
L 347 1294 
L 347 2138 
z
" transform="scale(0.015625)"/>
      <path id="DejaVuSerif-Bold-42" d="M 300 0 
L 300 378 
L 897 378 
L 897 4288 
L 300 4288 
L 300 4666 
L 3066 4666 
Q 3919 4666 4347 4378 
Q 4775 4091 4775 3513 
Q 4775 3097 4479 2853 
Q 4184 2609 3603 2547 
Q 4306 2481 4681 2172 
Q 5056 1863 5056 1350 
Q 5056 656 4532 328 
Q 4009 0 2894 0 
L 300 0 
z
M 2100 2719 
L 2509 2719 
Q 3047 2719 3306 2914 
Q 3566 3109 3566 3513 
Q 3566 3919 3314 4103 
Q 3063 4288 2509 4288 
L 2100 4288 
L 2100 2719 
z
M 2100 378 
L 2547 378 
Q 3144 378 3431 615 
Q 3719 853 3719 1350 
Q 3719 1850 3428 2097 
Q 3138 2344 2547 2344 
L 2100 2344 
L 2100 378 
z
" transform="scale(0.015625)"/>
      <path id="DejaVuSerif-Bold-2c" d="M 84 -616 
Q 409 -353 562 -28 
Q 716 297 716 728 
L 716 997 
L 1606 997 
L 1606 972 
Q 1606 281 1317 -217 
Q 1028 -716 428 -1056 
L 84 -616 
z
" transform="scale(0.015625)"/>
      <path id="DejaVuSerif-Bold-49" d="M 300 0 
L 300 378 
L 897 378 
L 897 4288 
L 300 4288 
L 300 4666 
L 2700 4666 
L 2700 4288 
L 2100 4288 
L 2100 378 
L 2700 378 
L 2700 0 
L 300 0 
z
" transform="scale(0.015625)"/>
      <path id="DejaVuSerif-Bold-64" d="M 2747 1497 
L 2747 1825 
Q 2747 2406 2597 2665 
Q 2447 2925 2119 2925 
Q 1775 2925 1636 2651 
Q 1497 2378 1497 1663 
Q 1497 947 1637 672 
Q 1778 397 2119 397 
Q 2447 397 2597 656 
Q 2747 916 2747 1497 
z
M 3853 378 
L 4325 378 
L 4325 0 
L 2747 0 
L 2747 422 
Q 2606 163 2367 36 
Q 2128 -91 1778 -91 
Q 1072 -91 667 378 
Q 263 847 263 1663 
Q 263 2481 667 2947 
Q 1072 3413 1778 3413 
Q 2128 3413 2367 3286 
Q 2606 3159 2747 2900 
L 2747 4488 
L 2272 4488 
L 2272 4863 
L 3853 4863 
L 3853 378 
z
" transform="scale(0.015625)"/>
      <path id="DejaVuSerif-Bold-6f" d="M 2138 263 
Q 2488 263 2630 563 
Q 2772 863 2772 1663 
Q 2772 2463 2631 2761 
Q 2491 3059 2138 3059 
Q 1784 3059 1640 2757 
Q 1497 2456 1497 1663 
Q 1497 869 1640 566 
Q 1784 263 2138 263 
z
M 2138 -91 
Q 1259 -91 761 376 
Q 263 844 263 1663 
Q 263 2484 761 2948 
Q 1259 3413 2138 3413 
Q 3019 3413 3516 2948 
Q 4013 2484 4013 1663 
Q 4013 844 3514 376 
Q 3016 -91 2138 -91 
z
" transform="scale(0.015625)"/>
     </defs>
     <use xlink:href="#DejaVuSerif-Bold-44"/>
     <use xlink:href="#DejaVuSerif-Bold-72" transform="translate(86.71875 0)"/>
     <use xlink:href="#DejaVuSerif-Bold-79" transform="translate(139.404297 0)"/>
     <use xlink:href="#DejaVuSerif-Bold-20" transform="translate(197.509766 0)"/>
     <use xlink:href="#DejaVuSerif-Bold-45" transform="translate(232.324219 0)"/>
     <use xlink:href="#DejaVuSerif-Bold-76" transform="translate(308.544922 0)"/>
     <use xlink:href="#DejaVuSerif-Bold-65" transform="translate(366.650391 0)"/>
     <use xlink:href="#DejaVuSerif-Bold-6e" transform="translate(430.273438 0)"/>
     <use xlink:href="#DejaVuSerif-Bold-74" transform="translate(502.978516 0)"/>
     <use xlink:href="#DejaVuSerif-Bold-73" transform="translate(549.169922 0)"/>
     <use xlink:href="#DejaVuSerif-Bold-20" transform="translate(605.46875 0)"/>
     <use xlink:href="#DejaVuSerif-Bold-41" transform="translate(640.283203 0)"/>
     <use xlink:href="#DejaVuSerif-Bold-6e" transform="translate(717.871094 0)"/>
     <use xlink:href="#DejaVuSerif-Bold-61" transform="translate(790.576172 0)"/>
     <use xlink:href="#DejaVuSerif-Bold-6c" transform="translate(855.371094 0)"/>
     <use xlink:href="#DejaVuSerif-Bold-79" transform="translate(893.359375 0)"/>
     <use xlink:href="#DejaVuSerif-Bold-73" transform="translate(951.464844 0)"/>
     <use xlink:href="#DejaVuSerif-Bold-69" transform="translate(1007.763672 0)"/>
     <use xlink:href="#DejaVuSerif-Bold-73" transform="translate(1045.751953 0)"/>
     <use xlink:href="#DejaVuSerif-Bold-20" transform="translate(1102.050781 0)"/>
     <use xlink:href="#DejaVuSerif-Bold-2d" transform="translate(1136.865234 0)"/>
     <use xlink:href="#DejaVuSerif-Bold-20" transform="translate(1178.369141 0)"/>
     <use xlink:href="#DejaVuSerif-Bold-42" transform="translate(1213.183594 0)"/>
     <use xlink:href="#DejaVuSerif-Bold-61" transform="translate(1297.705078 0)"/>
     <use xlink:href="#DejaVuSerif-Bold-6c" transform="translate(1362.5 0)"/>
     <use xlink:href="#DejaVuSerif-Bold-69" transform="translate(1400.488281 0)"/>
     <use xlink:href="#DejaVuSerif-Bold-2c" transform="translate(1438.476562 0)"/>
     <use xlink:href="#DejaVuSerif-Bold-20" transform="translate(1473.291016 0)"/>
     <use xlink:href="#DejaVuSerif-Bold-49" transform="translate(1508.105469 0)"/>
     <use xlink:href="#DejaVuSerif-Bold-6e" transform="translate(1554.882812 0)"/>
     <use xlink:href="#DejaVuSerif-Bold-64" transform="translate(1627.587891 0)"/>
     <use xlink:href="#DejaVuSerif-Bold-6f" transform="translate(1697.509766 0)"/>
     <use xlink:href="#DejaVuSerif-Bold-6e" transform="translate(1764.208984 0)"/>
     <use xlink:href="#DejaVuSerif-Bold-65" transform="translate(1836.914062 0)"/>
     <use xlink:href="#DejaVuSerif-Bold-73" transform="translate(1900.537109 0)"/>
     <use xlink:href="#DejaVuSerif-Bold-69" transform="translate(1956.835938 0)"/>
     <use xlink:href="#DejaVuSerif-Bold-61" transform="translate(1994.824219 0)"/>
    </g>
    <!-- -8.48°, 115.06° (1958-2024) -->
    <g transform="translate(408.330937 33.713812) scale(0.14 -0.14)">
     <defs>
      <path id="DejaVuSerif-Bold-38" d="M 2975 2484 
Q 3531 2394 3820 2075 
Q 4109 1756 4109 1241 
Q 4109 597 3623 253 
Q 3138 -91 2222 -91 
Q 1306 -91 818 253 
Q 331 597 331 1241 
Q 331 1756 622 2075 
Q 913 2394 1466 2484 
Q 975 2597 731 2861 
Q 488 3125 488 3531 
Q 488 4125 931 4437 
Q 1375 4750 2222 4750 
Q 3066 4750 3511 4437 
Q 3956 4125 3956 3531 
Q 3956 3125 3711 2861 
Q 3466 2597 2975 2484 
z
M 2747 3519 
Q 2747 4013 2628 4198 
Q 2509 4384 2222 4384 
Q 1931 4384 1814 4198 
Q 1697 4013 1697 3519 
Q 1697 3028 1814 2845 
Q 1931 2663 2222 2663 
Q 2513 2663 2630 2845 
Q 2747 3028 2747 3519 
z
M 2869 1294 
Q 2869 1866 2723 2081 
Q 2578 2297 2222 2297 
Q 1863 2297 1719 2081 
Q 1575 1866 1575 1294 
Q 1575 716 1720 495 
Q 1866 275 2222 275 
Q 2575 275 2722 495 
Q 2869 716 2869 1294 
z
" transform="scale(0.015625)"/>
      <path id="DejaVuSerif-Bold-2e" d="M 519 506 
Q 519 750 694 925 
Q 869 1100 1113 1100 
Q 1359 1100 1534 925 
Q 1709 750 1709 506 
Q 1709 259 1534 84 
Q 1359 -91 1113 -91 
Q 869 -91 694 84 
Q 519 259 519 506 
z
" transform="scale(0.015625)"/>
      <path id="DejaVuSerif-Bold-34" d="M 4084 0 
L 1516 0 
L 1516 378 
L 2209 378 
L 2209 1228 
L 263 1228 
L 263 1588 
L 2216 4750 
L 3391 4750 
L 3391 1631 
L 4191 1631 
L 4191 1228 
L 3391 1228 
L 3391 378 
L 4084 378 
L 4084 0 
z
M 2209 1631 
L 2209 3897 
L 819 1631 
L 2209 1631 
z
" transform="scale(0.015625)"/>
      <path id="DejaVuSerif-Bold-b0" d="M 1600 4794 
Q 1806 4794 1997 4714 
Q 2188 4634 2338 4488 
Q 2484 4338 2561 4150 
Q 2638 3963 2638 3750 
Q 2638 3541 2561 3352 
Q 2484 3163 2344 3022 
Q 2194 2872 2000 2792 
Q 1806 2713 1594 2713 
Q 1153 2713 854 3011 
Q 556 3309 556 3750 
Q 556 4191 857 4492 
Q 1159 4794 1600 4794 
z
M 1600 4288 
Q 1375 4288 1219 4131 
Q 1063 3975 1063 3750 
Q 1063 3525 1217 3372 
Q 1372 3219 1600 3219 
Q 1825 3219 1981 3373 
Q 2138 3528 2138 3750 
Q 2138 3975 1980 4131 
Q 1822 4288 1600 4288 
z
" transform="scale(0.015625)"/>
      <path id="DejaVuSerif-Bold-31" d="M 878 0 
L 878 378 
L 1753 378 
L 1753 4153 
L 781 3578 
L 781 4044 
L 1953 4750 
L 2938 4750 
L 2938 378 
L 3816 378 
L 3816 0 
L 878 0 
z
" transform="scale(0.015625)"/>
      <path id="DejaVuSerif-Bold-35" d="M 3609 4666 
L 3609 3847 
L 1113 3847 
L 1113 2822 
Q 1319 2981 1572 3062 
Q 1825 3144 2106 3144 
Q 2969 3144 3469 2708 
Q 3969 2272 3969 1522 
Q 3969 759 3469 334 
Q 2969 -91 2069 -91 
Q 1688 -91 1311 -28 
Q 934 34 525 166 
L 525 1184 
L 900 1184 
Q 919 725 1139 500 
Q 1359 275 1791 275 
Q 2250 275 2472 583 
Q 2694 891 2694 1522 
Q 2694 2144 2476 2451 
Q 2259 2759 1819 2759 
Q 1581 2759 1395 2661 
Q 1209 2563 1050 2356 
L 738 2356 
L 738 4666 
L 3609 4666 
z
" transform="scale(0.015625)"/>
      <path id="DejaVuSerif-Bold-30" d="M 2228 275 
Q 2603 275 2742 615 
Q 2881 956 2881 2328 
Q 2881 3691 2742 4037 
Q 2603 4384 2228 4384 
Q 1853 4384 1714 4043 
Q 1575 3703 1575 2328 
Q 1575 956 1714 615 
Q 1853 275 2228 275 
z
M 2228 -91 
Q 1294 -91 797 532 
Q 300 1156 300 2328 
Q 300 3500 797 4125 
Q 1294 4750 2228 4750 
Q 3159 4750 3656 4125 
Q 4153 3500 4153 2328 
Q 4153 1156 3656 532 
Q 3159 -91 2228 -91 
z
" transform="scale(0.015625)"/>
      <path id="DejaVuSerif-Bold-36" d="M 1575 2766 
Q 1778 2928 2029 3009 
Q 2281 3091 2578 3091 
Q 3294 3091 3701 2672 
Q 4109 2253 4109 1522 
Q 4109 750 3650 329 
Q 3191 -91 2344 -91 
Q 1388 -91 895 486 
Q 403 1063 403 2181 
Q 403 3453 950 4101 
Q 1497 4750 2572 4750 
Q 2853 4750 3175 4703 
Q 3497 4656 3866 4563 
L 3866 3738 
L 3488 3738 
Q 3409 4056 3192 4220 
Q 2975 4384 2631 4384 
Q 2075 4384 1826 4003 
Q 1578 3622 1575 2766 
z
M 2272 275 
Q 2594 275 2731 548 
Q 2869 822 2869 1497 
Q 2869 2172 2731 2445 
Q 2594 2719 2272 2719 
Q 1950 2719 1814 2445 
Q 1678 2172 1678 1497 
Q 1678 822 1814 548 
Q 1950 275 2272 275 
z
" transform="scale(0.015625)"/>
      <path id="DejaVuSerif-Bold-28" d="M 2694 -997 
Q 1641 -606 1122 122 
Q 603 850 603 1931 
Q 603 3013 1115 3731 
Q 1628 4450 2694 4863 
L 2694 4488 
Q 2200 4188 1983 3598 
Q 1766 3009 1766 1931 
Q 1766 856 1983 267 
Q 2200 -322 2694 -622 
L 2694 -997 
z
" transform="scale(0.015625)"/>
      <path id="DejaVuSerif-Bold-39" d="M 2181 4384 
Q 1859 4384 1723 4111 
Q 1588 3838 1588 3163 
Q 1588 2488 1723 2214 
Q 1859 1941 2181 1941 
Q 2503 1941 2640 2214 
Q 2778 2488 2778 3163 
Q 2778 3838 2640 4111 
Q 2503 4384 2181 4384 
z
M 2878 1900 
Q 2672 1734 2420 1651 
Q 2169 1569 1875 1569 
Q 1163 1569 755 1986 
Q 347 2403 347 3138 
Q 347 3913 803 4331 
Q 1259 4750 2106 4750 
Q 3063 4750 3556 4172 
Q 4050 3594 4050 2478 
Q 4050 1206 3503 557 
Q 2956 -91 1881 -91 
Q 1600 -91 1278 -44 
Q 956 3 588 97 
L 588 922 
L 966 922 
Q 1044 603 1261 439 
Q 1478 275 1825 275 
Q 2375 275 2625 658 
Q 2875 1041 2878 1900 
z
" transform="scale(0.015625)"/>
      <path id="DejaVuSerif-Bold-32" d="M 844 3513 
L 469 3513 
L 469 4519 
Q 850 4634 1223 4692 
Q 1597 4750 1978 4750 
Q 2869 4750 3367 4386 
Q 3866 4022 3866 3372 
Q 3866 2909 3591 2542 
Q 3316 2175 2541 1672 
L 1241 819 
L 3450 819 
L 3450 1369 
L 3878 1369 
L 3878 0 
L 428 0 
L 428 763 
L 1119 1241 
Q 2003 1850 2297 2278 
Q 2591 2706 2591 3278 
Q 2591 3819 2367 4101 
Q 2144 4384 1716 4384 
Q 1347 4384 1125 4161 
Q 903 3938 844 3513 
z
" transform="scale(0.015625)"/>
      <path id="DejaVuSerif-Bold-29" d="M 325 -997 
L 325 -622 
Q 819 -322 1036 267 
Q 1253 856 1253 1931 
Q 1253 3009 1036 3598 
Q 819 4188 325 4488 
L 325 4863 
Q 1391 4450 1905 3731 
Q 2419 3013 2419 1931 
Q 2419 850 1898 122 
Q 1378 -606 325 -997 
z
" transform="scale(0.015625)"/>
     </defs>
     <use xlink:href="#DejaVuSerif-Bold-2d"/>
     <use xlink:href="#DejaVuSerif-Bold-38" transform="translate(41.503906 0)"/>
     <use xlink:href="#DejaVuSerif-Bold-2e" transform="translate(111.083984 0)"/>
     <use xlink:href="#DejaVuSerif-Bold-34" transform="translate(145.898438 0)"/>
     <use xlink:href="#DejaVuSerif-Bold-38" transform="translate(215.478516 0)"/>
     <use xlink:href="#DejaVuSerif-Bold-b0" transform="translate(285.058594 0)"/>
     <use xlink:href="#DejaVuSerif-Bold-2c" transform="translate(335.058594 0)"/>
     <use xlink:href="#DejaVuSerif-Bold-20" transform="translate(369.873047 0)"/>
     <use xlink:href="#DejaVuSerif-Bold-31" transform="translate(404.6875 0)"/>
     <use xlink:href="#DejaVuSerif-Bold-31" transform="translate(474.267578 0)"/>
     <use xlink:href="#DejaVuSerif-Bold-35" transform="translate(543.847656 0)"/>
     <use xlink:href="#DejaVuSerif-Bold-2e" transform="translate(613.427734 0)"/>
     <use xlink:href="#DejaVuSerif-Bold-30" transform="translate(648.242188 0)"/>
     <use xlink:href="#DejaVuSerif-Bold-36" transform="translate(717.822266 0)"/>
     <use xlink:href="#DejaVuSerif-Bold-b0" transform="translate(787.402344 0)"/>
     <use xlink:href="#DejaVuSerif-Bold-20" transform="translate(837.402344 0)"/>
     <use xlink:href="#DejaVuSerif-Bold-28" transform="translate(872.216797 0)"/>
     <use xlink:href="#DejaVuSerif-Bold-31" transform="translate(919.53125 0)"/>
     <use xlink:href="#DejaVuSerif-Bold-39" transform="translate(989.111328 0)"/>
     <use xlink:href="#DejaVuSerif-Bold-35" transform="translate(1058.691406 0)"/>
     <use xlink:href="#DejaVuSerif-Bold-38" transform="translate(1128.271484 0)"/>
     <use xlink:href="#DejaVuSerif-Bold-2d" transform="translate(1197.851562 0)"/>
     <use xlink:href="#DejaVuSerif-Bold-32" transform="translate(1239.355469 0)"/>
     <use xlink:href="#DejaVuSerif-Bold-30" transform="translate(1308.935547 0)"/>
     <use xlink:href="#DejaVuSerif-Bold-32" transform="translate(1378.515625 0)"/>
     <use xlink:href="#DejaVuSerif-Bold-34" transform="translate(1448.095703 0)"/>
     <use xlink:href="#DejaVuSerif-Bold-29" transform="translate(1517.675781 0)"/>
    </g>
   </g>
   <g id="PathCollection_1">
    <defs>
     <path id="ma0ab8353ae" d="M -0 3.535534 
L 3.535534 -3.535534 
L -3.535534 -3.535534 
z
" style="stroke: #8b0000"/>
    </defs>
    <g clip-path="url(#p0658fbdcc2)">
     <use xlink:href="#ma0ab8353ae" x="125.639652" y="351.580685" style="fill: #8b0000; stroke: #8b0000"/>
    </g>
   </g>
   <g id="PathCollection_2">
    <g clip-path="url(#p0658fbdcc2)">
     <use xlink:href="#ma0ab8353ae" x="177.795112" y="345.606552" style="fill: #8b0000; stroke: #8b0000"/>
    </g>
   </g>
   <g id="PathCollection_3">
    <g clip-path="url(#p0658fbdcc2)">
     <use xlink:href="#ma0ab8353ae" x="269.076094" y="337.769226" style="fill: #8b0000; stroke: #8b0000"/>
    </g>
   </g>
   <g id="PathCollection_4">
    <g clip-path="url(#p0658fbdcc2)">
     <use xlink:href="#ma0ab8353ae" x="334.261495" y="335.485248" style="fill: #8b0000; stroke: #8b0000"/>
    </g>
   </g>
   <g id="PathCollection_5">
    <g clip-path="url(#p0658fbdcc2)">
     <use xlink:href="#ma0ab8353ae" x="371.209409" y="323.450649" style="fill: #8b0000; stroke: #8b0000"/>
    </g>
   </g>
   <g id="PathCollection_6">
    <g clip-path="url(#p0658fbdcc2)">
     <use xlink:href="#ma0ab8353ae" x="403.730713" y="367.523097" style="fill: #8b0000; stroke: #8b0000"/>
    </g>
   </g>
   <g id="PathCollection_7">
    <g clip-path="url(#p0658fbdcc2)">
     <use xlink:href="#ma0ab8353ae" x="462.454692" y="339.93716" style="fill: #8b0000; stroke: #8b0000"/>
    </g>
   </g>
   <g id="PathCollection_8">
    <g clip-path="url(#p0658fbdcc2)">
     <use xlink:href="#ma0ab8353ae" x="473.307026" y="317.628354" style="fill: #8b0000; stroke: #8b0000"/>
    </g>
   </g>
   <g id="PathCollection_9">
    <g clip-path="url(#p0658fbdcc2)">
     <use xlink:href="#ma0ab8353ae" x="514.610153" y="327.463852" style="fill: #8b0000; stroke: #8b0000"/>
    </g>
   </g>
   <g id="PathCollection_10">
    <g clip-path="url(#p0658fbdcc2)">
     <use xlink:href="#ma0ab8353ae" x="659.117549" y="350.977782" style="fill: #8b0000; stroke: #8b0000"/>
    </g>
   </g>
   <g id="PathCollection_11">
    <g clip-path="url(#p0658fbdcc2)">
     <use xlink:href="#ma0ab8353ae" x="694.95881" y="313.824346" style="fill: #8b0000; stroke: #8b0000"/>
    </g>
   </g>
   <g id="PathCollection_12">
    <g clip-path="url(#p0658fbdcc2)">
     <use xlink:href="#ma0ab8353ae" x="814.512978" y="347.016328" style="fill: #8b0000; stroke: #8b0000"/>
    </g>
   </g>
   <g id="PathCollection_13">
    <g clip-path="url(#p0658fbdcc2)">
     <use xlink:href="#ma0ab8353ae" x="937.315706" y="311.404944" style="fill: #8b0000; stroke: #8b0000"/>
    </g>
   </g>
   <g id="PathCollection_14">
    <g clip-path="url(#p0658fbdcc2)">
     <use xlink:href="#ma0ab8353ae" x="943.812827" y="325.613167" style="fill: #8b0000; stroke: #8b0000"/>
    </g>
   </g>
   <g id="legend_1">
    <g id="patch_7">
     <path d="M 50.855937 139.386 
L 152.795 139.386 
Q 154.595 139.386 154.595 137.586 
L 154.595 46.013812 
Q 154.595 44.213812 152.795 44.213812 
L 50.855937 44.213812 
Q 49.055937 44.213812 49.055937 46.013812 
L 49.055937 137.586 
Q 49.055937 139.386 50.855937 139.386 
z
" style="fill: #ffffff; opacity: 0.8; stroke: #cccccc; stroke-linejoin: miter"/>
    </g>
    <g id="line2d_28">
     <path d="M 52.655938 51.502406 
L 61.655938 51.502406 
L 70.655937 51.502406 
" style="fill: none; stroke: #000000; stroke-opacity: 0.7; stroke-width: 1.5; stroke-linecap: square"/>
    </g>
    <g id="text_16">
     <!-- Index -->
     <g transform="translate(77.855937 54.652406) scale(0.09 -0.09)">
      <use xlink:href="#DejaVuSerif-49"/>
      <use xlink:href="#DejaVuSerif-6e" transform="translate(39.501953 0)"/>
      <use xlink:href="#DejaVuSerif-64" transform="translate(103.90625 0)"/>
      <use xlink:href="#DejaVuSerif-65" transform="translate(167.919922 0)"/>
      <use xlink:href="#DejaVuSerif-78" transform="translate(227.099609 0)"/>
     </g>
    </g>
    <g id="patch_8">
     <path d="M 52.655938 67.862719 
L 70.655937 67.862719 
L 70.655937 61.562719 
L 52.655938 61.562719 
z
" style="fill: #fcab8f; fill-opacity: 0.5; stroke: #fcab8f; stroke-opacity: 0.5; stroke-linejoin: miter"/>
    </g>
    <g id="text_17">
     <!-- Event 1 -->
     <g transform="translate(77.855937 67.862719) scale(0.09 -0.09)">
      <defs>
       <path id="DejaVuSerif-45" d="M 353 0 
L 353 331 
L 947 331 
L 947 4331 
L 353 4331 
L 353 4666 
L 4109 4666 
L 4109 3628 
L 3725 3628 
L 3725 4281 
L 1581 4281 
L 1581 2719 
L 3109 2719 
L 3109 3303 
L 3494 3303 
L 3494 1753 
L 3109 1753 
L 3109 2338 
L 1581 2338 
L 1581 384 
L 3775 384 
L 3775 1038 
L 4159 1038 
L 4159 0 
L 353 0 
z
" transform="scale(0.015625)"/>
       <path id="DejaVuSerif-76" d="M 1581 0 
L 359 2988 
L -19 2988 
L -19 3322 
L 1509 3322 
L 1509 2988 
L 978 2988 
L 1913 703 
L 2847 2988 
L 2350 2988 
L 2350 3322 
L 3597 3322 
L 3597 2988 
L 3225 2988 
L 2003 0 
L 1581 0 
z
" transform="scale(0.015625)"/>
       <path id="DejaVuSerif-74" d="M 691 2988 
L 184 2988 
L 184 3322 
L 691 3322 
L 691 4353 
L 1269 4353 
L 1269 3322 
L 2350 3322 
L 2350 2988 
L 1269 2988 
L 1269 878 
Q 1269 456 1350 337 
Q 1431 219 1650 219 
Q 1875 219 1978 351 
Q 2081 484 2088 781 
L 2522 781 
Q 2497 328 2275 118 
Q 2053 -91 1600 -91 
Q 1103 -91 897 129 
Q 691 350 691 878 
L 691 2988 
z
" transform="scale(0.015625)"/>
      </defs>
      <use xlink:href="#DejaVuSerif-45"/>
      <use xlink:href="#DejaVuSerif-76" transform="translate(72.998047 0)"/>
      <use xlink:href="#DejaVuSerif-65" transform="translate(129.492188 0)"/>
      <use xlink:href="#DejaVuSerif-6e" transform="translate(188.671875 0)"/>
      <use xlink:href="#DejaVuSerif-74" transform="translate(253.076172 0)"/>
      <use xlink:href="#DejaVuSerif-20" transform="translate(293.261719 0)"/>
      <use xlink:href="#DejaVuSerif-31" transform="translate(325.048828 0)"/>
     </g>
    </g>
    <g id="patch_9">
     <path d="M 52.655938 81.073031 
L 70.655937 81.073031 
L 70.655937 74.773031 
L 52.655938 74.773031 
z
" style="fill: #fc9c7d; fill-opacity: 0.5; stroke: #fc9c7d; stroke-opacity: 0.5; stroke-linejoin: miter"/>
    </g>
    <g id="text_18">
     <!-- Event 2 -->
     <g transform="translate(77.855937 81.073031) scale(0.09 -0.09)">
      <use xlink:href="#DejaVuSerif-45"/>
      <use xlink:href="#DejaVuSerif-76" transform="translate(72.998047 0)"/>
      <use xlink:href="#DejaVuSerif-65" transform="translate(129.492188 0)"/>
      <use xlink:href="#DejaVuSerif-6e" transform="translate(188.671875 0)"/>
      <use xlink:href="#DejaVuSerif-74" transform="translate(253.076172 0)"/>
      <use xlink:href="#DejaVuSerif-20" transform="translate(293.261719 0)"/>
      <use xlink:href="#DejaVuSerif-32" transform="translate(325.048828 0)"/>
     </g>
    </g>
    <g id="patch_10">
     <path d="M 52.655938 94.283344 
L 70.655937 94.283344 
L 70.655937 87.983344 
L 52.655938 87.983344 
z
" style="fill: #fc8d6d; fill-opacity: 0.5; stroke: #fc8d6d; stroke-opacity: 0.5; stroke-linejoin: miter"/>
    </g>
    <g id="text_19">
     <!-- Event 3 -->
     <g transform="translate(77.855937 94.283344) scale(0.09 -0.09)">
      <defs>
       <path id="DejaVuSerif-33" d="M 622 4469 
Q 988 4606 1323 4678 
Q 1659 4750 1953 4750 
Q 2638 4750 3022 4454 
Q 3406 4159 3406 3634 
Q 3406 3213 3140 2930 
Q 2875 2647 2388 2547 
Q 2963 2466 3280 2130 
Q 3597 1794 3597 1259 
Q 3597 606 3158 257 
Q 2719 -91 1894 -91 
Q 1528 -91 1179 -12 
Q 831 66 488 225 
L 488 1131 
L 838 1131 
Q 869 681 1141 450 
Q 1413 219 1906 219 
Q 2384 219 2661 495 
Q 2938 772 2938 1253 
Q 2938 1803 2653 2086 
Q 2369 2369 1819 2369 
L 1522 2369 
L 1522 2688 
L 1678 2688 
Q 2225 2688 2498 2914 
Q 2772 3141 2772 3597 
Q 2772 4006 2547 4223 
Q 2322 4441 1900 4441 
Q 1478 4441 1245 4241 
Q 1013 4041 972 3647 
L 622 3647 
L 622 4469 
z
" transform="scale(0.015625)"/>
      </defs>
      <use xlink:href="#DejaVuSerif-45"/>
      <use xlink:href="#DejaVuSerif-76" transform="translate(72.998047 0)"/>
      <use xlink:href="#DejaVuSerif-65" transform="translate(129.492188 0)"/>
      <use xlink:href="#DejaVuSerif-6e" transform="translate(188.671875 0)"/>
      <use xlink:href="#DejaVuSerif-74" transform="translate(253.076172 0)"/>
      <use xlink:href="#DejaVuSerif-20" transform="translate(293.261719 0)"/>
      <use xlink:href="#DejaVuSerif-33" transform="translate(325.048828 0)"/>
     </g>
    </g>
    <g id="patch_11">
     <path d="M 52.655938 107.493656 
L 70.655937 107.493656 
L 70.655937 101.193656 
L 52.655938 101.193656 
z
" style="fill: #fb7d5d; fill-opacity: 0.5; stroke: #fb7d5d; stroke-opacity: 0.5; stroke-linejoin: miter"/>
    </g>
    <g id="text_20">
     <!-- Event 4 -->
     <g transform="translate(77.855937 107.493656) scale(0.09 -0.09)">
      <defs>
       <path id="DejaVuSerif-34" d="M 2234 1581 
L 2234 4063 
L 641 1581 
L 2234 1581 
z
M 3609 0 
L 1484 0 
L 1484 331 
L 2234 331 
L 2234 1247 
L 197 1247 
L 197 1588 
L 2241 4750 
L 2859 4750 
L 2859 1581 
L 3750 1581 
L 3750 1247 
L 2859 1247 
L 2859 331 
L 3609 331 
L 3609 0 
z
" transform="scale(0.015625)"/>
      </defs>
      <use xlink:href="#DejaVuSerif-45"/>
      <use xlink:href="#DejaVuSerif-76" transform="translate(72.998047 0)"/>
      <use xlink:href="#DejaVuSerif-65" transform="translate(129.492188 0)"/>
      <use xlink:href="#DejaVuSerif-6e" transform="translate(188.671875 0)"/>
      <use xlink:href="#DejaVuSerif-74" transform="translate(253.076172 0)"/>
      <use xlink:href="#DejaVuSerif-20" transform="translate(293.261719 0)"/>
      <use xlink:href="#DejaVuSerif-34" transform="translate(325.048828 0)"/>
     </g>
    </g>
    <g id="patch_12">
     <path d="M 52.655938 120.703969 
L 70.655937 120.703969 
L 70.655937 114.403969 
L 52.655938 114.403969 
z
" style="fill: #fb6e4e; fill-opacity: 0.5; stroke: #fb6e4e; stroke-opacity: 0.5; stroke-linejoin: miter"/>
    </g>
    <g id="text_21">
     <!-- Event 5 -->
     <g transform="translate(77.855937 120.703969) scale(0.09 -0.09)">
      <defs>
       <path id="DejaVuSerif-35" d="M 3219 4666 
L 3219 4153 
L 1081 4153 
L 1081 2816 
Q 1244 2928 1461 2984 
Q 1678 3041 1947 3041 
Q 2703 3041 3140 2622 
Q 3578 2203 3578 1478 
Q 3578 738 3136 323 
Q 2694 -91 1894 -91 
Q 1572 -91 1234 -12 
Q 897 66 544 225 
L 544 1131 
L 897 1131 
Q 925 688 1179 453 
Q 1434 219 1894 219 
Q 2388 219 2653 544 
Q 2919 869 2919 1478 
Q 2919 2084 2655 2407 
Q 2391 2731 1894 2731 
Q 1613 2731 1398 2631 
Q 1184 2531 1019 2322 
L 750 2322 
L 750 4666 
L 3219 4666 
z
" transform="scale(0.015625)"/>
      </defs>
      <use xlink:href="#DejaVuSerif-45"/>
      <use xlink:href="#DejaVuSerif-76" transform="translate(72.998047 0)"/>
      <use xlink:href="#DejaVuSerif-65" transform="translate(129.492188 0)"/>
      <use xlink:href="#DejaVuSerif-6e" transform="translate(188.671875 0)"/>
      <use xlink:href="#DejaVuSerif-74" transform="translate(253.076172 0)"/>
      <use xlink:href="#DejaVuSerif-20" transform="translate(293.261719 0)"/>
      <use xlink:href="#DejaVuSerif-35" transform="translate(325.048828 0)"/>
     </g>
    </g>
    <g id="line2d_29">
     <path d="M 52.655938 130.764281 
L 61.655938 130.764281 
L 70.655937 130.764281 
" style="fill: none; stroke-dasharray: 5.55,2.4; stroke-dashoffset: 0; stroke: #ff0000; stroke-width: 1.5"/>
    </g>
    <g id="text_22">
     <!-- Threshold (-1.2) -->
     <g transform="translate(77.855937 133.914281) scale(0.09 -0.09)">
      <defs>
       <path id="DejaVuSerif-68" d="M 263 0 
L 263 331 
L 781 331 
L 781 4531 
L 231 4531 
L 231 4863 
L 1356 4863 
L 1356 2731 
Q 1516 3069 1770 3241 
Q 2025 3413 2363 3413 
Q 2913 3413 3172 3097 
Q 3431 2781 3431 2113 
L 3431 331 
L 3944 331 
L 3944 0 
L 2356 0 
L 2356 331 
L 2853 331 
L 2853 1931 
Q 2853 2541 2704 2764 
Q 2556 2988 2175 2988 
Q 1775 2988 1565 2697 
Q 1356 2406 1356 1850 
L 1356 331 
L 1856 331 
L 1856 0 
L 263 0 
z
" transform="scale(0.015625)"/>
       <path id="DejaVuSerif-72" d="M 3059 3328 
L 3059 2497 
L 2728 2497 
Q 2713 2744 2591 2866 
Q 2469 2988 2234 2988 
Q 1809 2988 1582 2694 
Q 1356 2400 1356 1850 
L 1356 331 
L 2022 331 
L 2022 0 
L 263 0 
L 263 331 
L 781 331 
L 781 2994 
L 231 2994 
L 231 3322 
L 1356 3322 
L 1356 2731 
Q 1525 3078 1790 3245 
Q 2056 3413 2438 3413 
Q 2578 3413 2733 3391 
Q 2888 3369 3059 3328 
z
" transform="scale(0.015625)"/>
       <path id="DejaVuSerif-73" d="M 359 184 
L 359 959 
L 691 959 
Q 703 588 923 403 
Q 1144 219 1575 219 
Q 1963 219 2166 364 
Q 2369 509 2369 788 
Q 2369 1006 2220 1140 
Q 2072 1275 1594 1428 
L 1178 1569 
Q 750 1706 558 1912 
Q 366 2119 366 2438 
Q 366 2894 700 3153 
Q 1034 3413 1625 3413 
Q 1888 3413 2178 3344 
Q 2469 3275 2778 3144 
L 2778 2419 
L 2447 2419 
Q 2434 2741 2221 2922 
Q 2009 3103 1644 3103 
Q 1281 3103 1095 2975 
Q 909 2847 909 2591 
Q 909 2381 1050 2254 
Q 1191 2128 1613 1997 
L 2069 1856 
Q 2541 1709 2748 1489 
Q 2956 1269 2956 922 
Q 2956 450 2595 179 
Q 2234 -91 1600 -91 
Q 1278 -91 972 -22 
Q 666 47 359 184 
z
" transform="scale(0.015625)"/>
       <path id="DejaVuSerif-6f" d="M 1925 219 
Q 2388 219 2623 584 
Q 2859 950 2859 1663 
Q 2859 2375 2623 2739 
Q 2388 3103 1925 3103 
Q 1463 3103 1227 2739 
Q 991 2375 991 1663 
Q 991 950 1228 584 
Q 1466 219 1925 219 
z
M 1925 -91 
Q 1200 -91 759 389 
Q 319 869 319 1663 
Q 319 2456 758 2934 
Q 1197 3413 1925 3413 
Q 2653 3413 3092 2934 
Q 3531 2456 3531 1663 
Q 3531 869 3092 389 
Q 2653 -91 1925 -91 
z
" transform="scale(0.015625)"/>
       <path id="DejaVuSerif-28" d="M 2041 -997 
Q 1281 -656 893 83 
Q 506 822 506 1931 
Q 506 3044 893 3783 
Q 1281 4522 2041 4863 
L 2041 4556 
Q 1559 4225 1350 3623 
Q 1141 3022 1141 1931 
Q 1141 844 1350 242 
Q 1559 -359 2041 -691 
L 2041 -997 
z
" transform="scale(0.015625)"/>
       <path id="DejaVuSerif-2d" d="M 281 1959 
L 1881 1959 
L 1881 1472 
L 281 1472 
L 281 1959 
z
" transform="scale(0.015625)"/>
       <path id="DejaVuSerif-2e" d="M 603 325 
Q 603 500 722 622 
Q 841 744 1019 744 
Q 1191 744 1312 622 
Q 1434 500 1434 325 
Q 1434 153 1312 31 
Q 1191 -91 1019 -91 
Q 841 -91 722 29 
Q 603 150 603 325 
z
" transform="scale(0.015625)"/>
       <path id="DejaVuSerif-29" d="M 453 -997 
L 453 -691 
Q 934 -359 1145 242 
Q 1356 844 1356 1931 
Q 1356 3022 1145 3623 
Q 934 4225 453 4556 
L 453 4863 
Q 1216 4522 1603 3783 
Q 1991 3044 1991 1931 
Q 1991 822 1603 83 
Q 1216 -656 453 -997 
z
" transform="scale(0.015625)"/>
      </defs>
      <use xlink:href="#DejaVuSerif-54"/>
      <use xlink:href="#DejaVuSerif-68" transform="translate(66.699219 0)"/>
      <use xlink:href="#DejaVuSerif-72" transform="translate(131.103516 0)"/>
      <use xlink:href="#DejaVuSerif-65" transform="translate(178.90625 0)"/>
      <use xlink:href="#DejaVuSerif-73" transform="translate(238.085938 0)"/>
      <use xlink:href="#DejaVuSerif-68" transform="translate(289.404297 0)"/>
      <use xlink:href="#DejaVuSerif-6f" transform="translate(353.808594 0)"/>
      <use xlink:href="#DejaVuSerif-6c" transform="translate(414.013672 0)"/>
      <use xlink:href="#DejaVuSerif-64" transform="translate(445.996094 0)"/>
      <use xlink:href="#DejaVuSerif-20" transform="translate(510.009766 0)"/>
      <use xlink:href="#DejaVuSerif-28" transform="translate(541.796875 0)"/>
      <use xlink:href="#DejaVuSerif-2d" transform="translate(580.810547 0)"/>
      <use xlink:href="#DejaVuSerif-31" transform="translate(614.599609 0)"/>
      <use xlink:href="#DejaVuSerif-2e" transform="translate(678.222656 0)"/>
      <use xlink:href="#DejaVuSerif-32" transform="translate(710.009766 0)"/>
      <use xlink:href="#DejaVuSerif-29" transform="translate(773.632812 0)"/>
     </g>
    </g>
   </g>
  </g>
 </g>
 <defs>
  <clipPath id="p0658fbdcc2">
   <rect x="44.555937" y="39.713812" width="946.64125" height="343.41925"/>
  </clipPath>
 </defs>
</svg>
