<svg version="1.1" viewBox="0.0 0.0 959.7322834645669 369.62204724409446" fill="none" stroke="none" stroke-linecap="square" stroke-miterlimit="10" xmlns:xlink="http://www.w3.org/1999/xlink" xmlns="http://www.w3.org/2000/svg"><clipPath id="p.0"><path d="m0 0l959.7323 0l0 369.62204l-959.7323 0l0 -369.62204z" clip-rule="nonzero"/></clipPath><g clip-path="url(#p.0)"><path fill="#ffffff" d="m0 0l959.7323 0l0 369.62204l-959.7323 0z" fill-rule="evenodd"/><path fill="#000000" fill-opacity="0.0" d="m161.88583 162.64568l56.40944 0l0 35.55905l-56.40944 0z" fill-rule="evenodd"/><path fill="#000000" d="m189.10143 182.99254q0.328125 0 0.625 -0.0625q0.3125 -0.0625 0.625 -0.15625l0 1.46875q-0.328125 0.140625 -0.796875 0.234375q-0.46875 0.09375 -1.03125 0.09375q-0.640625 0 -1.171875 -0.203125q-0.515625 -0.21875 -0.8125 -0.734375q-0.296875 -0.53125 -0.296875 -1.46875l0 -3.5l-0.9375 0l0 -0.84375l1.09375 -0.65625l0.5625 -1.546875l1.265625 0l0 1.546875l2.046875 0l0 1.5l-2.046875 0l0 3.5q0 0.421875 0.234375 0.625q0.25 0.203125 0.640625 0.203125z" fill-rule="nonzero"/><path fill="#000000" d="m194.85568 188.00816q0 0.5 -0.234375 0.84375q-0.234375 0.328125 -0.703125 0.515625q-0.453125 0.171875 -1.140625 0.171875q-0.5 0 -0.859375 -0.078125q-0.359375 -0.0625 -0.734375 -0.203125l0 -1.09375q0.390625 0.171875 0.84375 0.296875q0.453125 0.109375 0.796875 0.109375q0.390625 0 0.546875 -0.109375q0.171875 -0.125 0.171875 -0.3125q0 -0.125 -0.0625 -0.21875q-0.0625 -0.09375 -0.296875 -0.21875q-0.21875 -0.125 -0.6875 -0.328125q-0.453125 -0.1875 -0.75 -0.375q-0.28125 -0.203125 -0.421875 -0.46875q-0.140625 -0.265625 -0.140625 -0.671875q0 -0.671875 0.515625 -1.015625q0.515625 -0.34375 1.390625 -0.34375q0.453125 0 0.859375 0.09375q0.421875 0.09375 0.84375 0.296875l-0.390625 0.953125q-0.359375 -0.15625 -0.6875 -0.25q-0.3125 -0.109375 -0.640625 -0.109375q-0.296875 0 -0.4375 0.078125q-0.140625 0.078125 -0.140625 0.234375q0 0.125 0.0625 0.21875q0.078125 0.078125 0.296875 0.1875q0.21875 0.109375 0.640625 0.28125q0.421875 0.171875 0.71875 0.359375q0.3125 0.1875 0.46875 0.453125q0.171875 0.265625 0.171875 0.703125z" fill-rule="nonzero"/><path fill="#000000" fill-opacity="0.0" d="m431.48425 162.15749l56.409454 0l0 35.55905l-56.409454 0z" fill-rule="evenodd"/><path fill="#000000" d="m458.69986 182.50435q0.328125 0 0.625 -0.0625q0.3125 -0.0625 0.625 -0.15625l0 1.46875q-0.328125 0.140625 -0.796875 0.234375q-0.46875 0.09375 -1.03125 0.09375q-0.640625 0 -1.171875 -0.203125q-0.515625 -0.21875 -0.8125 -0.734375q-0.296875 -0.53125 -0.296875 -1.46875l0 -3.5l-0.9375 0l0 -0.84375l1.09375 -0.65625l0.5625 -1.546875l1.265625 0l0 1.546875l2.046875 0l0 1.5l-2.046875 0l0 3.5q0 0.421875 0.234375 0.625q0.25 0.203125 0.640625 0.203125z" fill-rule="nonzero"/><path fill="#000000" d="m464.4541 187.51997q0 0.5 -0.234375 0.84375q-0.234375 0.328125 -0.703125 0.515625q-0.453125 0.171875 -1.140625 0.171875q-0.5 0 -0.859375 -0.078125q-0.359375 -0.0625 -0.734375 -0.203125l0 -1.09375q0.390625 0.171875 0.84375 0.296875q0.453125 0.109375 0.796875 0.109375q0.390625 0 0.546875 -0.109375q0.171875 -0.125 0.171875 -0.3125q0 -0.125 -0.0625 -0.21875q-0.0625 -0.09375 -0.296875 -0.21875q-0.21875 -0.125 -0.6875 -0.328125q-0.453125 -0.1875 -0.75 -0.375q-0.28125 -0.203125 -0.421875 -0.46875q-0.140625 -0.265625 -0.140625 -0.671875q0 -0.671875 0.515625 -1.015625q0.515625 -0.34375 1.390625 -0.34375q0.453125 0 0.859375 0.09375q0.421875 0.09375 0.84375 0.296875l-0.390625 0.953125q-0.359375 -0.15625 -0.6875 -0.25q-0.3125 -0.109375 -0.640625 -0.109375q-0.296875 0 -0.4375 0.078125q-0.140625 0.078125 -0.140625 0.234375q0 0.125 0.0625 0.21875q0.078125 0.078125 0.296875 0.1875q0.21875 0.109375 0.640625 0.28125q0.421875 0.171875 0.71875 0.359375q0.3125 0.1875 0.46875 0.453125q0.171875 0.265625 0.171875 0.703125z" fill-rule="nonzero"/><path fill="#000000" fill-opacity="0.0" d="m690.53937 162.15749l56.409424 0l0 35.55905l-56.409424 0z" fill-rule="evenodd"/><path fill="#000000" d="m717.75494 182.50435q0.328125 0 0.625 -0.0625q0.3125 -0.0625 0.625 -0.15625l0 1.46875q-0.328125 0.140625 -0.796875 0.234375q-0.46875 0.09375 -1.03125 0.09375q-0.640625 0 -1.171875 -0.203125q-0.515625 -0.21875 -0.8125 -0.734375q-0.296875 -0.53125 -0.296875 -1.46875l0 -3.5l-0.9375 0l0 -0.84375l1.09375 -0.65625l0.5625 -1.546875l1.265625 0l0 1.546875l2.046875 0l0 1.5l-2.046875 0l0 3.5q0 0.421875 0.234375 0.625q0.25 0.203125 0.640625 0.203125z" fill-rule="nonzero"/><path fill="#000000" d="m723.5092 187.51997q0 0.5 -0.234375 0.84375q-0.234375 0.328125 -0.703125 0.515625q-0.453125 0.171875 -1.140625 0.171875q-0.5 0 -0.859375 -0.078125q-0.359375 -0.0625 -0.734375 -0.203125l0 -1.09375q0.390625 0.171875 0.84375 0.296875q0.453125 0.109375 0.796875 0.109375q0.390625 0 0.546875 -0.109375q0.171875 -0.125 0.171875 -0.3125q0 -0.125 -0.0625 -0.21875q-0.0625 -0.09375 -0.296875 -0.21875q-0.21875 -0.125 -0.6875 -0.328125q-0.453125 -0.1875 -0.75 -0.375q-0.28125 -0.203125 -0.421875 -0.46875q-0.140625 -0.265625 -0.140625 -0.671875q0 -0.671875 0.515625 -1.015625q0.515625 -0.34375 1.390625 -0.34375q0.453125 0 0.859375 0.09375q0.421875 0.09375 0.84375 0.296875l-0.390625 0.953125q-0.359375 -0.15625 -0.6875 -0.25q-0.3125 -0.109375 -0.640625 -0.109375q-0.296875 0 -0.4375 0.078125q-0.140625 0.078125 -0.140625 0.234375q0 0.125 0.0625 0.21875q0.078125 0.078125 0.296875 0.1875q0.21875 0.109375 0.640625 0.28125q0.421875 0.171875 0.71875 0.359375q0.3125 0.1875 0.46875 0.453125q0.171875 0.265625 0.171875 0.703125z" fill-rule="nonzero"/><path fill="#000000" fill-opacity="0.0" d="m109.50787 195.12335l724.0 1.3228455" fill-rule="evenodd"/><path stroke="#ff9900" stroke-width="1.0" stroke-linejoin="round" stroke-linecap="butt" d="m109.50787 195.12335l724.0 1.3228455" fill-rule="evenodd"/><path fill="#cfe2f3" d="m110.20079 137.06299l88.69292 0l0 31.527557l-88.69292 0z" fill-rule="evenodd"/><path fill="#cfe2f3" d="m332.19553 152.81102l76.66144 0l0 15.779526l-76.66144 0z" fill-rule="evenodd"/><path fill="#cfe2f3" d="m142.48425 105.53543l56.409454 0l0 31.527557l-56.409454 0z" fill-rule="evenodd"/><path fill="#cfe2f3" d="m167.36613 74.00787l31.527573 0l0 31.527557l-31.527573 0z" fill-rule="evenodd"/><path fill="#ff9900" d="m197.8622 169.56693l134.3307 0l0 31.527557l-134.3307 0z" fill-rule="evenodd"/><path fill="#ff9900" d="m197.8622 201.09448l31.527573 0l0 31.527557l-31.527573 0z" fill-rule="evenodd"/><path fill="#ff9900" d="m252.79134 201.09448l45.669296 0l0 73.95276l-45.669296 0z" fill-rule="evenodd"/><path fill="#ff9900" d="m298.46063 201.09448l33.73227 0l0 54.23622l-33.73227 0z" fill-rule="evenodd"/><path fill="#cfe2f3" d="m344.77823 137.06299l64.09448 0l0 15.779526l-64.09448 0z" fill-rule="evenodd"/><path fill="#cfe2f3" d="m366.46063 105.53543l27.62204 0l0 31.527557l-27.62204 0z" fill-rule="evenodd"/><path fill="#ff9900" d="m471.04593 168.59055l114.48819 0l0 15.779526l-114.48819 0z" fill-rule="evenodd"/><path fill="#ff9900" d="m471.04593 184.37007l81.858246 0l0 31.527573l-81.858246 0z" fill-rule="evenodd"/><path fill="#ff9900" d="m551.374 184.37007l33.7323 0l0 15.779541l-33.7323 0z" fill-rule="evenodd"/><path fill="#ff9900" d="m494.59448 214.95276l45.66931 0l0 15.779526l-45.66931 0z" fill-rule="evenodd"/><path fill="#ff9900" d="m725.9068 170.10236l76.66144 0l0 31.527573l-76.66144 0z" fill-rule="evenodd"/><path fill="#ff9900" d="m725.9068 201.62993l27.62207 0l0 42.866135l-27.62207 0z" fill-rule="evenodd"/><path fill="#ff9900" d="m768.83594 201.62993l33.7323 0l0 15.779526l-33.7323 0z" fill-rule="evenodd"/><path fill="#ff9900" d="m753.5289 201.09448l15.307068 0l0 61.13385l-15.307068 0z" fill-rule="evenodd"/><path fill="#000000" fill-opacity="0.0" d="m109.21391 21.732283l0.9763794 317.38583" fill-rule="evenodd"/><path stroke="#000000" stroke-width="3.0" stroke-linejoin="round" stroke-linecap="butt" d="m109.26929 39.732197l0.8656235 281.386" fill-rule="evenodd"/><path fill="#000000" stroke="#000000" stroke-width="3.0" stroke-linecap="butt" d="m114.22446 39.716953l-4.997055 -13.598984l-4.913292 13.629471z" fill-rule="evenodd"/><path fill="#000000" stroke="#000000" stroke-width="3.0" stroke-linecap="butt" d="m105.17974 321.13345l4.997055 13.5989685l4.913292 -13.629456z" fill-rule="evenodd"/><path fill="#cfe2f3" d="m585.1063 157.74803l140.78735 0l0 10.8346405l-140.78735 0z" fill-rule="evenodd"/><path fill="#cfe2f3" d="m585.1063 147.40945l114.48816 0l0 10.8346405l-114.48816 0z" fill-rule="evenodd"/><path fill="#cfe2f3" d="m643.46063 86.27559l27.62207 0l0 61.133865l-27.62207 0z" fill-rule="evenodd"/><path fill="#cfe2f3" d="m585.1063 116.24147l27.62201 0l0 31.527557l-27.62201 0z" fill-rule="evenodd"/><path fill="#cfe2f3" d="m611.93304 126.20735l31.527588 0l0 21.196854l-31.527588 0z" fill-rule="evenodd"/><path fill="#000000" fill-opacity="0.0" d="m110.20079 168.59055l728.3779 0.9763794" fill-rule="evenodd"/><path stroke="#000000" stroke-width="3.0" stroke-linejoin="round" stroke-linecap="butt" d="m110.20079 168.59055l710.3779 0.95225525" fill-rule="evenodd"/><path fill="#000000" stroke="#000000" stroke-width="3.0" stroke-linecap="butt" d="m820.57214 174.49799l13.620911 -4.9369354l-13.607666 -4.9734497z" fill-rule="evenodd"/><path fill="#ffffff" d="m327.03543 169.07874l0 0c0 -2.9918976 2.3549194 -5.4173126 5.259857 -5.4173126l0 0c1.394989 0 2.7328491 0.57073975 3.7192688 1.5866852c0.98638916 1.0159454 1.5405579 2.3938751 1.5405579 3.8306274l0 0c0 2.9919128 -2.3549194 5.417328 -5.2598267 5.417328l0 0c-2.9049377 0 -5.259857 -2.425415 -5.259857 -5.417328z" fill-rule="evenodd"/><path stroke="#000000" stroke-width="1.0" stroke-linejoin="round" stroke-linecap="butt" d="m327.03543 169.07874l0 0c0 -2.9918976 2.3549194 -5.4173126 5.259857 -5.4173126l0 0c1.394989 0 2.7328491 0.57073975 3.7192688 1.5866852c0.98638916 1.0159454 1.5405579 2.3938751 1.5405579 3.8306274l0 0c0 2.9919128 -2.3549194 5.417328 -5.2598267 5.417328l0 0c-2.9049377 0 -5.259857 -2.425415 -5.259857 -5.417328z" fill-rule="evenodd"/><path fill="#ffffff" d="m580.19556 169.07874l0 0c0 -2.9918976 2.3549194 -5.4173126 5.2598267 -5.4173126l0 0c1.3950195 0 2.7328491 0.57073975 3.7192383 1.5866852c0.9864502 1.0159454 1.5405884 2.3938751 1.5405884 3.8306274l0 0c0 2.9919128 -2.3549194 5.417328 -5.2598267 5.417328l0 0c-2.9049072 0 -5.2598267 -2.425415 -5.2598267 -5.417328z" fill-rule="evenodd"/><path stroke="#000000" stroke-width="1.0" stroke-linejoin="round" stroke-linecap="butt" d="m580.19556 169.07874l0 0c0 -2.9918976 2.3549194 -5.4173126 5.2598267 -5.4173126l0 0c1.3950195 0 2.7328491 0.57073975 3.7192383 1.5866852c0.9864502 1.0159454 1.5405884 2.3938751 1.5405884 3.8306274l0 0c0 2.9919128 -2.3549194 5.417328 -5.2598267 5.417328l0 0c-2.9049072 0 -5.2598267 -2.425415 -5.2598267 -5.417328z" fill-rule="evenodd"/><path fill="#ffffff" d="m797.25854 169.07874l0 0c0 -2.9918976 2.3549194 -5.4173126 5.2598267 -5.4173126l0 0c1.3950195 0 2.7328491 0.57073975 3.7192993 1.5866852c0.98638916 1.0159454 1.5405273 2.3938751 1.5405273 3.8306274l0 0c0 2.9919128 -2.3549194 5.417328 -5.2598267 5.417328l0 0c-2.9049072 0 -5.2598267 -2.425415 -5.2598267 -5.417328z" fill-rule="evenodd"/><path stroke="#000000" stroke-width="1.0" stroke-linejoin="round" stroke-linecap="butt" d="m797.25854 169.07874l0 0c0 -2.9918976 2.3549194 -5.4173126 5.2598267 -5.4173126l0 0c1.3950195 0 2.7328491 0.57073975 3.7192993 1.5866852c0.98638916 1.0159454 1.5405273 2.3938751 1.5405273 3.8306274l0 0c0 2.9919128 -2.3549194 5.417328 -5.2598267 5.417328l0 0c-2.9049072 0 -5.2598267 -2.425415 -5.2598267 -5.417328z" fill-rule="evenodd"/><path fill="#000000" fill-opacity="0.0" d="m268.68503 196.65355l56.409454 0l0 40.40944l-56.409454 0z" fill-rule="evenodd"/><path fill="#000000" d="m292.21643 222.29355l-2.984375 -9.703125l-0.078125 0q0.015625 0.34375 0.046875 1.046875q0.046875 0.6875 0.078125 1.484375q0.046875 0.78125 0.046875 1.421875l0 5.75l-2.34375 0l0 -12.375l3.5625 0l2.9375 9.46875l0.046875 0l3.09375 -9.46875l3.578125 0l0 12.375l-2.4375 0l0 -5.859375q0 -0.578125 0.015625 -1.34375q0.015625 -0.765625 0.046875 -1.453125q0.046875 -0.6875 0.0625 -1.03125l-0.078125 0l-3.1875 9.6875l-2.40625 0z" fill-rule="nonzero"/><path fill="#000000" d="m306.52338 228.79355l-1.734375 0l0 -4.765625q0 -0.203125 0 -0.484375q0 -0.296875 0.015625 -0.59375q0.015625 -0.3125 0.03125 -0.5625q-0.0625 0.0625 -0.25 0.25q-0.1875 0.171875 -0.359375 0.3125l-0.953125 0.765625l-0.828125 -1.046875l2.65625 -2.125l1.421875 0l0 8.25z" fill-rule="nonzero"/><path fill="#000000" fill-opacity="0.0" d="m489.48032 187.92914l56.409454 0l0 40.40944l-56.409454 0z" fill-rule="evenodd"/><path fill="#000000" d="m513.0117 213.56914l-2.9844055 -9.703125l-0.078125 0q0.015625 0.34375 0.046875 1.046875q0.046875 0.6875 0.078125 1.484375q0.046875 0.78125 0.046875 1.421875l0 5.75l-2.34375 0l0 -12.375l3.5625 0l2.9375305 9.46875l0.046875 0l3.09375 -9.46875l3.578125 0l0 12.375l-2.4375 0l0 -5.859375q0 -0.578125 0.015625 -1.34375q0.015625 -0.765625 0.046875 -1.453125q0.046875 -0.6875 0.0625 -1.03125l-0.078125 0l-3.1875 9.6875l-2.40625 0z" fill-rule="nonzero"/><path fill="#000000" d="m528.7718 220.06914l-5.75 0l0 -1.21875l2.0625 -2.078125q0.625 -0.65625 1.0 -1.078125q0.390625 -0.4375 0.5625 -0.78125q0.171875 -0.359375 0.171875 -0.765625q0 -0.5 -0.28125 -0.734375q-0.265625 -0.25 -0.71875 -0.25q-0.484375 0 -0.9375 0.21875q-0.453125 0.21875 -0.9375 0.625l-0.953125 -1.125q0.359375 -0.296875 0.75 -0.5625q0.40625 -0.28125 0.921875 -0.4375q0.53125 -0.171875 1.28125 -0.171875q0.796875 0 1.375 0.296875q0.59375 0.28125 0.90625 0.796875q0.328125 0.5 0.328125 1.140625q0 0.671875 -0.28125 1.25q-0.265625 0.5625 -0.78125 1.109375q-0.515625 0.546875 -1.25 1.21875l-1.046875 1.0l0 0.078125l3.578125 0l0 1.46875z" fill-rule="nonzero"/><path fill="#000000" fill-opacity="0.0" d="m721.6011 189.31496l56.409424 0l0 40.409454l-56.409424 0z" fill-rule="evenodd"/><path fill="#000000" d="m745.13245 214.95496l-2.984375 -9.703125l-0.078125 0q0.015625 0.34375 0.046875 1.046875q0.046875 0.6875 0.078125 1.484375q0.046875 0.78125 0.046875 1.421875l0 5.75l-2.34375 0l0 -12.375l3.5625 0l2.9375 9.46875l0.046875 0l3.09375 -9.46875l3.578125 0l0 12.375l-2.4375 0l0 -5.859375q0 -0.578125 0.015625 -1.34375q0.015625 -0.765625 0.046875 -1.453125q0.046875 -0.6875 0.0625 -1.03125l-0.078125 0l-3.1875 9.6875l-2.40625 0z" fill-rule="nonzero"/><path fill="#000000" d="m760.58 215.0487q0 0.578125 -0.25 1.0q-0.234375 0.40625 -0.640625 0.671875q-0.390625 0.265625 -0.890625 0.390625l0 0.03125q0.984375 0.125 1.5 0.609375q0.515625 0.484375 0.515625 1.296875q0 0.71875 -0.359375 1.296875q-0.34375 0.5625 -1.078125 0.890625q-0.734375 0.328125 -1.890625 0.328125q-0.671875 0 -1.265625 -0.109375q-0.59375 -0.109375 -1.109375 -0.328125l0 -1.484375q0.53125 0.265625 1.109375 0.40625q0.578125 0.140625 1.09375 0.140625q0.921875 0 1.296875 -0.328125q0.375 -0.328125 0.375 -0.90625q0 -0.34375 -0.171875 -0.578125q-0.171875 -0.25 -0.609375 -0.359375q-0.421875 -0.125 -1.203125 -0.125l-0.625 0l0 -1.34375l0.640625 0q0.765625 0 1.15625 -0.140625q0.40625 -0.140625 0.546875 -0.390625q0.140625 -0.25 0.140625 -0.578125q0 -0.4375 -0.28125 -0.6875q-0.265625 -0.25 -0.890625 -0.25q-0.390625 0 -0.71875 0.109375q-0.328125 0.09375 -0.59375 0.234375q-0.25 0.125 -0.453125 0.265625l-0.796875 -1.203125q0.484375 -0.359375 1.125 -0.578125q0.65625 -0.234375 1.5625 -0.234375q1.28125 0 2.015625 0.515625q0.75 0.515625 0.75 1.4375z" fill-rule="nonzero"/><path fill="#000000" fill-opacity="0.0" d="m315.85303 162.64568l56.409454 0l0 35.55905l-56.409454 0z" fill-rule="evenodd"/><path fill="#000000" d="m342.6526 182.99254q0.328125 0 0.625 -0.0625q0.3125 -0.0625 0.625 -0.15625l0 1.46875q-0.328125 0.140625 -0.796875 0.234375q-0.46875 0.09375 -1.03125 0.09375q-0.640625 0 -1.171875 -0.203125q-0.515625 -0.21875 -0.8125 -0.734375q-0.296875 -0.53125 -0.296875 -1.46875l0 -3.5l-0.9375 0l0 -0.84375l1.09375 -0.65625l0.5625 -1.546875l1.265625 0l0 1.546875l2.046875 0l0 1.5l-2.046875 0l0 3.5q0 0.421875 0.234375 0.625q0.25 0.203125 0.640625 0.203125z" fill-rule="nonzero"/><path fill="#000000" d="m347.01624 184.50816q0.671875 0 1.15625 0.265625q0.484375 0.25 0.75 0.75q0.265625 0.484375 0.265625 1.1875l0 0.640625l-3.125 0q0.03125 0.5625 0.34375 0.890625q0.3125 0.3125 0.875 0.3125q0.453125 0 0.84375 -0.09375q0.390625 -0.109375 0.796875 -0.296875l0 1.03125q-0.359375 0.171875 -0.765625 0.25q-0.390625 0.09375 -0.9375 0.09375q-0.734375 0 -1.296875 -0.265625q-0.5625 -0.28125 -0.875 -0.828125q-0.3125 -0.546875 -0.3125 -1.390625q0 -0.84375 0.28125 -1.40625q0.28125 -0.578125 0.796875 -0.859375q0.515625 -0.28125 1.203125 -0.28125zm0.015625 0.9375q-0.390625 0 -0.640625 0.25q-0.25 0.25 -0.296875 0.78125l1.859375 0q0 -0.296875 -0.109375 -0.53125q-0.09375 -0.234375 -0.296875 -0.359375q-0.203125 -0.140625 -0.515625 -0.140625z" fill-rule="nonzero"/><path fill="#000000" fill-opacity="0.0" d="m566.853 162.64568l56.409424 0l0 35.55905l-56.409424 0z" fill-rule="evenodd"/><path fill="#000000" d="m593.6526 182.99254q0.328125 0 0.625 -0.0625q0.3125 -0.0625 0.625 -0.15625l0 1.46875q-0.328125 0.140625 -0.796875 0.234375q-0.46875 0.09375 -1.03125 0.09375q-0.640625 0 -1.171875 -0.203125q-0.515625 -0.21875 -0.8125 -0.734375q-0.296875 -0.53125 -0.296875 -1.46875l0 -3.5l-0.9375 0l0 -0.84375l1.09375 -0.65625l0.5625 -1.546875l1.265625 0l0 1.546875l2.046875 0l0 1.5l-2.046875 0l0 3.5q0 0.421875 0.234375 0.625q0.25 0.203125 0.640625 0.203125z" fill-rule="nonzero"/><path fill="#000000" d="m598.01624 184.50816q0.671875 0 1.15625 0.265625q0.484375 0.25 0.75 0.75q0.265625 0.484375 0.265625 1.1875l0 0.640625l-3.125 0q0.03125 0.5625 0.34375 0.890625q0.3125 0.3125 0.875 0.3125q0.453125 0 0.84375 -0.09375q0.390625 -0.109375 0.796875 -0.296875l0 1.03125q-0.359375 0.171875 -0.765625 0.25q-0.390625 0.09375 -0.9375 0.09375q-0.734375 0 -1.296875 -0.265625q-0.5625 -0.28125 -0.875 -0.828125q-0.3125 -0.546875 -0.3125 -1.390625q0 -0.84375 0.28125 -1.40625q0.28125 -0.578125 0.796875 -0.859375q0.515625 -0.28125 1.203125 -0.28125zm0.015625 0.9375q-0.390625 0 -0.640625 0.25q-0.25 0.25 -0.296875 0.78125l1.859375 0q0 -0.296875 -0.109375 -0.53125q-0.09375 -0.234375 -0.296875 -0.359375q-0.203125 -0.140625 -0.515625 -0.140625z" fill-rule="nonzero"/><path fill="#000000" fill-opacity="0.0" d="m782.1693 162.64568l56.409424 0l0 35.55905l-56.409424 0z" fill-rule="evenodd"/><path fill="#000000" d="m808.9689 182.99254q0.328125 0 0.625 -0.0625q0.3125 -0.0625 0.625 -0.15625l0 1.46875q-0.328125 0.140625 -0.796875 0.234375q-0.46875 0.09375 -1.03125 0.09375q-0.640625 0 -1.171875 -0.203125q-0.515625 -0.21875 -0.8125 -0.734375q-0.296875 -0.53125 -0.296875 -1.46875l0 -3.5l-0.9375 0l0 -0.84375l1.09375 -0.65625l0.5625 -1.546875l1.265625 0l0 1.546875l2.046875 0l0 1.5l-2.046875 0l0 3.5q0 0.421875 0.234375 0.625q0.25 0.203125 0.640625 0.203125z" fill-rule="nonzero"/><path fill="#000000" d="m813.3325 184.50816q0.671875 0 1.15625 0.265625q0.484375 0.25 0.75 0.75q0.265625 0.484375 0.265625 1.1875l0 0.640625l-3.125 0q0.03125 0.5625 0.34375 0.890625q0.3125 0.3125 0.875 0.3125q0.453125 0 0.84375 -0.09375q0.390625 -0.109375 0.796875 -0.296875l0 1.03125q-0.359375 0.171875 -0.765625 0.25q-0.390625 0.09375 -0.9375 0.09375q-0.734375 0 -1.296875 -0.265625q-0.5625 -0.28125 -0.875 -0.828125q-0.3125 -0.546875 -0.3125 -1.390625q0 -0.84375 0.28125 -1.40625q0.28125 -0.578125 0.796875 -0.859375q0.515625 -0.28125 1.203125 -0.28125zm0.015625 0.9375q-0.390625 0 -0.640625 0.25q-0.25 0.25 -0.296875 0.78125l1.859375 0q0 -0.296875 -0.109375 -0.53125q-0.09375 -0.234375 -0.296875 -0.359375q-0.203125 -0.140625 -0.515625 -0.140625z" fill-rule="nonzero"/><path fill="#000000" fill-opacity="0.0" d="m327.72833 189.29659l140.78741 0l0 32.314957l-140.78741 0z" fill-rule="evenodd"/><path fill="#000000" d="m360.0641 208.53659l-1.609375 0l0 -6.265625l-2.0625 0l0 -1.34375l5.734375 0l0 1.34375l-2.0625 0l0 6.265625zm4.702301 -8.09375l0 1.640625q0 0.4375 -0.03125 0.828125q-0.03125 0.390625 -0.046875 0.546875l0.09375 0q0.1875 -0.296875 0.4375 -0.484375q0.25 -0.1875 0.5625 -0.265625q0.3125 -0.09375 0.671875 -0.09375q0.640625 0 1.109375 0.21875q0.46875 0.21875 0.71875 0.6875q0.265625 0.46875 0.265625 1.21875l0 3.796875l-1.59375 0l0 -3.390625q0 -0.625 -0.234375 -0.9375q-0.21875 -0.328125 -0.703125 -0.328125q-0.46875 0 -0.75 0.21875q-0.265625 0.21875 -0.390625 0.65625q-0.109375 0.421875 -0.109375 1.046875l0 2.734375l-1.59375 0l0 -8.09375l1.59375 0zm8.659821 2.171875q0.125 0 0.28125 0.015625q0.15625 0 0.25 0.03125l-0.109375 1.484375q-0.078125 -0.03125 -0.234375 -0.03125q-0.140625 -0.015625 -0.234375 -0.015625q-0.3125 0 -0.609375 0.078125q-0.28125 0.078125 -0.515625 0.25q-0.21875 0.171875 -0.359375 0.453125q-0.125 0.28125 -0.125 0.703125l0 2.953125l-1.59375 0l0 -5.8125l1.203125 0l0.234375 0.96875l0.078125 0q0.171875 -0.296875 0.421875 -0.53125q0.265625 -0.25 0.59375 -0.390625q0.328125 -0.15625 0.71875 -0.15625zm3.9952698 0q0.796875 0 1.375 0.3125q0.59375 0.296875 0.90625 0.890625q0.328125 0.59375 0.328125 1.4375l0 0.765625l-3.75 0q0.015625 0.671875 0.390625 1.0625q0.375 0.375 1.046875 0.375q0.5625 0 1.015625 -0.109375q0.46875 -0.125 0.96875 -0.34375l0 1.21875q-0.4375 0.21875 -0.90625 0.3125q-0.46875 0.109375 -1.140625 0.109375q-0.875 0 -1.546875 -0.328125q-0.671875 -0.328125 -1.0625 -0.984375q-0.375 -0.65625 -0.375 -1.65625q0 -1.03125 0.34375 -1.703125q0.34375 -0.6875 0.953125 -1.015625q0.625 -0.34375 1.453125 -0.34375zm0 1.125q-0.453125 0 -0.765625 0.296875q-0.296875 0.296875 -0.34375 0.9375l2.21875 0q0 -0.359375 -0.125 -0.625q-0.125 -0.28125 -0.375 -0.4375q-0.234375 -0.171875 -0.609375 -0.171875zm7.952179 3.0625q0 0.59375 -0.28125 1.015625q-0.28125 0.40625 -0.828125 0.625q-0.546875 0.203125 -1.375 0.203125q-0.609375 0 -1.046875 -0.078125q-0.421875 -0.078125 -0.875 -0.265625l0 -1.3125q0.484375 0.21875 1.015625 0.359375q0.546875 0.125 0.96875 0.125q0.453125 0 0.65625 -0.125q0.203125 -0.140625 0.203125 -0.375q0 -0.140625 -0.09375 -0.25q-0.078125 -0.125 -0.34375 -0.265625q-0.25 -0.15625 -0.828125 -0.390625q-0.546875 -0.234375 -0.90625 -0.46875q-0.34375 -0.234375 -0.515625 -0.546875q-0.15625 -0.328125 -0.15625 -0.8125q0 -0.8125 0.625 -1.21875q0.625 -0.40625 1.671875 -0.40625q0.546875 0 1.03125 0.109375q0.5 0.109375 1.015625 0.34375l-0.484375 1.140625q-0.421875 -0.1875 -0.8125 -0.296875q-0.375 -0.125 -0.78125 -0.125q-0.34375 0 -0.515625 0.09375q-0.171875 0.09375 -0.171875 0.28125q0 0.140625 0.078125 0.25q0.09375 0.109375 0.359375 0.25q0.265625 0.125 0.765625 0.34375q0.5 0.203125 0.859375 0.421875q0.375 0.21875 0.5625 0.546875q0.203125 0.3125 0.203125 0.828125zm2.8281555 -6.359375l0 1.640625q0 0.4375 -0.03125 0.828125q-0.03125 0.390625 -0.046875 0.546875l0.09375 0q0.1875 -0.296875 0.4375 -0.484375q0.25 -0.1875 0.5625 -0.265625q0.3125 -0.09375 0.671875 -0.09375q0.640625 0 1.109375 0.21875q0.46875 0.21875 0.71875 0.6875q0.265625 0.46875 0.265625 1.21875l0 3.796875l-1.59375 0l0 -3.390625q0 -0.625 -0.234375 -0.9375q-0.21875 -0.328125 -0.703125 -0.328125q-0.46875 0 -0.75 0.21875q-0.265625 0.21875 -0.390625 0.65625q-0.109375 0.421875 -0.109375 1.046875l0 2.734375l-1.59375 0l0 -8.09375l1.59375 0zm10.706696 5.171875q0 0.734375 -0.203125 1.296875q-0.1875 0.5625 -0.5625 0.953125q-0.375 0.375 -0.90625 0.578125q-0.515625 0.203125 -1.171875 0.203125q-0.609375 0 -1.125 -0.203125q-0.515625 -0.203125 -0.890625 -0.578125q-0.375 -0.390625 -0.578125 -0.953125q-0.203125 -0.5625 -0.203125 -1.296875q0 -0.96875 0.34375 -1.640625q0.34375 -0.671875 0.96875 -1.015625q0.640625 -0.34375 1.515625 -0.34375q0.8125 0 1.4375 0.34375q0.640625 0.34375 1.0 1.015625q0.375 0.671875 0.375 1.640625zm-4.03125 0q0 0.578125 0.125 0.96875q0.125 0.390625 0.390625 0.59375q0.265625 0.1875 0.6875 0.1875q0.421875 0 0.6875 -0.1875q0.265625 -0.203125 0.390625 -0.59375q0.125 -0.390625 0.125 -0.96875q0 -0.578125 -0.125 -0.953125q-0.125 -0.390625 -0.390625 -0.578125q-0.265625 -0.1875 -0.6875 -0.1875q-0.625 0 -0.921875 0.4375q-0.28125 0.421875 -0.28125 1.28125zm6.9258423 2.921875l-1.59375 0l0 -8.09375l1.59375 0l0 8.09375zm3.5020447 0.109375q-0.96875 0 -1.578125 -0.765625q-0.609375 -0.765625 -0.609375 -2.234375q0 -1.5 0.609375 -2.265625q0.625 -0.765625 1.625 -0.765625q0.40625 0 0.71875 0.109375q0.328125 0.109375 0.5625 0.3125q0.234375 0.1875 0.390625 0.421875l0.046875 0q-0.03125 -0.15625 -0.078125 -0.484375q-0.03125 -0.328125 -0.03125 -0.671875l0 -1.859375l1.59375 0l0 8.09375l-1.21875 0l-0.3125 -0.75l-0.0625 0q-0.15625 0.234375 -0.390625 0.4375q-0.21875 0.1875 -0.53125 0.3125q-0.3125 0.109375 -0.734375 0.109375zm0.5625 -1.265625q0.640625 0 0.90625 -0.390625q0.28125 -0.390625 0.296875 -1.171875l0 -0.171875q0 -0.84375 -0.265625 -1.296875q-0.265625 -0.453125 -0.96875 -0.453125q-0.53125 0 -0.828125 0.453125q-0.28125 0.453125 -0.28125 1.3125q0 0.84375 0.296875 1.28125q0.296875 0.4375 0.84375 0.4375zm7.2302856 1.15625l0 -7.609375l1.625 0l0 6.28125l3.078125 0l0 1.328125l-4.703125 0zm8.301392 -5.921875q0.796875 0 1.375 0.3125q0.59375 0.296875 0.90625 0.890625q0.328125 0.59375 0.328125 1.4375l0 0.765625l-3.75 0q0.015625 0.671875 0.390625 1.0625q0.375 0.375 1.046875 0.375q0.5625 0 1.015625 -0.109375q0.46875 -0.125 0.96875 -0.34375l0 1.21875q-0.4375 0.21875 -0.90625 0.3125q-0.46875 0.109375 -1.140625 0.109375q-0.875 0 -1.546875 -0.328125q-0.671875 -0.328125 -1.0625 -0.984375q-0.375 -0.65625 -0.375 -1.65625q0 -1.03125 0.34375 -1.703125q0.34375 -0.6875 0.953125 -1.015625q0.625 -0.34375 1.453125 -0.34375zm0 1.125q-0.453125 0 -0.765625 0.296875q-0.296875 0.296875 -0.34375 0.9375l2.21875 0q0 -0.359375 -0.125 -0.625q-0.125 -0.28125 -0.375 -0.4375q-0.234375 -0.171875 -0.609375 -0.171875zm5.280304 4.796875l-2.21875 -5.8125l1.65625 0l1.125 3.3125q0.09375 0.28125 0.140625 0.609375q0.0625 0.328125 0.078125 0.578125l0.046875 0q0.015625 -0.28125 0.078125 -0.59375q0.0625 -0.3125 0.15625 -0.59375l1.125 -3.3125l1.65625 0l-2.21875 5.8125l-1.625 0zm7.077423 -5.921875q0.796875 0 1.375 0.3125q0.59375 0.296875 0.90625 0.890625q0.328125 0.59375 0.328125 1.4375l0 0.765625l-3.75 0q0.015625 0.671875 0.390625 1.0625q0.375 0.375 1.046875 0.375q0.5625 0 1.015625 -0.109375q0.46875 -0.125 0.96875 -0.34375l0 1.21875q-0.4375 0.21875 -0.90625 0.3125q-0.46875 0.109375 -1.140625 0.109375q-0.875 0 -1.546875 -0.328125q-0.671875 -0.328125 -1.0625 -0.984375q-0.375 -0.65625 -0.375 -1.65625q0 -1.03125 0.34375 -1.703125q0.34375 -0.6875 0.953125 -1.015625q0.625 -0.34375 1.453125 -0.34375zm0 1.125q-0.453125 0 -0.765625 0.296875q-0.296875 0.296875 -0.34375 0.9375l2.21875 0q0 -0.359375 -0.125 -0.625q-0.125 -0.28125 -0.375 -0.4375q-0.234375 -0.171875 -0.609375 -0.171875zm5.483429 4.796875l-1.59375 0l0 -8.09375l1.59375 0l0 8.09375z" fill-rule="nonzero"/><path fill="#000000" fill-opacity="0.0" d="m74.63123 151.29921l33.732285 0l0 35.55905l-33.732285 0z" fill-rule="evenodd"/><path fill="#000000" d="m94.28986 173.09921l-2.296875 0l-2.21875 -3.59375l-2.21875 3.59375l-2.15625 0l3.15625 -4.90625l-2.953125 -4.609375l2.21875 0l2.0625 3.421875l2.0 -3.421875l2.171875 0l-2.984375 4.71875l3.21875 4.796875z" fill-rule="nonzero"/><path fill="#000000" d="m99.038994 174.92734q0 0.765625 -0.125 1.375q-0.109375 0.59375 -0.375 1.015625q-0.265625 0.421875 -0.6875 0.65625q-0.421875 0.21875 -1.03125 0.21875q-0.765625 0 -1.265625 -0.390625q-0.484375 -0.390625 -0.71875 -1.125q-0.21875 -0.734375 -0.21875 -1.75q0 -1.015625 0.203125 -1.75q0.21875 -0.734375 0.703125 -1.125q0.484375 -0.390625 1.296875 -0.390625q0.765625 0 1.25 0.390625q0.484375 0.390625 0.71875 1.125q0.25 0.71875 0.25 1.75zm-3.09375 0q0 0.734375 0.078125 1.21875q0.078125 0.46875 0.265625 0.71875q0.1875 0.234375 0.53125 0.234375q0.328125 0 0.515625 -0.234375q0.203125 -0.234375 0.28125 -0.71875q0.09375 -0.484375 0.09375 -1.21875q0 -0.71875 -0.09375 -1.203125q-0.078125 -0.484375 -0.28125 -0.734375q-0.1875 -0.25 -0.515625 -0.25q-0.34375 0 -0.53125 0.25q-0.1875 0.25 -0.265625 0.734375q-0.078125 0.484375 -0.078125 1.203125z" fill-rule="nonzero"/><path fill="#000000" fill-opacity="0.0" d="m74.63123 42.632545l33.732285 0l0 35.55906l-33.732285 0z" fill-rule="evenodd"/><path fill="#000000" d="m95.51191 64.43255l-2.296875 0l-2.21875 -3.5937538l-2.21875 3.5937538l-2.15625 0l3.15625 -4.906254l-2.953125 -4.609375l2.21875 0l2.0625 3.421875l2.0 -3.421875l2.171875 0l-2.984375 4.71875l3.21875 4.796879z" fill-rule="nonzero"/><path fill="#000000" d="m98.245415 68.4638q0.21875 0 0.421875 -0.03125q0.203125 -0.046875 0.40625 -0.125l0 0.984375q-0.203125 0.109375 -0.53125 0.171875q-0.3125 0.0625 -0.671875 0.0625q-0.4375 0 -0.78125 -0.140625q-0.34375 -0.140625 -0.546875 -0.484375q-0.1875 -0.359375 -0.1875 -0.984375l0 -2.34375l-0.640625 0l0 -0.546875l0.734375 -0.453125l0.375 -1.0156288l0.84375 0l0 1.0312538l1.359375 0l0 0.984375l-1.359375 0l0 2.34375q0 0.28125 0.15625 0.421875q0.15625 0.125 0.421875 0.125z" fill-rule="nonzero"/><path fill="#000000" fill-opacity="0.0" d="m472.8727 141.48819l111.87399 0.50393677" fill-rule="evenodd"/><path stroke="#000000" stroke-width="1.0" stroke-linejoin="round" stroke-linecap="butt" d="m478.87265 141.51521l99.874115 0.44989014" fill-rule="evenodd"/><path fill="#000000" stroke="#000000" stroke-width="1.0" stroke-linecap="butt" d="m478.8801 139.8635l-4.5455017 1.6312866l4.530609 1.6721497z" fill-rule="evenodd"/><path fill="#000000" stroke="#000000" stroke-width="1.0" stroke-linecap="butt" d="m578.7393 143.61682l4.545532 -1.6312866l-4.5306396 -1.6721497z" fill-rule="evenodd"/><path fill="#000000" fill-opacity="0.0" d="m500.9987 101.58268l56.409454 0l0 40.409447l-56.409454 0z" fill-rule="evenodd"/><path fill="#000000" d="m531.30133 120.925804q0 2.078125 -0.796875 3.484375q-0.796875 1.40625 -2.3125 2.109375q-1.515625 0.703125 -3.640625 0.703125l-3.5 0l0 -12.375l3.875 0q1.953125 0 3.375 0.703125q1.4375 0.6875 2.21875 2.03125q0.78125 1.34375 0.78125 3.34375zm-2.71875 0.0625q0 -1.375 -0.40625 -2.25q-0.390625 -0.890625 -1.1875 -1.3125q-0.78125 -0.421875 -1.921875 -0.421875l-1.390625 0l0 8.046875l1.125 0q1.90625 0 2.84375 -1.015625q0.9375 -1.03125 0.9375 -3.046875z" fill-rule="nonzero"/><path fill="#000000" d="m538.5345 133.72267l-5.75 0l0 -1.21875l2.0625 -2.078125q0.625 -0.65625 1.0 -1.078125q0.390625 -0.4375 0.5625 -0.78125q0.171875 -0.359375 0.171875 -0.7656174q0 -0.5 -0.28125 -0.734375q-0.265625 -0.25 -0.71875 -0.25q-0.484375 0 -0.9375 0.21875q-0.453125 0.21875 -0.9375 0.625l-0.953125 -1.125q0.359375 -0.296875 0.75 -0.5625q0.40625 -0.28125 0.921875 -0.4375q0.53125 -0.171875 1.28125 -0.171875q0.796875 0 1.375 0.296875q0.59375 0.28125 0.90625 0.796875q0.328125 0.5 0.328125 1.140625q0 0.6718674 -0.28125 1.2499924q-0.265625 0.5625 -0.78125 1.109375q-0.515625 0.546875 -1.25 1.21875l-1.046875 1.0l0 0.078125l3.578125 0l0 1.46875z" fill-rule="nonzero"/><path fill="#000000" fill-opacity="0.0" d="m197.62599 142.7231l134.55116 0.50393677" fill-rule="evenodd"/><path stroke="#000000" stroke-width="1.0" stroke-linejoin="round" stroke-linecap="butt" d="m203.62595 142.74557l122.55127 0.45898438" fill-rule="evenodd"/><path fill="#000000" stroke="#000000" stroke-width="1.0" stroke-linecap="butt" d="m203.63213 141.09384l-4.5442505 1.6347351l4.5318756 1.6687164z" fill-rule="evenodd"/><path fill="#000000" stroke="#000000" stroke-width="1.0" stroke-linecap="butt" d="m326.17102 144.85628l4.5442505 -1.6347198l-4.531891 -1.6687164z" fill-rule="evenodd"/><path fill="#000000" fill-opacity="0.0" d="m236.69685 103.31628l56.40944 0l0 40.409447l-56.40944 0z" fill-rule="evenodd"/><path fill="#000000" d="m266.9995 122.6594q0 2.078125 -0.796875 3.484375q-0.796875 1.40625 -2.3125 2.1093674q-1.515625 0.703125 -3.640625 0.703125l-3.5 0l0 -12.374992l3.875 0q1.953125 0 3.375 0.703125q1.4375 0.6875 2.21875 2.03125q0.78125 1.34375 0.78125 3.34375zm-2.71875 0.0625q0 -1.375 -0.40625 -2.25q-0.390625 -0.890625 -1.1875 -1.3125q-0.78125 -0.421875 -1.921875 -0.421875l-1.390625 0l0 8.046875l1.125 0q1.90625 0 2.84375 -1.015625q0.9375 -1.03125 0.9375 -3.046875z" fill-rule="nonzero"/><path fill="#000000" d="m272.7795 135.45627l-1.734375 0l0 -4.765625q0 -0.203125 0 -0.484375q0 -0.296875 0.015625 -0.59375q0.015625 -0.3125 0.03125 -0.5625q-0.0625 0.0625 -0.25 0.25q-0.1875 0.171875 -0.359375 0.3125l-0.953125 0.765625l-0.828125 -1.046875l2.65625 -2.1249924l1.421875 0l0 8.249992z" fill-rule="nonzero"/><path fill="#000000" fill-opacity="0.0" d="m729.5446 141.48819l74.078735 0.50393677" fill-rule="evenodd"/><path stroke="#000000" stroke-width="1.0" stroke-linejoin="round" stroke-linecap="butt" d="m735.54443 141.529l62.0791 0.42230225" fill-rule="evenodd"/><path fill="#000000" stroke="#000000" stroke-width="1.0" stroke-linecap="butt" d="m735.5557 139.8773l-4.5492554 1.6208344l4.5267944 1.6825562z" fill-rule="evenodd"/><path fill="#000000" stroke="#000000" stroke-width="1.0" stroke-linecap="butt" d="m797.61224 143.60301l4.5492554 -1.6208344l-4.5267944 -1.6825562z" fill-rule="evenodd"/><path fill="#000000" fill-opacity="0.0" d="m742.57874 101.58268l56.409424 0l0 40.409447l-56.409424 0z" fill-rule="evenodd"/><path fill="#000000" d="m772.8814 120.925804q0 2.078125 -0.796875 3.484375q-0.796875 1.40625 -2.3125 2.109375q-1.515625 0.703125 -3.640625 0.703125l-3.5 0l0 -12.375l3.875 0q1.953125 0 3.375 0.703125q1.4375 0.6875 2.21875 2.03125q0.78125 1.34375 0.78125 3.34375zm-2.71875 0.0625q0 -1.375 -0.40625 -2.25q-0.390625 -0.890625 -1.1875 -1.3125q-0.78125 -0.421875 -1.921875 -0.421875l-1.390625 0l0 8.046875l1.125 0q1.90625 0 2.84375 -1.015625q0.9375 -1.03125 0.9375 -3.046875z" fill-rule="nonzero"/><path fill="#000000" d="m779.802 127.31643q0 0.578125 -0.25 0.9999924q-0.234375 0.40625 -0.640625 0.671875q-0.390625 0.265625 -0.890625 0.390625l0 0.03125q0.984375 0.125 1.5 0.609375q0.515625 0.484375 0.515625 1.296875q0 0.71875 -0.359375 1.296875q-0.34375 0.5625 -1.078125 0.890625q-0.734375 0.328125 -1.890625 0.328125q-0.671875 0 -1.265625 -0.109375q-0.59375 -0.109375 -1.109375 -0.328125l0 -1.484375q0.53125 0.265625 1.109375 0.40625q0.578125 0.140625 1.09375 0.140625q0.921875 0 1.296875 -0.328125q0.375 -0.328125 0.375 -0.90625q0 -0.34375 -0.171875 -0.578125q-0.171875 -0.25 -0.609375 -0.359375q-0.421875 -0.125 -1.203125 -0.125l-0.625 0l0 -1.34375l0.640625 0q0.765625 0 1.15625 -0.140625q0.40625 -0.140625 0.546875 -0.390625q0.140625 -0.25 0.140625 -0.5781174q0 -0.4375 -0.28125 -0.6875q-0.265625 -0.25 -0.890625 -0.25q-0.390625 0 -0.71875 0.109375q-0.328125 0.09375 -0.59375 0.234375q-0.25 0.125 -0.453125 0.265625l-0.796875 -1.203125q0.484375 -0.359375 1.125 -0.578125q0.65625 -0.234375 1.5625 -0.234375q1.28125 0 2.015625 0.515625q0.75 0.515625 0.75 1.4375z" fill-rule="nonzero"/><path fill="#000000" fill-opacity="0.0" d="m472.4146 268.91602l107.77954 0l0 40.409454l-107.77954 0z" fill-rule="evenodd"/><path fill="#000000" d="m506.33023 294.556l-7.125 0l0 -12.375l7.125 0l0 2.15625l-4.5 0l0 2.71875l4.1875 0l0 2.140625l-4.1875 0l0 3.1875l4.5 0l0 2.171875zm4.626648 0l-3.609375 -9.453125l2.703125 0l1.828125 5.390625q0.14065552 0.46875 0.23440552 1.0q0.09375 0.515625 0.125 0.9375l0.0625 0q0.03125 -0.453125 0.125 -0.953125q0.09375 -0.515625 0.265625 -0.984375l1.8125 -5.390625l2.703125 0l-3.609375 9.453125l-2.6406555 0zm11.497711 -9.640625q1.3125 0 2.265625 0.515625q0.953125 0.5 1.46875 1.453125q0.515625 0.953125 0.515625 2.328125l0 1.25l-6.109375 0q0.046875 1.09375 0.65625 1.71875q0.609375 0.625 1.703125 0.625q0.90625 0 1.65625 -0.1875q0.765625 -0.1875 1.546875 -0.5625l0 2.0q-0.6875 0.34375 -1.46875 0.5q-0.765625 0.171875 -1.84375 0.171875q-1.421875 0 -2.53125 -0.515625q-1.09375 -0.53125 -1.71875 -1.609375q-0.609375 -1.078125 -0.609375 -2.703125q0 -1.671875 0.5625 -2.765625q0.5625 -1.109375 1.5625 -1.65625q1.015625 -0.5625 2.34375 -0.5625zm0.015625 1.84375q-0.75 0 -1.25 0.484375q-0.484375 0.46875 -0.5625 1.515625l3.625 0q-0.015625 -0.578125 -0.21875 -1.03125q-0.1875 -0.453125 -0.59375 -0.703125q-0.390625 -0.265625 -1.0 -0.265625zm11.690918 -1.84375q1.515625 0 2.4375 0.828125q0.921875 0.828125 0.921875 2.640625l0 6.171875l-2.578125 0l0 -5.53125q0 -1.015625 -0.375 -1.53125q-0.359375 -0.515625 -1.140625 -0.515625q-1.1875 0 -1.625 0.8125q-0.421875 0.796875 -0.421875 2.3125l0 4.453125l-2.578125 0l0 -9.453125l1.96875 0l0.34375 1.203125l0.140625 0q0.3125 -0.484375 0.765625 -0.78125q0.453125 -0.3125 1.0 -0.453125q0.5625 -0.15625 1.140625 -0.15625zm10.013489 7.75q0.421875 0 0.8125 -0.078125q0.40625 -0.09375 0.8125 -0.21875l0 1.921875q-0.421875 0.1875 -1.03125 0.3125q-0.609375 0.125 -1.34375 0.125q-0.84375 0 -1.515625 -0.265625q-0.671875 -0.28125 -1.0625 -0.96875q-0.375 -0.6875 -0.375 -1.90625l0 -4.546875l-1.25 0l0 -1.09375l1.421875 -0.859375l0.75 -2.0l1.65625 0l0 2.015625l2.640625 0l0 1.9375l-2.640625 0l0 4.546875q0 0.546875 0.296875 0.8125q0.3125 0.265625 0.828125 0.265625zm10.131226 -0.921875q0 0.96875 -0.453125 1.640625q-0.453125 0.65625 -1.359375 1.0q-0.890625 0.34375 -2.21875 0.34375q-1.0 0 -1.703125 -0.125q-0.703125 -0.125 -1.421875 -0.421875l0 -2.140625q0.765625 0.34375 1.640625 0.578125q0.890625 0.21875 1.5625 0.21875q0.75 0 1.078125 -0.21875q0.328125 -0.234375 0.328125 -0.59375q0 -0.234375 -0.140625 -0.421875q-0.125 -0.1875 -0.5625 -0.421875q-0.421875 -0.25 -1.34375 -0.640625q-0.890625 -0.375 -1.46875 -0.75q-0.5625 -0.390625 -0.84375 -0.90625q-0.265625 -0.515625 -0.265625 -1.328125q0 -1.3125 1.015625 -1.96875q1.015625 -0.671875 2.734375 -0.671875q0.875 0 1.671875 0.1875q0.796875 0.171875 1.65625 0.5625l-0.78125 1.859375q-0.703125 -0.296875 -1.328125 -0.484375q-0.625 -0.203125 -1.265625 -0.203125q-0.5625 0 -0.859375 0.15625q-0.28125 0.140625 -0.28125 0.453125q0 0.234375 0.140625 0.421875q0.15625 0.171875 0.578125 0.390625q0.4375 0.203125 1.265625 0.546875q0.796875 0.328125 1.390625 0.6875q0.59375 0.359375 0.90625 0.890625q0.328125 0.53125 0.328125 1.359375z" fill-rule="nonzero"/><path fill="#000000" fill-opacity="0.0" d="m526.3044 268.91602l-0.12597656 -24.314972" fill-rule="evenodd"/><path stroke="#000000" stroke-width="1.0" stroke-linejoin="round" stroke-linecap="butt" d="m526.3044 268.91602l-0.09490967 -18.315048" fill-rule="evenodd"/><path fill="#000000" stroke="#000000" stroke-width="1.0" stroke-linecap="butt" d="m527.8612 250.5924l-1.6752319 -4.52948l-1.6281738 4.5466003z" fill-rule="evenodd"/><path fill="#000000" fill-opacity="0.0" d="m580.19415 289.12073l133.44879 -39.590546" fill-rule="evenodd"/><path stroke="#000000" stroke-width="1.0" stroke-linejoin="round" stroke-linecap="butt" d="m580.19415 289.12073l127.696594 -37.884033" fill-rule="evenodd"/><path fill="#000000" stroke="#000000" stroke-width="1.0" stroke-linecap="butt" d="m708.36053 252.82022l3.8809204 -2.874237l-4.8204956 -0.2928009z" fill-rule="evenodd"/><path fill="#000000" fill-opacity="0.0" d="m472.4146 289.12073l-123.52756 -36.440933" fill-rule="evenodd"/><path stroke="#000000" stroke-width="1.0" stroke-linejoin="round" stroke-linecap="butt" d="m472.4146 289.12073l-117.772766 -34.74324" fill-rule="evenodd"/><path fill="#000000" stroke="#000000" stroke-width="1.0" stroke-linecap="butt" d="m355.10922 252.79324l-4.8200073 0.30018616l3.885315 2.8682861z" fill-rule="evenodd"/><path fill="#000000" fill-opacity="0.0" d="m39.917324 261.99213l0 -185.82678l40.40945 0l0 185.82678z" fill-rule="evenodd"/><path fill="#000000" d="m65.55732 217.55882l-12.374996 0l0 -2.625l12.374996 0l0 2.625zm-9.640621 -10.892807q0 -1.515625 0.828125 -2.4375q0.828125 -0.921875 2.640625 -0.921875l6.171871 0l0 2.578125l-5.531246 0q-1.015625 0 -1.53125 0.375q-0.515625 0.359375 -0.515625 1.140625q0 1.1875 0.8125 1.625q0.796875 0.421875 2.3125 0.421875l4.453121 0l0 2.578125l-9.453121 0l0 -1.96875l1.203125 -0.34375l0 -0.140625q-0.484375 -0.3125 -0.78125 -0.765625q-0.3125 -0.453125 -0.453125 -1.0q-0.15625 -0.5625 -0.15625 -1.140625zm9.812496 -9.013504q0 1.578125 -1.234375 2.578125q-1.2499962 0.984375 -3.6562462 0.984375q-2.421875 0 -3.671875 -1.0q-1.25 -1.015625 -1.25 -2.640625q0 -0.671875 0.1875 -1.1875q0.1875 -0.515625 0.5 -0.890625q0.3125 -0.375 0.703125 -0.640625l0 -0.078125q-0.265625 0.046875 -0.796875 0.125q-0.53125 0.0625 -1.09375 0.0625l-3.03125 0l0 -2.59375l13.171871 0l0 1.984375l-1.234375 0.5l0 0.109375q0.390625 0.25 0.71875 0.625q0.3125 0.359375 0.5 0.875q0.1875 0.5 0.1875 1.1875zm-2.0624962 -0.90625q0 -1.0625 -0.625 -1.5q-0.625 -0.4375 -1.90625 -0.453125l-0.28125 0q-1.375 0 -2.09375 0.421875q-0.734375 0.421875 -0.734375 1.5625q0 0.859375 0.734375 1.34375q0.734375 0.484375 2.125 0.484375q1.375 0 2.078125 -0.484375q0.703125 -0.484375 0.703125 -1.375zm-7.75 -10.965454q0 -1.3125 0.515625 -2.265625q0.5 -0.953125 1.453125 -1.46875q0.953125 -0.515625 2.328125 -0.515625l1.25 0l0 6.109375q1.09375 -0.046875 1.71875 -0.65625q0.625 -0.609375 0.625 -1.703125q0 -0.90625 -0.1875 -1.65625q-0.1875 -0.765625 -0.5625 -1.546875l1.9999962 0q0.34375 0.6875 0.5 1.46875q0.171875 0.765625 0.171875 1.84375q0 1.421875 -0.515625 2.53125q-0.53125 1.09375 -1.6093712 1.71875q-1.078125 0.609375 -2.703125 0.609375q-1.671875 0 -2.765625 -0.5625q-1.109375 -0.5625 -1.65625 -1.5625q-0.5625 -1.015625 -0.5625 -2.34375zm1.84375 -0.015625q0 0.75 0.484375 1.25q0.46875 0.484375 1.515625 0.5625l0 -3.625q-0.578125 0.015625 -1.03125 0.21875q-0.453125 0.1875 -0.703125 0.59375q-0.265625 0.390625 -0.265625 1.0zm2.96875 -8.269058l-4.625 3.046875l0 -2.921875l3.0 -1.84375l-3.0 -1.84375l0 -2.9375l4.625 3.09375l4.828121 -3.234375l0 2.9375l-3.2343712 1.984375l3.2343712 2.0l0 2.9375l-4.828121 -3.21875zm4.828121 -14.8315735l-9.453121 3.609375l0 -2.703125l5.390625 -1.828125q0.46875 -0.140625 1.0 -0.234375q0.515625 -0.09375 0.9375 -0.125l0 -0.0625q-0.453125 -0.03125 -0.953125 -0.125q-0.515625 -0.09375 -0.984375 -0.265625l-5.390625 -1.8125l0 -2.703125l9.453121 3.609375l0 2.640625zm-9.656246 -11.482071q0 -1.890625 0.828125 -2.90625q0.828125 -1.015625 2.53125 -1.015625l6.296871 0l0 1.796875l-1.28125 0.5l0 0.0625q0.5 0.40625 0.828125 0.828125q0.3125 0.421875 0.46875 0.984375q0.15625 0.546875 0.15625 1.328125q0 0.84375 -0.3125 1.515625q-0.328125 0.65625 -0.984375 1.03125q-0.6718712 0.375 -1.7031212 0.375q-1.5 0 -2.21875 -1.046875q-0.71875 -1.0625 -0.796875 -3.171875l-0.046875 -1.640625l-0.40625 0q-0.75 0 -1.09375 0.390625q-0.34375 0.375 -0.34375 1.078125q0 0.6875 0.1875 1.34375q0.1875 0.65625 0.484375 1.3125l-1.734375 0.859375q-0.40625 -0.75 -0.625 -1.6875q-0.234375 -0.9375 -0.234375 -1.9375zm5.28125 -1.359375l0.03125 1.0q0.03125 1.25 0.453125 1.734375q0.40625 0.484375 1.078125 0.484375q0.59375 0 0.84375 -0.34375q0.25 -0.34375 0.25 -0.90625q0 -0.828125 -0.484375 -1.390625q-0.5 -0.578125 -1.40625 -0.578125l-0.765625 0zm4.374996 -7.810013l0 2.578125l-13.171871 0l0 -2.578125l13.171871 0zm-9.453121 -11.381866l9.453121 0l0 1.96875l-1.203125 0.359375l0 0.125q0.46875 0.3125 0.78125 0.765625q0.296875 0.45310974 0.4375 1.0156097q0.15625 0.546875 0.15625 1.140625q0 1.015625 -0.359375 1.765625q-0.359375 0.75 -1.125 1.171875q-0.7656212 0.421875 -1.9843712 0.421875l-6.15625 0l0 -2.59375l5.515625 0q1.015625 0 1.53125 -0.359375q0.515625 -0.359375 0.515625 -1.15625q0 -0.78125 -0.359375 -1.234375q-0.359375 -0.45310974 -1.046875 -0.62498474q-0.703125 -0.1875 -1.71875 -0.1875l-4.4375 0l0 -2.578125zm-0.1875 -6.6072693q0 -1.3125 0.515625 -2.265625q0.5 -0.953125 1.453125 -1.46875q0.953125 -0.515625 2.328125 -0.515625l1.25 0l0 6.109375q1.09375 -0.046875 1.71875 -0.65625q0.625 -0.609375 0.625 -1.703125q0 -0.90625 -0.1875 -1.65625q-0.1875 -0.765625 -0.5625 -1.546875l1.9999962 0q0.34375 0.6875 0.5 1.46875q0.171875 0.765625 0.171875 1.84375q0 1.421875 -0.515625 2.53125q-0.53125 1.09375 -1.6093712 1.71875q-1.078125 0.609375 -2.703125 0.609375q-1.671875 0 -2.765625 -0.5625q-1.109375 -0.5625 -1.65625 -1.5625q-0.5625 -1.015625 -0.5625 -2.34375zm1.84375 -0.015625q0 0.75 0.484375 1.25q0.46875 0.484375 1.515625 0.5625l0 -3.625q-0.578125 0.015625 -1.03125 0.21875q-0.453125 0.1875 -0.703125 0.59375q-0.265625 0.390625 -0.265625 1.0z" fill-rule="nonzero"/><path fill="#000000" fill-opacity="0.0" d="m419.61285 169.56754c3.3642883 -2.6148071 15.581879 -4.3580017 20.185608 -15.688797c4.6037292 -11.330811 6.1973267 -43.58 7.436798 -52.296005" fill-rule="evenodd"/><path stroke="#000000" stroke-width="1.0" stroke-linejoin="round" stroke-linecap="butt" d="m419.61285 169.56754c3.3642578 -2.6148071 15.581879 -4.3580017 20.185608 -15.688797c2.3018494 -5.6654053 3.8511963 -16.56041 4.980011 -27.128555c0.5643616 -5.2840805 1.0236511 -10.486435 1.419281 -14.912537c0.09890747 -1.1065216 0.19384766 -2.1645203 0.2854309 -3.1631546l0.10479736 -1.1267776" fill-rule="evenodd"/><path fill="#000000" stroke="#000000" stroke-width="1.0" stroke-linecap="butt" d="m448.23004 107.72592l-1.1524963 -4.6898117l-2.1316833 4.3334045z" fill-rule="evenodd"/><path fill="#000000" fill-opacity="0.0" d="m341.6181 74.419945l137.66931 0l0 33.921265l-137.66931 0z" fill-rule="evenodd"/><path fill="#000000" d="m356.63373 94.93995l-4.9375 0l0 -8.5625l4.9375 0l0 1.484375l-3.125 0l0 1.875l2.90625 0l0 1.5l-2.90625 0l0 2.203125l3.125 0l0 1.5zm3.2050781 0l-2.5 -6.546875l1.875 0l1.265625 3.734375q0.09375 0.328125 0.15625 0.6875q0.0625 0.359375 0.09375 0.640625l0.046875 0q0.015625 -0.296875 0.078125 -0.640625q0.078125 -0.359375 0.1875 -0.6875l1.25 -3.734375l1.875 0l-2.5 6.546875l-1.828125 0zm7.966797 -6.671875q0.90625 0 1.5625 0.34375q0.65625 0.34375 1.015625 1.015625q0.359375 0.65625 0.359375 1.609375l0 0.875l-4.234375 0q0.03125 0.75 0.453125 1.1875q0.4375 0.421875 1.1875 0.421875q0.625 0 1.140625 -0.125q0.53125 -0.125 1.078125 -0.390625l0 1.390625q-0.484375 0.234375 -1.015625 0.34375q-0.53125 0.125 -1.28125 0.125q-0.984375 0 -1.75 -0.359375q-0.75 -0.375 -1.1875 -1.109375q-0.421875 -0.75 -0.421875 -1.890625q0 -1.140625 0.375 -1.90625q0.390625 -0.765625 1.09375 -1.140625q0.703125 -0.390625 1.625 -0.390625zm0.015625 1.265625q-0.53125 0 -0.875 0.34375q-0.34375 0.328125 -0.390625 1.046875l2.515625 0q-0.015625 -0.40625 -0.15625 -0.71875q-0.125 -0.3125 -0.40625 -0.484375q-0.265625 -0.1875 -0.6875 -0.1875zm8.089844 -1.265625q1.046875 0 1.6875 0.578125q0.640625 0.5625 0.640625 1.828125l0 4.265625l-1.78125 0l0 -3.828125q0 -0.703125 -0.265625 -1.0625q-0.25 -0.359375 -0.796875 -0.359375q-0.8125 0 -1.125 0.5625q-0.296875 0.5625 -0.296875 1.609375l0 3.078125l-1.78125 0l0 -6.546875l1.359375 0l0.25 0.828125l0.09375 0q0.21875 -0.328125 0.53125 -0.53125q0.3125 -0.21875 0.6875 -0.3125q0.390625 -0.109375 0.796875 -0.109375zm6.9335938 5.359375q0.28125 0 0.5625 -0.046875q0.28125 -0.0625 0.5625 -0.15625l0 1.328125q-0.296875 0.140625 -0.71875 0.21875q-0.421875 0.09375 -0.921875 0.09375q-0.59375 0 -1.0625 -0.1875q-0.453125 -0.203125 -0.734375 -0.671875q-0.265625 -0.46875 -0.265625 -1.3125l0 -3.15625l-0.84375 0l0 -0.765625l0.984375 -0.59375l0.515625 -1.390625l1.140625 0l0 1.40625l1.828125 0l0 1.34375l-1.828125 0l0 3.15625q0 0.375 0.203125 0.5625q0.21875 0.171875 0.578125 0.171875zm5.701172 1.3125l0 -8.5625l1.8125 0l0 8.5625l-1.8125 0zm7.5507812 -6.671875q1.046875 0 1.6875 0.578125q0.640625 0.5625 0.640625 1.828125l0 4.265625l-1.78125 0l0 -3.828125q0 -0.703125 -0.265625 -1.0625q-0.25 -0.359375 -0.796875 -0.359375q-0.8125 0 -1.125 0.5625q-0.296875 0.5625 -0.296875 1.609375l0 3.078125l-1.78125 0l0 -6.546875l1.359375 0l0.25 0.828125l0.09375 0q0.21875 -0.328125 0.53125 -0.53125q0.3125 -0.21875 0.6875 -0.3125q0.390625 -0.109375 0.796875 -0.109375zm6.2460938 6.796875q-1.09375 0 -1.78125 -0.859375q-0.6875 -0.859375 -0.6875 -2.53125q0 -1.6875 0.6875 -2.546875q0.703125 -0.859375 1.828125 -0.859375q0.46875 0 0.828125 0.125q0.359375 0.125 0.609375 0.34375q0.265625 0.21875 0.453125 0.484375l0.046875 0q-0.03125 -0.1875 -0.078125 -0.546875q-0.046875 -0.375 -0.046875 -0.75l0 -2.109375l1.78125 0l0 9.125l-1.359375 0l-0.34375 -0.84375l-0.078125 0q-0.171875 0.265625 -0.4375 0.484375q-0.25 0.21875 -0.609375 0.359375q-0.34375 0.125 -0.8125 0.125zm0.625 -1.4375q0.734375 0 1.03125 -0.4375q0.296875 -0.4375 0.328125 -1.3125l0 -0.1875q0 -0.953125 -0.296875 -1.453125q-0.296875 -0.515625 -1.09375 -0.515625q-0.59375 0 -0.9375 0.515625q-0.328125 0.5 -0.328125 1.46875q0 0.953125 0.34375 1.4375q0.34375 0.484375 0.953125 0.484375zm7.59375 -5.359375q0.90625 0 1.5625 0.34375q0.65625 0.34375 1.015625 1.015625q0.359375 0.65625 0.359375 1.609375l0 0.875l-4.234375 0q0.03125 0.75 0.453125 1.1875q0.4375 0.421875 1.1875 0.421875q0.625 0 1.140625 -0.125q0.53125 -0.125 1.078125 -0.390625l0 1.390625q-0.484375 0.234375 -1.015625 0.34375q-0.53125 0.125 -1.28125 0.125q-0.984375 0 -1.75 -0.359375q-0.75 -0.375 -1.1875 -1.109375q-0.421875 -0.75 -0.421875 -1.890625q0 -1.140625 0.375 -1.90625q0.390625 -0.765625 1.09375 -1.140625q0.703125 -0.390625 1.625 -0.390625zm0.015625 1.265625q-0.53125 0 -0.875 0.34375q-0.34375 0.328125 -0.390625 1.046875l2.515625 0q-0.015625 -0.40625 -0.15625 -0.71875q-0.125 -0.3125 -0.40625 -0.484375q-0.265625 -0.1875 -0.6875 -0.1875zm5.7148438 2.0625l-2.109375 -3.203125l2.03125 0l1.265625 2.078125l1.28125 -2.078125l2.03125 0l-2.140625 3.203125l2.234375 3.34375l-2.03125 0l-1.375 -2.25l-1.375 2.25l-2.03125 0l2.21875 -3.34375zm8.2890625 -1.390625l0 -1.265625l5.8125 0l0 1.265625l-5.8125 0zm0 2.28125l0 -1.28125l5.8125 0l0 1.28125l-5.8125 0zm15.884766 -1.828125q0 1.03125 -0.171875 1.84375q-0.15625 0.8125 -0.515625 1.390625q-0.34375 0.5625 -0.921875 0.875q-0.5625 0.296875 -1.390625 0.296875q-1.03125 0 -1.703125 -0.53125q-0.65625 -0.53125 -0.96875 -1.515625q-0.3125 -0.984375 -0.3125 -2.359375q0 -1.390625 0.28125 -2.375q0.296875 -0.984375 0.953125 -1.515625q0.65625 -0.53125 1.75 -0.53125q1.03125 0 1.6875 0.53125q0.671875 0.515625 0.984375 1.515625q0.328125 0.984375 0.328125 2.375zm-4.1875 0q0 0.96875 0.109375 1.625q0.109375 0.65625 0.359375 0.984375q0.265625 0.328125 0.71875 0.328125q0.453125 0 0.703125 -0.328125q0.265625 -0.328125 0.375 -0.96875q0.125 -0.65625 0.125 -1.640625q0 -0.984375 -0.125 -1.640625q-0.109375 -0.65625 -0.375 -0.984375q-0.25 -0.328125 -0.703125 -0.328125q-0.453125 0 -0.71875 0.328125q-0.25 0.328125 -0.359375 0.984375q-0.109375 0.65625 -0.109375 1.640625z" fill-rule="nonzero"/><path fill="#000000" fill-opacity="0.0" d="m198.8937 51.417324l270.61417 0.50393677" fill-rule="evenodd"/><path stroke="#000000" stroke-width="1.0" stroke-linejoin="round" stroke-linecap="butt" d="m204.89368 51.428497l258.6142 0.48158646" fill-rule="evenodd"/><path fill="#000000" stroke="#000000" stroke-width="1.0" stroke-linecap="butt" d="m204.89676 49.776768l-4.541153 1.6432762l4.5350037 1.660183z" fill-rule="evenodd"/><path fill="#000000" stroke="#000000" stroke-width="1.0" stroke-linecap="butt" d="m463.50482 53.561817l4.5411377 -1.64328l-4.5350037 -1.6601791z" fill-rule="evenodd"/><path fill="#000000" fill-opacity="0.0" d="m242.05118 51.92126l56.409454 0l0 40.40945l-56.409454 0z" fill-rule="evenodd"/><path fill="#000000" d="m268.26553 77.56126l-2.625 0l0 -10.1875l-3.359375 0l0 -2.1875l9.34375 0l0 2.1875l-3.359375 0l0 10.1875z" fill-rule="nonzero"/><path fill="#000000" d="m276.7378 84.06126l-1.734375 0l0 -4.765625q0 -0.203125 0 -0.484375q0 -0.296875 0.015625 -0.59375q0.015625 -0.3125 0.03125 -0.5625q-0.0625 0.0625 -0.25 0.25q-0.1875 0.171875 -0.359375 0.3125l-0.953125 0.765625l-0.828125 -1.046875l2.65625 -2.125l1.421875 0l0 8.25z" fill-rule="nonzero"/><path fill="#000000" fill-opacity="0.0" d="m470.8937 51.417324l247.93698 0.50393677" fill-rule="evenodd"/><path stroke="#000000" stroke-width="1.0" stroke-linejoin="round" stroke-linecap="butt" d="m476.8937 51.42952l235.93698 0.4795456" fill-rule="evenodd"/><path fill="#000000" stroke="#000000" stroke-width="1.0" stroke-linecap="butt" d="m476.89703 49.77779l-4.541443 1.6425056l4.534729 1.6609497z" fill-rule="evenodd"/><path fill="#000000" stroke="#000000" stroke-width="1.0" stroke-linecap="butt" d="m712.8274 53.560795l4.541443 -1.6425056l-4.534729 -1.6609535z" fill-rule="evenodd"/><path fill="#000000" fill-opacity="0.0" d="m514.0512 51.92126l56.409424 0l0 40.40945l-56.409424 0z" fill-rule="evenodd"/><path fill="#000000" d="m540.26556 77.56126l-2.625 0l0 -10.1875l-3.359375 0l0 -2.1875l9.34375 0l0 2.1875l-3.359375 0l0 10.1875z" fill-rule="nonzero"/><path fill="#000000" d="m550.1909 84.06126l-5.75 0l0 -1.21875l2.0625 -2.078125q0.625 -0.65625 1.0 -1.078125q0.390625 -0.4375 0.5625 -0.78125q0.171875 -0.359375 0.171875 -0.765625q0 -0.5 -0.28125 -0.734375q-0.265625 -0.25 -0.71875 -0.25q-0.484375 0 -0.9375 0.21875q-0.453125 0.21875 -0.9375 0.625l-0.953125 -1.125q0.359375 -0.296875 0.75 -0.5625q0.40625 -0.28125 0.921875 -0.4375q0.53125 -0.171875 1.28125 -0.171875q0.796875 0 1.375 0.296875q0.59375 0.28125 0.90625 0.796875q0.328125 0.5 0.328125 1.140625q0 0.671875 -0.28125 1.25q-0.265625 0.5625 -0.78125 1.109375q-0.515625 0.546875 -1.25 1.21875l-1.046875 1.0l0 0.078125l3.578125 0l0 1.46875z" fill-rule="nonzero"/><path fill="#000000" fill-opacity="0.0" d="m823.1063 148.87401l96.97638 0l0 40.409454l-96.97638 0z" fill-rule="evenodd"/><path fill="#000000" d="m856.6347 174.514l-2.625 0l0 -10.1875l-3.359375 0l0 -2.1875l9.34375 0l0 2.1875l-3.359375 0l0 10.1875zm7.644165 -9.453125l0 9.453125l-2.578125 0l0 -9.453125l2.578125 0zm-1.296875 -3.71875q0.578125 0 0.984375 0.28125q0.421875 0.265625 0.421875 0.984375q0 0.71875 -0.421875 1.0q-0.40625 0.265625 -0.984375 0.265625q-0.578125 0 -0.984375 -0.265625q-0.40625 -0.28125 -0.40625 -1.0q0 -0.71875 0.40625 -0.984375q0.40625 -0.28125 0.984375 -0.28125zm15.116211 3.53125q1.609375 0 2.421875 0.828125q0.828125 0.828125 0.828125 2.640625l0 6.171875l-2.59375 0l0 -5.53125q0 -1.015625 -0.34375 -1.53125q-0.34375 -0.515625 -1.078125 -0.515625q-1.015625 0 -1.453125 0.734375q-0.421875 0.734375 -0.421875 2.09375l0 4.75l-2.578125 0l0 -5.53125q0 -0.671875 -0.15625 -1.125q-0.15625 -0.453125 -0.46875 -0.6875q-0.3125 -0.234375 -0.796875 -0.234375q-0.71875 0 -1.140625 0.359375q-0.40625 0.359375 -0.578125 1.0625q-0.171875 0.703125 -0.171875 1.703125l0 4.453125l-2.578125 0l0 -9.453125l1.96875 0l0.34375 1.203125l0.140625 0q0.296875 -0.484375 0.71875 -0.78125q0.4375 -0.3125 0.96875 -0.453125q0.53125 -0.15625 1.0625 -0.15625q1.046875 0 1.765625 0.34375q0.71875 0.34375 1.109375 1.046875l0.234375 0q0.421875 -0.734375 1.1875 -1.0625q0.78125 -0.328125 1.609375 -0.328125zm9.796326 0q1.3125 0 2.265625 0.515625q0.953125 0.5 1.46875 1.453125q0.515625 0.953125 0.515625 2.328125l0 1.25l-6.109375 0q0.046875 1.09375 0.65625 1.71875q0.609375 0.625 1.703125 0.625q0.90625 0 1.65625 -0.1875q0.765625 -0.1875 1.546875 -0.5625l0 2.0q-0.6875 0.34375 -1.46875 0.5q-0.765625 0.171875 -1.84375 0.171875q-1.421875 0 -2.53125 -0.515625q-1.09375 -0.53125 -1.71875 -1.609375q-0.609375 -1.078125 -0.609375 -2.703125q0 -1.671875 0.5625 -2.765625q0.5625 -1.109375 1.5625 -1.65625q1.015625 -0.5625 2.34375 -0.5625zm0.015625 1.84375q-0.75 0 -1.25 0.484375q-0.484375 0.46875 -0.5625 1.515625l3.625 0q-0.015625 -0.578125 -0.21875 -1.03125q-0.1875 -0.453125 -0.59375 -0.703125q-0.390625 -0.265625 -1.0 -0.265625z" fill-rule="nonzero"/><path fill="#000000" fill-opacity="0.0" d="m198.8937 169.11023l-0.34646606 -133.03937" fill-rule="evenodd"/><path stroke="#000000" stroke-width="1.0" stroke-linejoin="round" stroke-linecap="butt" d="m198.8937 169.11023l-0.34646606 -133.03937" fill-rule="evenodd"/><path fill="#000000" fill-opacity="0.0" d="m471.36353 169.11023l-0.34646606 -133.03937" fill-rule="evenodd"/><path stroke="#000000" stroke-width="1.0" stroke-linejoin="round" stroke-linecap="butt" d="m471.36353 169.11023l-0.34646606 -133.03937" fill-rule="evenodd"/><path fill="#000000" fill-opacity="0.0" d="m726.25195 169.56693l-0.34643555 -133.03937" fill-rule="evenodd"/><path stroke="#000000" stroke-width="1.0" stroke-linejoin="round" stroke-linecap="butt" d="m726.25195 169.56693l-0.34643555 -133.03937" fill-rule="evenodd"/><path fill="#ffffff" d="m720.2638 169.07874l0 0c0 -2.9918976 2.3549194 -5.4173126 5.2598267 -5.4173126l0 0c1.3950195 0 2.7328491 0.57073975 3.7192993 1.5866852c0.98638916 1.0159454 1.5405273 2.3938751 1.5405273 3.8306274l0 0c0 2.9919128 -2.3549194 5.417328 -5.2598267 5.417328l0 0c-2.9049072 0 -5.2598267 -2.425415 -5.2598267 -5.417328z" fill-rule="evenodd"/><path stroke="#000000" stroke-width="1.0" stroke-linejoin="round" stroke-linecap="butt" d="m720.2638 169.07874l0 0c0 -2.9918976 2.3549194 -5.4173126 5.2598267 -5.4173126l0 0c1.3950195 0 2.7328491 0.57073975 3.7192993 1.5866852c0.98638916 1.0159454 1.5405273 2.3938751 1.5405273 3.8306274l0 0c0 2.9919128 -2.3549194 5.417328 -5.2598267 5.417328l0 0c-2.9049072 0 -5.2598267 -2.425415 -5.2598267 -5.417328z" fill-rule="evenodd"/><path fill="#ffffff" d="m467.2034 169.07874l0 0c0 -2.9918976 2.3549194 -5.4173126 5.259857 -5.4173126l0 0c1.394989 0 2.7328491 0.57073975 3.7192688 1.5866852c0.9864197 1.0159454 1.5405579 2.3938751 1.5405579 3.8306274l0 0c0 2.9919128 -2.354889 5.417328 -5.2598267 5.417328l0 0c-2.9049377 0 -5.259857 -2.425415 -5.259857 -5.417328z" fill-rule="evenodd"/><path stroke="#000000" stroke-width="1.0" stroke-linejoin="round" stroke-linecap="butt" d="m467.2034 169.07874l0 0c0 -2.9918976 2.3549194 -5.4173126 5.259857 -5.4173126l0 0c1.394989 0 2.7328491 0.57073975 3.7192688 1.5866852c0.9864197 1.0159454 1.5405579 2.3938751 1.5405579 3.8306274l0 0c0 2.9919128 -2.354889 5.417328 -5.2598267 5.417328l0 0c-2.9049377 0 -5.259857 -2.425415 -5.259857 -5.417328z" fill-rule="evenodd"/><path fill="#ffffff" d="m193.19292 169.07874l0 0c0 -2.9918976 2.3549042 -5.4173126 5.259842 -5.4173126l0 0c1.394989 0 2.7328491 0.57073975 3.7192688 1.5866852c0.9864044 1.0159454 1.5405731 2.3938751 1.5405731 3.8306274l0 0c0 2.9919128 -2.3549194 5.417328 -5.259842 5.417328l0 0c-2.9049377 0 -5.259842 -2.425415 -5.259842 -5.417328z" fill-rule="evenodd"/><path stroke="#000000" stroke-width="1.0" stroke-linejoin="round" stroke-linecap="butt" d="m193.19292 169.07874l0 0c0 -2.9918976 2.3549042 -5.4173126 5.259842 -5.4173126l0 0c1.394989 0 2.7328491 0.57073975 3.7192688 1.5866852c0.9864044 1.0159454 1.5405731 2.3938751 1.5405731 3.8306274l0 0c0 2.9919128 -2.3549194 5.417328 -5.259842 5.417328l0 0c-2.9049377 0 -5.259842 -2.425415 -5.259842 -5.417328z" fill-rule="evenodd"/><path fill="#000000" fill-opacity="0.0" d="m133.61548 303.18634l759.81104 0l0 38.771667l-759.81104 0z" fill-rule="evenodd"/><path fill="#000000" d="m153.53735 321.71823q0 1.9375 -0.75 3.234375q-0.734375 1.28125 -2.140625 1.9375q-1.390625 0.65625 -3.359375 0.65625l-3.234375 0l0 -11.421875l3.59375 0q1.796875 0 3.109375 0.640625q1.328125 0.625 2.046875 1.875q0.734375 1.25 0.734375 3.078125zm-2.515625 0.0625q0 -1.265625 -0.375 -2.078125q-0.375 -0.8125 -1.09375 -1.203125q-0.71875 -0.390625 -1.78125 -0.390625l-1.296875 0l0 7.4375l1.046875 0q1.765625 0 2.625 -0.9375q0.875 -0.953125 0.875 -2.828125zm8.28125 -0.546875l0 -1.6875l7.765625 0l0 1.6875l-7.765625 0zm0 3.046875l0 -1.71875l7.765625 0l0 1.71875l-7.765625 0zm23.539062 -2.5625q0 1.9375 -0.75 3.234375q-0.734375 1.28125 -2.140625 1.9375q-1.390625 0.65625 -3.359375 0.65625l-3.234375 0l0 -11.421875l3.59375 0q1.796875 0 3.109375 0.640625q1.328125 0.625 2.046875 1.875q0.734375 1.25 0.734375 3.078125zm-2.515625 0.0625q0 -1.265625 -0.375 -2.078125q-0.375 -0.8125 -1.09375 -1.203125q-0.71875 -0.390625 -1.78125 -0.390625l-1.296875 0l0 7.4375l1.046875 0q1.765625 0 2.625 -0.9375q0.875 -0.953125 0.875 -2.828125zm12.703125 -2.96875l0 8.734375l-1.828125 0l-0.3125 -1.125l-0.125 0q-0.28125 0.453125 -0.703125 0.734375q-0.421875 0.28125 -0.9375 0.40625q-0.5 0.140625 -1.046875 0.140625q-0.9375 0 -1.640625 -0.328125q-0.6875 -0.34375 -1.078125 -1.046875q-0.390625 -0.703125 -0.390625 -1.828125l0 -5.6875l2.390625 0l0 5.09375q0 0.9375 0.328125 1.421875q0.34375 0.46875 1.078125 0.46875q0.71875 0 1.125 -0.328125q0.421875 -0.328125 0.59375 -0.96875q0.171875 -0.65625 0.171875 -1.578125l0 -4.109375l2.375 0zm7.375 -0.171875q0.1875 0 0.421875 0.03125q0.234375 0.015625 0.390625 0.046875l-0.1875 2.234375q-0.109375 -0.046875 -0.328125 -0.0625q-0.21875 -0.015625 -0.375 -0.015625q-0.453125 0 -0.890625 0.125q-0.4375 0.109375 -0.78125 0.375q-0.34375 0.25 -0.546875 0.6875q-0.1875 0.421875 -0.1875 1.03125l0 4.453125l-2.390625 0l0 -8.734375l1.8125 0l0.34375 1.46875l0.125 0q0.25 -0.453125 0.640625 -0.8125q0.390625 -0.375 0.875 -0.59375q0.5 -0.234375 1.078125 -0.234375zm5.96875 -0.015625q1.765625 0 2.703125 0.765625q0.9375 0.765625 0.9375 2.328125l0 5.828125l-1.671875 0l-0.453125 -1.1875l-0.0625 0q-0.375 0.46875 -0.765625 0.765625q-0.390625 0.296875 -0.90625 0.4375q-0.5 0.140625 -1.234375 0.140625q-0.765625 0 -1.390625 -0.296875q-0.609375 -0.296875 -0.96875 -0.90625q-0.34375 -0.625 -0.34375 -1.5625q0 -1.390625 0.96875 -2.046875q0.984375 -0.671875 2.9375 -0.734375l1.515625 -0.046875l0 -0.390625q0 -0.6875 -0.359375 -1.0q-0.359375 -0.328125 -1.0 -0.328125q-0.625 0 -1.234375 0.1875q-0.609375 0.171875 -1.21875 0.453125l-0.796875 -1.609375q0.703125 -0.375 1.5625 -0.578125q0.859375 -0.21875 1.78125 -0.21875zm1.265625 4.875l-0.921875 0.03125q-1.15625 0.03125 -1.609375 0.421875q-0.4375 0.375 -0.4375 1.0q0 0.546875 0.3125 0.78125q0.328125 0.21875 0.84375 0.21875q0.765625 0 1.28125 -0.453125q0.53125 -0.453125 0.53125 -1.28125l0 -0.71875zm8.5078125 2.296875q0.390625 0 0.75 -0.078125q0.375 -0.078125 0.75 -0.1875l0 1.765625q-0.390625 0.171875 -0.953125 0.28125q-0.5625 0.125 -1.234375 0.125q-0.78125 0 -1.40625 -0.25q-0.625 -0.265625 -0.984375 -0.890625q-0.34375 -0.625 -0.34375 -1.75l0 -4.21875l-1.140625 0l0 -1.0l1.3125 -0.796875l0.6875 -1.84375l1.515625 0l0 1.859375l2.453125 0l0 1.78125l-2.453125 0l0 4.21875q0 0.5 0.28125 0.75q0.296875 0.234375 0.765625 0.234375zm5.6484375 -6.984375l0 8.734375l-2.390625 0l0 -8.734375l2.390625 0zm-1.1875 -3.421875q0.53125 0 0.90625 0.25q0.390625 0.234375 0.390625 0.90625q0 0.671875 -0.390625 0.921875q-0.375 0.25 -0.90625 0.25q-0.546875 0 -0.921875 -0.25q-0.375 -0.25 -0.375 -0.921875q0 -0.671875 0.375 -0.90625q0.375 -0.25 0.921875 -0.25zm11.6171875 7.765625q0 1.09375 -0.296875 1.9375q-0.28125 0.84375 -0.84375 1.4375q-0.5625 0.578125 -1.34375 0.875q-0.78125 0.296875 -1.765625 0.296875q-0.921875 0 -1.703125 -0.296875q-0.765625 -0.296875 -1.328125 -0.875q-0.5625 -0.59375 -0.875 -1.4375q-0.3125 -0.84375 -0.3125 -1.9375q0 -1.453125 0.515625 -2.453125q0.515625 -1.015625 1.46875 -1.53125q0.953125 -0.53125 2.28125 -0.53125q1.21875 0 2.171875 0.53125q0.953125 0.515625 1.484375 1.53125q0.546875 1.0 0.546875 2.453125zm-6.03125 0q0 0.859375 0.1875 1.453125q0.1875 0.578125 0.578125 0.875q0.40625 0.296875 1.046875 0.296875q0.625 0 1.015625 -0.296875q0.40625 -0.296875 0.578125 -0.875q0.1875 -0.59375 0.1875 -1.453125q0 -0.859375 -0.1875 -1.4375q-0.171875 -0.578125 -0.578125 -0.859375q-0.390625 -0.296875 -1.03125 -0.296875q-0.953125 0 -1.375 0.65625q-0.421875 0.640625 -0.421875 1.9375zm12.96875 -4.515625q1.390625 0 2.234375 0.765625q0.859375 0.765625 0.859375 2.4375l0 5.703125l-2.375 0l0 -5.109375q0 -0.9375 -0.34375 -1.40625q-0.34375 -0.484375 -1.0625 -0.484375q-1.09375 0 -1.5 0.75q-0.390625 0.734375 -0.390625 2.140625l0 4.109375l-2.390625 0l0 -8.734375l1.828125 0l0.3125 1.109375l0.140625 0q0.28125 -0.453125 0.6875 -0.734375q0.421875 -0.28125 0.9375 -0.40625q0.515625 -0.140625 1.0625 -0.140625zm7.765625 7.046875l0.125 0.171875q-0.140625 0.5625 -0.375 1.21875q-0.21875 0.65625 -0.484375 1.296875q-0.25 0.65625 -0.515625 1.234375l-1.71875 0q0.15625 -0.625 0.296875 -1.328125q0.15625 -0.6875 0.28125 -1.359375q0.125 -0.6875 0.203125 -1.234375l2.1875 0zm11.09375 1.859375l-2.421875 0l0 -9.40625l-3.09375 0l0 -2.015625l8.625 0l0 2.015625l-3.109375 0l0 9.40625zm8.265625 -6.3125l0 -1.6875l7.765625 0l0 1.6875l-7.765625 0zm0 3.046875l0 -1.71875l7.765625 0l0 1.71875l-7.765625 0zm14.0546875 3.265625l0 -11.421875l2.421875 0l0 11.421875l-2.421875 0zm10.078125 -8.90625q1.390625 0 2.234375 0.765625q0.859375 0.765625 0.859375 2.4375l0 5.703125l-2.375 0l0 -5.109375q0 -0.9375 -0.34375 -1.40625q-0.34375 -0.484375 -1.0625 -0.484375q-1.09375 0 -1.5 0.75q-0.390625 0.734375 -0.390625 2.140625l0 4.109375l-2.390625 0l0 -8.734375l1.828125 0l0.3125 1.109375l0.140625 0q0.28125 -0.453125 0.6875 -0.734375q0.421875 -0.28125 0.9375 -0.40625q0.515625 -0.140625 1.0625 -0.140625zm9.234375 7.15625q0.390625 0 0.75 -0.078125q0.375 -0.078125 0.75 -0.1875l0 1.765625q-0.390625 0.171875 -0.953125 0.28125q-0.5625 0.125 -1.234375 0.125q-0.78125 0 -1.40625 -0.25q-0.625 -0.265625 -0.984375 -0.890625q-0.34375 -0.625 -0.34375 -1.75l0 -4.21875l-1.140625 0l0 -1.0l1.3125 -0.796875l0.6875 -1.84375l1.515625 0l0 1.859375l2.453125 0l0 1.78125l-2.453125 0l0 4.21875q0 0.5 0.28125 0.75q0.296875 0.234375 0.765625 0.234375zm6.8671875 -7.15625q1.203125 0 2.078125 0.46875q0.875 0.46875 1.34375 1.359375q0.484375 0.875 0.484375 2.140625l0 1.15625l-5.625 0q0.03125 1.015625 0.59375 1.59375q0.578125 0.5625 1.578125 0.5625q0.84375 0 1.53125 -0.171875q0.703125 -0.171875 1.4375 -0.515625l0 1.84375q-0.65625 0.328125 -1.359375 0.46875q-0.703125 0.15625 -1.71875 0.15625q-1.3125 0 -2.328125 -0.484375q-1.0 -0.484375 -1.578125 -1.46875q-0.578125 -1.0 -0.578125 -2.515625q0 -1.53125 0.515625 -2.546875q0.53125 -1.015625 1.453125 -1.53125q0.9375 -0.515625 2.171875 -0.515625zm0.015625 1.703125q-0.703125 0 -1.15625 0.453125q-0.453125 0.4375 -0.53125 1.390625l3.34375 0q0 -0.53125 -0.1875 -0.9375q-0.1875 -0.421875 -0.546875 -0.65625q-0.359375 -0.25 -0.921875 -0.25zm10.703125 -1.703125q0.1875 0 0.421875 0.03125q0.234375 0.015625 0.390625 0.046875l-0.1875 2.234375q-0.109375 -0.046875 -0.328125 -0.0625q-0.21875 -0.015625 -0.375 -0.015625q-0.453125 0 -0.890625 0.125q-0.4375 0.109375 -0.78125 0.375q-0.34375 0.25 -0.546875 0.6875q-0.1875 0.421875 -0.1875 1.03125l0 4.453125l-2.390625 0l0 -8.734375l1.8125 0l0.34375 1.46875l0.125 0q0.25 -0.453125 0.640625 -0.8125q0.390625 -0.375 0.875 -0.59375q0.5 -0.234375 1.078125 -0.234375zm1.625 5.59375l0 -1.953125l4.1875 0l0 1.953125l-4.1875 0zm9.4921875 -5.609375q1.765625 0 2.703125 0.765625q0.9375 0.765625 0.9375 2.328125l0 5.828125l-1.671875 0l-0.453125 -1.1875l-0.0625 0q-0.375 0.46875 -0.765625 0.765625q-0.390625 0.296875 -0.90625 0.4375q-0.5 0.140625 -1.234375 0.140625q-0.765625 0 -1.390625 -0.296875q-0.609375 -0.296875 -0.96875 -0.90625q-0.34375 -0.625 -0.34375 -1.5625q0 -1.390625 0.96875 -2.046875q0.984375 -0.671875 2.9375 -0.734375l1.515625 -0.046875l0 -0.390625q0 -0.6875 -0.359375 -1.0q-0.359375 -0.328125 -1.0 -0.328125q-0.625 0 -1.234375 0.1875q-0.609375 0.171875 -1.21875 0.453125l-0.796875 -1.609375q0.703125 -0.375 1.5625 -0.578125q0.859375 -0.21875 1.78125 -0.21875zm1.265625 4.875l-0.921875 0.03125q-1.15625 0.03125 -1.609375 0.421875q-0.4375 0.375 -0.4375 1.0q0 0.546875 0.3125 0.78125q0.328125 0.21875 0.84375 0.21875q0.765625 0 1.28125 -0.453125q0.53125 -0.453125 0.53125 -1.28125l0 -0.71875zm9.6953125 -4.859375q0.1875 0 0.421875 0.03125q0.234375 0.015625 0.390625 0.046875l-0.1875 2.234375q-0.109375 -0.046875 -0.328125 -0.0625q-0.21875 -0.015625 -0.375 -0.015625q-0.453125 0 -0.890625 0.125q-0.4375 0.109375 -0.78125 0.375q-0.34375 0.25 -0.546875 0.6875q-0.1875 0.421875 -0.1875 1.03125l0 4.453125l-2.390625 0l0 -8.734375l1.8125 0l0.34375 1.46875l0.125 0q0.25 -0.453125 0.640625 -0.8125q0.390625 -0.375 0.875 -0.59375q0.5 -0.234375 1.078125 -0.234375zm7.265625 0q0.1875 0 0.421875 0.03125q0.234375 0.015625 0.390625 0.046875l-0.1875 2.234375q-0.109375 -0.046875 -0.328125 -0.0625q-0.21875 -0.015625 -0.375 -0.015625q-0.453125 0 -0.890625 0.125q-0.4375 0.109375 -0.78125 0.375q-0.34375 0.25 -0.546875 0.6875q-0.1875 0.421875 -0.1875 1.03125l0 4.453125l-2.390625 0l0 -8.734375l1.8125 0l0.34375 1.46875l0.125 0q0.25 -0.453125 0.640625 -0.8125q0.390625 -0.375 0.875 -0.59375q0.5 -0.234375 1.078125 -0.234375zm4.78125 0.171875l0 8.734375l-2.390625 0l0 -8.734375l2.390625 0zm-1.1875 -3.421875q0.53125 0 0.90625 0.25q0.390625 0.234375 0.390625 0.90625q0 0.671875 -0.390625 0.921875q-0.375 0.25 -0.90625 0.25q-0.546875 0 -0.921875 -0.25q-0.375 -0.25 -0.375 -0.921875q0 -0.671875 0.375 -0.90625q0.375 -0.25 0.921875 -0.25zm5.7578125 12.15625l-3.328125 -8.734375l2.5 0l1.6875 4.96875q0.140625 0.4375 0.21875 0.921875q0.078125 0.484375 0.109375 0.875l0.0625 0q0.03125 -0.421875 0.109375 -0.890625q0.09375 -0.46875 0.25 -0.90625l1.671875 -4.96875l2.5 0l-3.328125 8.734375l-2.453125 0zm10.6015625 -8.921875q1.765625 0 2.703125 0.765625q0.9375 0.765625 0.9375 2.328125l0 5.828125l-1.671875 0l-0.453125 -1.1875l-0.0625 0q-0.375 0.46875 -0.765625 0.765625q-0.390625 0.296875 -0.90625 0.4375q-0.5 0.140625 -1.234375 0.140625q-0.765625 0 -1.390625 -0.296875q-0.609375 -0.296875 -0.96875 -0.90625q-0.34375 -0.625 -0.34375 -1.5625q0 -1.390625 0.96875 -2.046875q0.984375 -0.671875 2.9375 -0.734375l1.515625 -0.046875l0 -0.390625q0 -0.6875 -0.359375 -1.0q-0.359375 -0.328125 -1.0 -0.328125q-0.625 0 -1.234375 0.1875q-0.609375 0.171875 -1.21875 0.453125l-0.796875 -1.609375q0.703125 -0.375 1.5625 -0.578125q0.859375 -0.21875 1.78125 -0.21875zm1.265625 4.875l-0.921875 0.03125q-1.15625 0.03125 -1.609375 0.421875q-0.4375 0.375 -0.4375 1.0q0 0.546875 0.3125 0.78125q0.328125 0.21875 0.84375 0.21875q0.765625 0 1.28125 -0.453125q0.53125 -0.453125 0.53125 -1.28125l0 -0.71875zm7.2109375 4.046875l-2.390625 0l0 -12.15625l2.390625 0l0 12.15625zm11.2421875 0l-2.421875 0l0 -9.40625l-3.09375 0l0 -2.015625l8.625 0l0 2.015625l-3.109375 0l0 9.40625zm7.0625 -8.734375l0 8.734375l-2.390625 0l0 -8.734375l2.390625 0zm-1.1875 -3.421875q0.53125 0 0.90625 0.25q0.390625 0.234375 0.390625 0.90625q0 0.671875 -0.390625 0.921875q-0.375 0.25 -0.90625 0.25q-0.546875 0 -0.921875 -0.25q-0.375 -0.25 -0.375 -0.921875q0 -0.671875 0.375 -0.90625q0.375 -0.25 0.921875 -0.25zm13.9453125 3.25q1.484375 0 2.234375 0.765625q0.765625 0.765625 0.765625 2.4375l0 5.703125l-2.390625 0l0 -5.109375q0 -0.9375 -0.328125 -1.40625q-0.3125 -0.484375 -0.984375 -0.484375q-0.9375 0 -1.34375 0.6875q-0.390625 0.671875 -0.390625 1.921875l0 4.390625l-2.390625 0l0 -5.109375q0 -0.625 -0.140625 -1.046875q-0.140625 -0.421875 -0.4375 -0.625q-0.28125 -0.21875 -0.734375 -0.21875q-0.65625 0 -1.046875 0.34375q-0.375 0.328125 -0.53125 0.96875q-0.15625 0.640625 -0.15625 1.578125l0 4.109375l-2.390625 0l0 -8.734375l1.828125 0l0.3125 1.109375l0.140625 0q0.265625 -0.453125 0.65625 -0.734375q0.40625 -0.28125 0.890625 -0.40625q0.484375 -0.140625 0.984375 -0.140625q0.96875 0 1.625 0.3125q0.671875 0.3125 1.03125 0.96875l0.21875 0q0.390625 -0.671875 1.09375 -0.96875q0.71875 -0.3125 1.484375 -0.3125zm9.0546875 0q1.203125 0 2.078125 0.46875q0.875 0.46875 1.34375 1.359375q0.484375 0.875 0.484375 2.140625l0 1.15625l-5.625 0q0.03125 1.015625 0.59375 1.59375q0.578125 0.5625 1.578125 0.5625q0.84375 0 1.53125 -0.171875q0.703125 -0.171875 1.4375 -0.515625l0 1.84375q-0.65625 0.328125 -1.359375 0.46875q-0.703125 0.15625 -1.71875 0.15625q-1.3125 0 -2.328125 -0.484375q-1.0 -0.484375 -1.578125 -1.46875q-0.578125 -1.0 -0.578125 -2.515625q0 -1.53125 0.515625 -2.546875q0.53125 -1.015625 1.453125 -1.53125q0.9375 -0.515625 2.171875 -0.515625zm0.015625 1.703125q-0.703125 0 -1.15625 0.453125q-0.453125 0.4375 -0.53125 1.390625l3.34375 0q0 -0.53125 -0.1875 -0.9375q-0.1875 -0.421875 -0.546875 -0.65625q-0.359375 -0.25 -0.921875 -0.25zm8.046875 5.34375l0.125 0.171875q-0.140625 0.5625 -0.375 1.21875q-0.21875 0.65625 -0.484375 1.296875q-0.25 0.65625 -0.515625 1.234375l-1.71875 0q0.15625 -0.625 0.296875 -1.328125q0.15625 -0.6875 0.28125 -1.359375q0.125 -0.6875 0.203125 -1.234375l2.1875 0zm11.53125 1.859375l-2.75 -8.96875l-0.078125 0q0.015625 0.328125 0.046875 0.96875q0.046875 0.640625 0.078125 1.375q0.03125 0.71875 0.03125 1.3125l0 5.3125l-2.171875 0l0 -11.421875l3.296875 0l2.703125 8.734375l0.046875 0l2.875 -8.734375l3.296875 0l0 11.421875l-2.265625 0l0 -5.40625q0 -0.546875 0.015625 -1.25q0.03125 -0.703125 0.0625 -1.328125q0.03125 -0.640625 0.046875 -0.96875l-0.078125 0l-2.9375 8.953125l-2.21875 0zm13.6484375 -6.3125l0 -1.6875l7.765625 0l0 1.6875l-7.765625 0zm0 3.046875l0 -1.71875l7.765625 0l0 1.71875l-7.765625 0zm18.898438 3.265625l-2.75 -8.96875l-0.078125 0q0.015625 0.328125 0.046875 0.96875q0.046875 0.640625 0.078125 1.375q0.03125 0.71875 0.03125 1.3125l0 5.3125l-2.171875 0l0 -11.421875l3.296875 0l2.703125 8.734375l0.046875 0l2.875 -8.734375l3.296875 0l0 11.421875l-2.265625 0l0 -5.40625q0 -0.546875 0.015625 -1.25q0.03125 -0.703125 0.0625 -1.328125q0.03125 -0.640625 0.046875 -0.96875l-0.078125 0l-2.9375 8.953125l-2.21875 0zm13.6328125 -8.921875q1.765625 0 2.703125 0.765625q0.9375 0.765625 0.9375 2.328125l0 5.828125l-1.671875 0l-0.453125 -1.1875l-0.0625 0q-0.375 0.46875 -0.765625 0.765625q-0.390625 0.296875 -0.90625 0.4375q-0.5 0.140625 -1.234375 0.140625q-0.765625 0 -1.390625 -0.296875q-0.609375 -0.296875 -0.96875 -0.90625q-0.34375 -0.625 -0.34375 -1.5625q0 -1.390625 0.96875 -2.046875q0.984375 -0.671875 2.9375 -0.734375l1.515625 -0.046875l0 -0.390625q0 -0.6875 -0.359375 -1.0q-0.359375 -0.328125 -1.0 -0.328125q-0.625 0 -1.234375 0.1875q-0.609375 0.171875 -1.21875 0.453125l-0.796875 -1.609375q0.703125 -0.375 1.5625 -0.578125q0.859375 -0.21875 1.78125 -0.21875zm1.265625 4.875l-0.921875 0.03125q-1.15625 0.03125 -1.609375 0.421875q-0.4375 0.375 -0.4375 1.0q0 0.546875 0.3125 0.78125q0.328125 0.21875 0.84375 0.21875q0.765625 0 1.28125 -0.453125q0.53125 -0.453125 0.53125 -1.28125l0 -0.71875zm7.3828125 7.890625q-1.828125 0 -2.796875 -0.640625q-0.96875 -0.625 -0.96875 -1.78125q0 -0.78125 0.484375 -1.328125q0.5 -0.53125 1.453125 -0.75q-0.359375 -0.15625 -0.640625 -0.515625q-0.265625 -0.359375 -0.265625 -0.75q0 -0.5 0.28125 -0.828125q0.296875 -0.34375 0.84375 -0.65625q-0.6875 -0.296875 -1.09375 -0.953125q-0.40625 -0.65625 -0.40625 -1.546875q0 -0.953125 0.421875 -1.625q0.421875 -0.671875 1.21875 -1.015625q0.796875 -0.359375 1.953125 -0.359375q0.234375 0 0.546875 0.03125q0.328125 0.03125 0.59375 0.078125q0.28125 0.03125 0.375 0.0625l3.046875 0l0 1.203125l-1.375 0.359375q0.1875 0.28125 0.28125 0.609375q0.09375 0.328125 0.09375 0.703125q0 1.40625 -0.984375 2.1875q-0.96875 0.78125 -2.71875 0.78125q-0.40625 -0.015625 -0.78125 -0.0625q-0.171875 0.140625 -0.265625 0.296875q-0.09375 0.15625 -0.09375 0.328125q0 0.171875 0.140625 0.296875q0.140625 0.109375 0.4375 0.171875q0.296875 0.046875 0.734375 0.046875l1.484375 0q1.4375 0 2.1875 0.625q0.75 0.609375 0.75 1.8125q0 1.53125 -1.28125 2.375q-1.265625 0.84375 -3.65625 0.84375zm0.09375 -1.546875q0.859375 0 1.46875 -0.171875q0.609375 -0.15625 0.9375 -0.453125q0.328125 -0.28125 0.328125 -0.6875q0 -0.328125 -0.1875 -0.53125q-0.1875 -0.1875 -0.578125 -0.265625q-0.390625 -0.078125 -0.984375 -0.078125l-1.234375 0q-0.4375 0 -0.796875 0.140625q-0.34375 0.140625 -0.546875 0.390625q-0.203125 0.265625 -0.203125 0.59375q0 0.5 0.46875 0.78125q0.484375 0.28125 1.328125 0.28125zm0.390625 -6.640625q0.671875 0 0.984375 -0.40625q0.3125 -0.421875 0.3125 -1.125q0 -0.796875 -0.328125 -1.1875q-0.328125 -0.390625 -0.96875 -0.390625q-0.65625 0 -0.984375 0.390625q-0.328125 0.390625 -0.328125 1.1875q0 0.703125 0.3125 1.125q0.328125 0.40625 1.0 0.40625zm10.9609375 -4.5625q1.390625 0 2.234375 0.765625q0.859375 0.765625 0.859375 2.4375l0 5.703125l-2.375 0l0 -5.109375q0 -0.9375 -0.34375 -1.40625q-0.34375 -0.484375 -1.0625 -0.484375q-1.09375 0 -1.5 0.75q-0.390625 0.734375 -0.390625 2.140625l0 4.109375l-2.390625 0l0 -8.734375l1.828125 0l0.3125 1.109375l0.140625 0q0.28125 -0.453125 0.6875 -0.734375q0.421875 -0.28125 0.9375 -0.40625q0.515625 -0.140625 1.0625 -0.140625zm7.9375 0.171875l0 8.734375l-2.390625 0l0 -8.734375l2.390625 0zm-1.1875 -3.421875q0.53125 0 0.90625 0.25q0.390625 0.234375 0.390625 0.90625q0 0.671875 -0.390625 0.921875q-0.375 0.25 -0.90625 0.25q-0.546875 0 -0.921875 -0.25q-0.375 -0.25 -0.375 -0.921875q0 -0.671875 0.375 -0.90625q0.375 -0.25 0.921875 -0.25zm7.3671875 10.40625q0.390625 0 0.75 -0.078125q0.375 -0.078125 0.75 -0.1875l0 1.765625q-0.390625 0.171875 -0.953125 0.28125q-0.5625 0.125 -1.234375 0.125q-0.78125 0 -1.40625 -0.25q-0.625 -0.265625 -0.984375 -0.890625q-0.34375 -0.625 -0.34375 -1.75l0 -4.21875l-1.140625 0l0 -1.0l1.3125 -0.796875l0.6875 -1.84375l1.515625 0l0 1.859375l2.453125 0l0 1.78125l-2.453125 0l0 4.21875q0 0.5 0.28125 0.75q0.296875 0.234375 0.765625 0.234375zm11.2734375 -6.984375l0 8.734375l-1.828125 0l-0.3125 -1.125l-0.125 0q-0.28125 0.453125 -0.703125 0.734375q-0.421875 0.28125 -0.9375 0.40625q-0.5 0.140625 -1.046875 0.140625q-0.9375 0 -1.640625 -0.328125q-0.6875 -0.34375 -1.078125 -1.046875q-0.390625 -0.703125 -0.390625 -1.828125l0 -5.6875l2.390625 0l0 5.09375q0 0.9375 0.328125 1.421875q0.34375 0.46875 1.078125 0.46875q0.71875 0 1.125 -0.328125q0.421875 -0.328125 0.59375 -0.96875q0.171875 -0.65625 0.171875 -1.578125l0 -4.109375l2.375 0zm5.265625 8.890625q-1.453125 0 -2.375 -1.140625q-0.921875 -1.15625 -0.921875 -3.375q0 -2.234375 0.921875 -3.390625q0.9375 -1.15625 2.4375 -1.15625q0.625 0 1.09375 0.171875q0.484375 0.171875 0.828125 0.46875q0.359375 0.28125 0.59375 0.640625l0.078125 0q-0.046875 -0.25 -0.109375 -0.734375q-0.0625 -0.484375 -0.0625 -1.0l0 -2.796875l2.390625 0l0 12.15625l-1.828125 0l-0.46875 -1.140625l-0.09375 0q-0.234375 0.359375 -0.578125 0.65625q-0.328125 0.296875 -0.796875 0.46875q-0.46875 0.171875 -1.109375 0.171875zm0.84375 -1.90625q0.96875 0 1.375 -0.578125q0.40625 -0.578125 0.421875 -1.75l0 -0.265625q0 -1.265625 -0.390625 -1.9375q-0.390625 -0.6875 -1.453125 -0.6875q-0.78125 0 -1.234375 0.6875q-0.4375 0.671875 -0.4375 1.953125q0 1.28125 0.4375 1.9375q0.453125 0.640625 1.28125 0.640625zm10.125 -7.15625q1.203125 0 2.078125 0.46875q0.875 0.46875 1.34375 1.359375q0.484375 0.875 0.484375 2.140625l0 1.15625l-5.625 0q0.03125 1.015625 0.59375 1.59375q0.578125 0.5625 1.578125 0.5625q0.84375 0 1.53125 -0.171875q0.703125 -0.171875 1.4375 -0.515625l0 1.84375q-0.65625 0.328125 -1.359375 0.46875q-0.703125 0.15625 -1.71875 0.15625q-1.3125 0 -2.328125 -0.484375q-1.0 -0.484375 -1.578125 -1.46875q-0.578125 -1.0 -0.578125 -2.515625q0 -1.53125 0.515625 -2.546875q0.53125 -1.015625 1.453125 -1.53125q0.9375 -0.515625 2.171875 -0.515625zm0.015625 1.703125q-0.703125 0 -1.15625 0.453125q-0.453125 0.4375 -0.53125 1.390625l3.34375 0q0 -0.53125 -0.1875 -0.9375q-0.1875 -0.421875 -0.546875 -0.65625q-0.359375 -0.25 -0.921875 -0.25zm9.375 2.8125q0 -1.296875 0.25 -2.546875q0.25 -1.25 0.765625 -2.375q0.53125 -1.140625 1.34375 -2.109375l1.953125 0q-1.09375 1.5 -1.671875 3.3125q-0.5625 1.8125 -0.5625 3.703125q0 1.234375 0.25 2.46875q0.25 1.21875 0.75 2.34375q0.5 1.140625 1.21875 2.125l-1.9375 0q-0.8125 -0.9375 -1.34375 -2.0625q-0.515625 -1.109375 -0.765625 -2.328125q-0.25 -1.234375 -0.25 -2.53125zm12.96875 1.21875q0 1.015625 -0.5 1.765625q-0.484375 0.75 -1.4375 1.15625q-0.9375 0.40625 -2.28125 0.40625q-0.59375 0 -1.15625 -0.078125q-0.5625 -0.078125 -1.09375 -0.234375q-0.515625 -0.15625 -0.984375 -0.375l0 -2.25q0.8125 0.359375 1.6875 0.65625q0.875 0.28125 1.734375 0.28125q0.59375 0 0.953125 -0.15625q0.375 -0.15625 0.53125 -0.421875q0.171875 -0.28125 0.171875 -0.640625q0 -0.421875 -0.296875 -0.71875q-0.28125 -0.3125 -0.796875 -0.578125q-0.5 -0.265625 -1.125 -0.578125q-0.40625 -0.1875 -0.875 -0.453125q-0.46875 -0.265625 -0.890625 -0.65625q-0.421875 -0.390625 -0.6875 -0.953125q-0.265625 -0.5625 -0.265625 -1.34375q0 -1.015625 0.46875 -1.734375q0.46875 -0.734375 1.328125 -1.125q0.875 -0.390625 2.0625 -0.390625q0.890625 0 1.703125 0.21875q0.8125 0.203125 1.6875 0.59375l-0.78125 1.875q-0.78125 -0.3125 -1.40625 -0.484375q-0.625 -0.1875 -1.28125 -0.1875q-0.453125 0 -0.78125 0.15625q-0.3125 0.140625 -0.484375 0.40625q-0.15625 0.25 -0.15625 0.59375q0 0.40625 0.234375 0.6875q0.25 0.28125 0.71875 0.546875q0.484375 0.25 1.203125 0.59375q0.875 0.40625 1.5 0.859375q0.625 0.453125 0.953125 1.0625q0.34375 0.59375 0.34375 1.5zm9.890625 -5.5625l0 8.734375l-1.828125 0l-0.3125 -1.125l-0.125 0q-0.28125 0.453125 -0.703125 0.734375q-0.421875 0.28125 -0.9375 0.40625q-0.5 0.140625 -1.046875 0.140625q-0.9375 0 -1.640625 -0.328125q-0.6875 -0.34375 -1.078125 -1.046875q-0.390625 -0.703125 -0.390625 -1.828125l0 -5.6875l2.390625 0l0 5.09375q0 0.9375 0.328125 1.421875q0.34375 0.46875 1.078125 0.46875q0.71875 0 1.125 -0.328125q0.421875 -0.328125 0.59375 -0.96875q0.171875 -0.65625 0.171875 -1.578125l0 -4.109375l2.375 0zm12.765625 -0.171875q1.484375 0 2.234375 0.765625q0.765625 0.765625 0.765625 2.4375l0 5.703125l-2.390625 0l0 -5.109375q0 -0.9375 -0.328125 -1.40625q-0.3125 -0.484375 -0.984375 -0.484375q-0.9375 0 -1.34375 0.6875q-0.390625 0.671875 -0.390625 1.921875l0 4.390625l-2.390625 0l0 -5.109375q0 -0.625 -0.140625 -1.046875q-0.140625 -0.421875 -0.4375 -0.625q-0.28125 -0.21875 -0.734375 -0.21875q-0.65625 0 -1.046875 0.34375q-0.375 0.328125 -0.53125 0.96875q-0.15625 0.640625 -0.15625 1.578125l0 4.109375l-2.390625 0l0 -8.734375l1.828125 0l0.3125 1.109375l0.140625 0q0.265625 -0.453125 0.65625 -0.734375q0.40625 -0.28125 0.890625 -0.40625q0.484375 -0.140625 0.984375 -0.140625q0.96875 0 1.625 0.3125q0.671875 0.3125 1.03125 0.96875l0.21875 0q0.390625 -0.671875 1.09375 -0.96875q0.71875 -0.3125 1.484375 -0.3125zm17.539062 4.515625q0 1.09375 -0.296875 1.9375q-0.28125 0.84375 -0.84375 1.4375q-0.5625 0.578125 -1.34375 0.875q-0.78125 0.296875 -1.765625 0.296875q-0.921875 0 -1.703125 -0.296875q-0.765625 -0.296875 -1.328125 -0.875q-0.5625 -0.59375 -0.875 -1.4375q-0.3125 -0.84375 -0.3125 -1.9375q0 -1.453125 0.515625 -2.453125q0.515625 -1.015625 1.46875 -1.53125q0.953125 -0.53125 2.28125 -0.53125q1.21875 0 2.171875 0.53125q0.953125 0.515625 1.484375 1.53125q0.546875 1.0 0.546875 2.453125zm-6.03125 0q0 0.859375 0.1875 1.453125q0.1875 0.578125 0.578125 0.875q0.40625 0.296875 1.046875 0.296875q0.625 0 1.015625 -0.296875q0.40625 -0.296875 0.578125 -0.875q0.1875 -0.59375 0.1875 -1.453125q0 -0.859375 -0.1875 -1.4375q-0.171875 -0.578125 -0.578125 -0.859375q-0.390625 -0.296875 -1.03125 -0.296875q-0.953125 0 -1.375 0.65625q-0.421875 0.640625 -0.421875 1.9375zm12.828125 -2.5625l-2.0625 0l0 6.953125l-2.375 0l0 -6.953125l-1.3125 0l0 -1.140625l1.3125 -0.640625l0 -0.640625q0 -1.125 0.375 -1.734375q0.375 -0.625 1.0625 -0.875q0.703125 -0.265625 1.640625 -0.265625q0.703125 0 1.265625 0.125q0.578125 0.109375 0.9375 0.25l-0.609375 1.75q-0.28125 -0.09375 -0.609375 -0.15625q-0.3125 -0.078125 -0.71875 -0.078125q-0.5 0 -0.734375 0.3125q-0.234375 0.296875 -0.234375 0.765625l0 0.546875l2.0625 0l0 1.78125zm15.1953125 1.125q0 1.9375 -0.75 3.234375q-0.734375 1.28125 -2.140625 1.9375q-1.390625 0.65625 -3.359375 0.65625l-3.234375 0l0 -11.421875l3.59375 0q1.796875 0 3.109375 0.640625q1.328125 0.625 2.046875 1.875q0.734375 1.25 0.734375 3.078125zm-2.515625 0.0625q0 -1.265625 -0.375 -2.078125q-0.375 -0.8125 -1.09375 -1.203125q-0.71875 -0.390625 -1.78125 -0.390625l-1.296875 0l0 7.4375l1.046875 0q1.765625 0 2.625 -0.9375q0.875 -0.953125 0.875 -2.828125zm8.296875 -3.140625q1.203125 0 2.078125 0.46875q0.875 0.46875 1.34375 1.359375q0.484375 0.875 0.484375 2.140625l0 1.15625l-5.625 0q0.03125 1.015625 0.59375 1.59375q0.578125 0.5625 1.578125 0.5625q0.84375 0 1.53125 -0.171875q0.703125 -0.171875 1.4375 -0.515625l0 1.84375q-0.65625 0.328125 -1.359375 0.46875q-0.703125 0.15625 -1.71875 0.15625q-1.3125 0 -2.328125 -0.484375q-1.0 -0.484375 -1.578125 -1.46875q-0.578125 -1.0 -0.578125 -2.515625q0 -1.53125 0.515625 -2.546875q0.53125 -1.015625 1.453125 -1.53125q0.9375 -0.515625 2.171875 -0.515625zm0.015625 1.703125q-0.703125 0 -1.15625 0.453125q-0.453125 0.4375 -0.53125 1.390625l3.34375 0q0 -0.53125 -0.1875 -0.9375q-0.1875 -0.421875 -0.546875 -0.65625q-0.359375 -0.25 -0.921875 -0.25zm10.65625 0.25l-2.0625 0l0 6.953125l-2.375 0l0 -6.953125l-1.3125 0l0 -1.140625l1.3125 -0.640625l0 -0.640625q0 -1.125 0.375 -1.734375q0.375 -0.625 1.0625 -0.875q0.703125 -0.265625 1.640625 -0.265625q0.703125 0 1.265625 0.125q0.578125 0.109375 0.9375 0.25l-0.609375 1.75q-0.28125 -0.09375 -0.609375 -0.15625q-0.3125 -0.078125 -0.71875 -0.078125q-0.5 0 -0.734375 0.3125q-0.234375 0.296875 -0.234375 0.765625l0 0.546875l2.0625 0l0 1.78125zm3.765625 -1.78125l0 8.734375l-2.390625 0l0 -8.734375l2.390625 0zm-1.1875 -3.421875q0.53125 0 0.90625 0.25q0.390625 0.234375 0.390625 0.90625q0 0.671875 -0.390625 0.921875q-0.375 0.25 -0.90625 0.25q-0.546875 0 -0.921875 -0.25q-0.375 -0.25 -0.375 -0.921875q0 -0.671875 0.375 -0.90625q0.375 -0.25 0.921875 -0.25zm7.2109375 12.3125q-1.296875 0 -2.21875 -0.46875q-0.90625 -0.484375 -1.390625 -1.46875q-0.46875 -1.0 -0.46875 -2.546875q0 -1.59375 0.546875 -2.609375q0.546875 -1.015625 1.5 -1.484375q0.96875 -0.484375 2.25 -0.484375q0.90625 0 1.5625 0.1875q0.65625 0.171875 1.15625 0.40625l-0.703125 1.84375q-0.5625 -0.21875 -1.046875 -0.359375q-0.484375 -0.15625 -0.96875 -0.15625q-0.625 0 -1.046875 0.296875q-0.40625 0.296875 -0.609375 0.890625q-0.203125 0.578125 -0.203125 1.453125q0 0.875 0.21875 1.453125q0.21875 0.5625 0.625 0.84375q0.421875 0.265625 1.015625 0.265625q0.734375 0 1.3125 -0.1875q0.578125 -0.203125 1.125 -0.5625l0 2.03125q-0.546875 0.34375 -1.140625 0.5q-0.59375 0.15625 -1.515625 0.15625zm7.0703125 -8.890625l0 8.734375l-2.390625 0l0 -8.734375l2.390625 0zm-1.1875 -3.421875q0.53125 0 0.90625 0.25q0.390625 0.234375 0.390625 0.90625q0 0.671875 -0.390625 0.921875q-0.375 0.25 -0.90625 0.25q-0.546875 0 -0.921875 -0.25q-0.375 -0.25 -0.375 -0.921875q0 -0.671875 0.375 -0.90625q0.375 -0.25 0.921875 -0.25zm7.3671875 10.40625q0.390625 0 0.75 -0.078125q0.375 -0.078125 0.75 -0.1875l0 1.765625q-0.390625 0.171875 -0.953125 0.28125q-0.5625 0.125 -1.234375 0.125q-0.78125 0 -1.40625 -0.25q-0.625 -0.265625 -0.984375 -0.890625q-0.34375 -0.625 -0.34375 -1.75l0 -4.21875l-1.140625 0l0 -1.0l1.3125 -0.796875l0.6875 -1.84375l1.515625 0l0 1.859375l2.453125 0l0 1.78125l-2.453125 0l0 4.21875q0 0.5 0.28125 0.75q0.296875 0.234375 0.765625 0.234375zm6.7890625 -2.640625q0 1.296875 -0.25 2.53125q-0.25 1.21875 -0.765625 2.328125q-0.515625 1.125 -1.328125 2.0625l-1.9375 0q0.71875 -0.984375 1.203125 -2.125q0.5 -1.125 0.75 -2.34375q0.25 -1.234375 0.25 -2.46875q0 -1.265625 -0.25 -2.5q-0.25 -1.234375 -0.75 -2.375q-0.484375 -1.140625 -1.21875 -2.140625l1.953125 0q0.8125 0.96875 1.328125 2.109375q0.515625 1.125 0.765625 2.375q0.25 1.25 0.25 2.546875zm4.109375 2.53125l0.125 0.171875q-0.140625 0.5625 -0.375 1.21875q-0.21875 0.65625 -0.484375 1.296875q-0.25 0.65625 -0.515625 1.234375l-1.71875 0q0.15625 -0.625 0.296875 -1.328125q0.15625 -0.6875 0.28125 -1.359375q0.125 -0.6875 0.203125 -1.234375l2.1875 0zm6.6875 1.859375l0 -11.421875l2.421875 0l0 11.421875l-2.421875 0zm8.703125 -6.3125l0 -1.6875l7.765625 0l0 1.6875l-7.765625 0zm0 3.046875l0 -1.71875l7.765625 0l0 1.71875l-7.765625 0zm14.0546875 3.265625l0 -11.421875l2.421875 0l0 11.421875l-2.421875 0zm10.078125 -8.90625q1.390625 0 2.234375 0.765625q0.859375 0.765625 0.859375 2.4375l0 5.703125l-2.375 0l0 -5.109375q0 -0.9375 -0.34375 -1.40625q-0.34375 -0.484375 -1.0625 -0.484375q-1.09375 0 -1.5 0.75q-0.390625 0.734375 -0.390625 2.140625l0 4.109375l-2.390625 0l0 -8.734375l1.828125 0l0.3125 1.109375l0.140625 0q0.28125 -0.453125 0.6875 -0.734375q0.421875 -0.28125 0.9375 -0.40625q0.515625 -0.140625 1.0625 -0.140625zm9.234375 7.15625q0.390625 0 0.75 -0.078125q0.375 -0.078125 0.75 -0.1875l0 1.765625q-0.390625 0.171875 -0.953125 0.28125q-0.5625 0.125 -1.234375 0.125q-0.78125 0 -1.40625 -0.25q-0.625 -0.265625 -0.984375 -0.890625q-0.34375 -0.625 -0.34375 -1.75l0 -4.21875l-1.140625 0l0 -1.0l1.3125 -0.796875l0.6875 -1.84375l1.515625 0l0 1.859375l2.453125 0l0 1.78125l-2.453125 0l0 4.21875q0 0.5 0.28125 0.75q0.296875 0.234375 0.765625 0.234375zm6.8671875 -7.15625q1.203125 0 2.078125 0.46875q0.875 0.46875 1.34375 1.359375q0.484375 0.875 0.484375 2.140625l0 1.15625l-5.625 0q0.03125 1.015625 0.59375 1.59375q0.578125 0.5625 1.578125 0.5625q0.84375 0 1.53125 -0.171875q0.703125 -0.171875 1.4375 -0.515625l0 1.84375q-0.65625 0.328125 -1.359375 0.46875q-0.703125 0.15625 -1.71875 0.15625q-1.3125 0 -2.328125 -0.484375q-1.0 -0.484375 -1.578125 -1.46875q-0.578125 -1.0 -0.578125 -2.515625q0 -1.53125 0.515625 -2.546875q0.53125 -1.015625 1.453125 -1.53125q0.9375 -0.515625 2.171875 -0.515625zm0.015625 1.703125q-0.703125 0 -1.15625 0.453125q-0.453125 0.4375 -0.53125 1.390625l3.34375 0q0 -0.53125 -0.1875 -0.9375q-0.1875 -0.421875 -0.546875 -0.65625q-0.359375 -0.25 -0.921875 -0.25zm10.796875 -1.703125q1.390625 0 2.234375 0.765625q0.859375 0.765625 0.859375 2.4375l0 5.703125l-2.375 0l0 -5.109375q0 -0.9375 -0.34375 -1.40625q-0.34375 -0.484375 -1.0625 -0.484375q-1.09375 0 -1.5 0.75q-0.390625 0.734375 -0.390625 2.140625l0 4.109375l-2.390625 0l0 -8.734375l1.828125 0l0.3125 1.109375l0.140625 0q0.28125 -0.453125 0.6875 -0.734375q0.421875 -0.28125 0.9375 -0.40625q0.515625 -0.140625 1.0625 -0.140625zm11.640625 6.3125q0 0.890625 -0.421875 1.5q-0.40625 0.609375 -1.234375 0.9375q-0.828125 0.3125 -2.0625 0.3125q-0.921875 0 -1.578125 -0.125q-0.640625 -0.109375 -1.3125 -0.390625l0 -1.96875q0.71875 0.328125 1.53125 0.53125q0.8125 0.203125 1.4375 0.203125q0.6875 0 0.984375 -0.203125q0.3125 -0.203125 0.3125 -0.546875q0 -0.21875 -0.125 -0.390625q-0.125 -0.171875 -0.53125 -0.390625q-0.390625 -0.234375 -1.234375 -0.59375q-0.828125 -0.34375 -1.359375 -0.6875q-0.515625 -0.359375 -0.78125 -0.828125q-0.25 -0.484375 -0.25 -1.234375q0 -1.203125 0.9375 -1.8125q0.953125 -0.625 2.53125 -0.625q0.8125 0 1.546875 0.171875q0.734375 0.15625 1.515625 0.515625l-0.71875 1.71875q-0.640625 -0.28125 -1.21875 -0.453125q-0.578125 -0.1875 -1.171875 -0.1875q-0.515625 0 -0.78125 0.140625q-0.265625 0.140625 -0.265625 0.4375q0 0.203125 0.125 0.375q0.140625 0.15625 0.53125 0.359375q0.40625 0.203125 1.171875 0.515625q0.734375 0.296875 1.28125 0.640625q0.546875 0.328125 0.84375 0.8125q0.296875 0.484375 0.296875 1.265625zm4.25 -6.140625l0 8.734375l-2.390625 0l0 -8.734375l2.390625 0zm-1.1875 -3.421875q0.53125 0 0.90625 0.25q0.390625 0.234375 0.390625 0.90625q0 0.671875 -0.390625 0.921875q-0.375 0.25 -0.90625 0.25q-0.546875 0 -0.921875 -0.25q-0.375 -0.25 -0.375 -0.921875q0 -0.671875 0.375 -0.90625q0.375 -0.25 0.921875 -0.25zm7.3671875 10.40625q0.390625 0 0.75 -0.078125q0.375 -0.078125 0.75 -0.1875l0 1.765625q-0.390625 0.171875 -0.953125 0.28125q-0.5625 0.125 -1.234375 0.125q-0.78125 0 -1.40625 -0.25q-0.625 -0.265625 -0.984375 -0.890625q-0.34375 -0.625 -0.34375 -1.75l0 -4.21875l-1.140625 0l0 -1.0l1.3125 -0.796875l0.6875 -1.84375l1.515625 0l0 1.859375l2.453125 0l0 1.78125l-2.453125 0l0 4.21875q0 0.5 0.28125 0.75q0.296875 0.234375 0.765625 0.234375zm2.0078125 -6.984375l2.609375 0l1.65625 4.90625q0.078125 0.234375 0.125 0.484375q0.0625 0.234375 0.09375 0.5q0.046875 0.25 0.0625 0.53125l0.046875 0q0.046875 -0.421875 0.125 -0.78125q0.09375 -0.375 0.21875 -0.734375l1.609375 -4.90625l2.5625 0l-3.703125 9.859375q-0.328125 0.90625 -0.875 1.5q-0.53125 0.609375 -1.234375 0.90625q-0.703125 0.3125 -1.53125 0.3125q-0.40625 0 -0.703125 -0.046875q-0.296875 -0.03125 -0.515625 -0.078125l0 -1.890625q0.171875 0.03125 0.421875 0.0625q0.25 0.03125 0.515625 0.03125q0.5 0 0.859375 -0.21875q0.359375 -0.203125 0.59375 -0.5625q0.25 -0.34375 0.390625 -0.765625l0.140625 -0.4375l-3.46875 -8.671875zm13.9453125 2.421875l0 -1.6875l7.765625 0l0 1.6875l-7.765625 0zm0 3.046875l0 -1.71875l7.765625 0l0 1.71875l-7.765625 0zm18.898438 3.265625l-2.75 -8.96875l-0.078125 0q0.015625 0.328125 0.046875 0.96875q0.046875 0.640625 0.078125 1.375q0.03125 0.71875 0.03125 1.3125l0 5.3125l-2.171875 0l0 -11.421875l3.296875 0l2.703125 8.734375l0.046875 0l2.875 -8.734375l3.296875 0l0 11.421875l-2.265625 0l0 -5.40625q0 -0.546875 0.015625 -1.25q0.03125 -0.703125 0.0625 -1.328125q0.03125 -0.640625 0.046875 -0.96875l-0.078125 0l-2.9375 8.953125l-2.21875 0zm15.3359375 -11.421875l-4.25 11.421875l-2.171875 0l4.265625 -11.421875l2.15625 0zm11.0 5.59375q0 1.9375 -0.75 3.234375q-0.734375 1.28125 -2.140625 1.9375q-1.390625 0.65625 -3.359375 0.65625l-3.234375 0l0 -11.421875l3.59375 0q1.796875 0 3.109375 0.640625q1.328125 0.625 2.046875 1.875q0.734375 1.25 0.734375 3.078125zm-2.515625 0.0625q0 -1.265625 -0.375 -2.078125q-0.375 -0.8125 -1.09375 -1.203125q-0.71875 -0.390625 -1.78125 -0.390625l-1.296875 0l0 7.4375l1.046875 0q1.765625 0 2.625 -0.9375q0.875 -0.953125 0.875 -2.828125z" fill-rule="nonzero"/><path fill="#000000" fill-opacity="0.0" d="m207.99397 168.90552l56.40944 0l0 33.92125l-56.40944 0z" fill-rule="evenodd"/><path fill="#000000" d="m225.18147 185.06613q0 1.4375 -0.5625 2.40625q-0.546875 0.96875 -1.59375 1.46875q-1.046875 0.484375 -2.53125 0.484375l-2.421875 0l0 -8.5625l2.6875 0q1.34375 0 2.328125 0.484375q1.0 0.46875 1.546875 1.40625q0.546875 0.921875 0.546875 2.3125zm-1.890625 0.046875q0 -0.953125 -0.28125 -1.5625q-0.265625 -0.625 -0.8125 -0.90625q-0.546875 -0.296875 -1.34375 -0.296875l-0.96875 0l0 5.578125l0.78125 0q1.328125 0 1.96875 -0.703125q0.65625 -0.71875 0.65625 -2.109375zm7.1796875 -2.359375q0.140625 0 0.3125 0.015625q0.1875 0.015625 0.296875 0.03125l-0.140625 1.671875q-0.09375 -0.015625 -0.25 -0.03125q-0.15625 -0.015625 -0.28125 -0.015625q-0.34375 0 -0.671875 0.09375q-0.3125 0.078125 -0.578125 0.28125q-0.25 0.1875 -0.40625 0.515625q-0.15625 0.3125 -0.15625 0.78125l0 3.328125l-1.78125 0l0 -6.546875l1.359375 0l0.265625 1.09375l0.078125 0q0.203125 -0.328125 0.484375 -0.609375q0.296875 -0.28125 0.65625 -0.4375q0.375 -0.171875 0.8125 -0.171875zm0.85546875 0.125l1.953125 0l1.234375 3.6875q0.0625 0.171875 0.09375 0.359375q0.046875 0.171875 0.078125 0.375q0.03125 0.1875 0.046875 0.390625l0.046875 0q0.03125 -0.3125 0.09375 -0.578125q0.0625 -0.28125 0.15625 -0.546875l1.203125 -3.6875l1.921875 0l-2.765625 7.390625q-0.265625 0.671875 -0.671875 1.125q-0.390625 0.453125 -0.921875 0.6875q-0.515625 0.234375 -1.15625 0.234375q-0.296875 0 -0.53125 -0.046875q-0.21875 -0.03125 -0.375 -0.0625l0 -1.421875q0.125 0.03125 0.3125 0.046875q0.1875 0.03125 0.390625 0.03125q0.375 0 0.640625 -0.15625q0.28125 -0.15625 0.453125 -0.421875q0.1875 -0.265625 0.296875 -0.578125l0.109375 -0.328125l-2.609375 -6.5z" fill-rule="nonzero"/><path fill="#000000" fill-opacity="0.0" d="m144.32599 120.59055l56.409454 0l0 33.921257l-56.409454 0z" fill-rule="evenodd"/><path fill="#000000" d="m164.93536 132.54805l-2.1875 8.5625l-2.0625 0l-1.171875 -4.5q-0.03125 -0.125 -0.09375 -0.390625q-0.046875 -0.265625 -0.125 -0.578125q-0.0625 -0.3125 -0.109375 -0.59375q-0.046875 -0.28125 -0.0625 -0.4375q-0.015625 0.15625 -0.078125 0.4375q-0.046875 0.265625 -0.109375 0.578125q-0.046875 0.3125 -0.109375 0.59375q-0.0625 0.265625 -0.09375 0.40625l-1.15625 4.484375l-2.0625 0l-2.1875 -8.5625l1.78125 0l1.109375 4.671875q0.046875 0.203125 0.09375 0.5q0.0625 0.296875 0.125 0.625q0.0625 0.3125 0.109375 0.609375q0.0625 0.296875 0.078125 0.515625q0.03125 -0.234375 0.078125 -0.53125q0.046875 -0.296875 0.09375 -0.59375q0.0625 -0.3125 0.125 -0.578125q0.0625 -0.265625 0.109375 -0.421875l1.25 -4.796875l1.703125 0l1.25 4.796875q0.046875 0.15625 0.09375 0.421875q0.0625 0.265625 0.125 0.578125q0.0625 0.3125 0.109375 0.609375q0.046875 0.296875 0.0625 0.515625q0.046875 -0.296875 0.109375 -0.71875q0.078125 -0.421875 0.15625 -0.828125q0.09375 -0.421875 0.15625 -0.703125l1.09375 -4.671875l1.796875 0zm3.6328125 1.890625q0.90625 0 1.5625 0.34375q0.65625 0.34375 1.015625 1.015625q0.359375 0.65625 0.359375 1.609375l0 0.875l-4.234375 0q0.03125 0.75 0.453125 1.1875q0.4375 0.421875 1.1875 0.421875q0.625 0 1.140625 -0.125q0.53125 -0.125 1.078125 -0.390625l0 1.390625q-0.484375 0.234375 -1.015625 0.34375q-0.53125 0.125 -1.28125 0.125q-0.984375 0 -1.75 -0.359375q-0.75 -0.375 -1.1875 -1.109375q-0.421875 -0.75 -0.421875 -1.890625q0 -1.140625 0.375 -1.90625q0.390625 -0.765625 1.09375 -1.140625q0.703125 -0.390625 1.625 -0.390625zm0.015625 1.265625q-0.53125 0 -0.875 0.34375q-0.34375 0.328125 -0.390625 1.046875l2.515625 0q-0.015625 -0.40625 -0.15625 -0.71875q-0.125 -0.3125 -0.40625 -0.484375q-0.265625 -0.1875 -0.6875 -0.1875zm7.1367188 4.09375q0.28125 0 0.5625 -0.046875q0.28125 -0.0625 0.5625 -0.15625l0 1.328125q-0.296875 0.140625 -0.71875 0.21875q-0.421875 0.09375 -0.921875 0.09375q-0.59375 0 -1.0625 -0.1875q-0.453125 -0.203125 -0.734375 -0.671875q-0.265625 -0.46875 -0.265625 -1.3125l0 -3.15625l-0.84375 0l0 -0.765625l0.984375 -0.59375l0.515625 -1.390625l1.140625 0l0 1.40625l1.828125 0l0 1.34375l-1.828125 0l0 3.15625q0 0.375 0.203125 0.5625q0.21875 0.171875 0.578125 0.171875z" fill-rule="nonzero"/></g></svg>